%TF.GenerationSoftware,KiCad,Pcbnew,(5.1.8)-1*%
%TF.CreationDate,2021-11-12T17:25:14-08:00*%
%TF.ProjectId,Krampus,4b72616d-7075-4732-9e6b-696361645f70,rev?*%
%TF.SameCoordinates,Original*%
%TF.FileFunction,Paste,Bot*%
%TF.FilePolarity,Positive*%
%FSLAX46Y46*%
G04 Gerber Fmt 4.6, Leading zero omitted, Abs format (unit mm)*
G04 Created by KiCad (PCBNEW (5.1.8)-1) date 2021-11-12 17:25:14*
%MOMM*%
%LPD*%
G01*
G04 APERTURE LIST*
%ADD10C,0.100000*%
%ADD11R,2.540000X7.620000*%
%ADD12R,1.524000X1.143000*%
%ADD13R,1.560000X0.650000*%
%ADD14R,1.200000X0.800000*%
G04 APERTURE END LIST*
D10*
%TO.C,SW1*%
G36*
X47602713Y-74494048D02*
G01*
X46814867Y-74632966D01*
X46641219Y-73648158D01*
X47429065Y-73509240D01*
X47602713Y-74494048D01*
G37*
G36*
X46335081Y-67304951D02*
G01*
X45547235Y-67443869D01*
X45373587Y-66459061D01*
X46161433Y-66320143D01*
X46335081Y-67304951D01*
G37*
G36*
X44158656Y-67688714D02*
G01*
X43370810Y-67827632D01*
X43197162Y-66842824D01*
X43985008Y-66703906D01*
X44158656Y-67688714D01*
G37*
G36*
X45426288Y-74877810D02*
G01*
X44638442Y-75016728D01*
X44464794Y-74031920D01*
X45252640Y-73893002D01*
X45426288Y-74877810D01*
G37*
G36*
X47536950Y-68362313D02*
G01*
X46059738Y-68622785D01*
X45938184Y-67933419D01*
X47415396Y-67672947D01*
X47536950Y-68362313D01*
G37*
G36*
X47797422Y-69839524D02*
G01*
X46320210Y-70099996D01*
X46198656Y-69410630D01*
X47675868Y-69150158D01*
X47797422Y-69839524D01*
G37*
G36*
X48318366Y-72793948D02*
G01*
X46841154Y-73054420D01*
X46719600Y-72365054D01*
X48196812Y-72104582D01*
X48318366Y-72793948D01*
G37*
%TD*%
D11*
%TO.C,BT1*%
X82520000Y-74930000D03*
X59720000Y-74930000D03*
%TD*%
D12*
%TO.C,D3*%
X72263000Y-98679000D03*
X68707000Y-98679000D03*
%TD*%
D10*
%TO.C,D4*%
G36*
X66979852Y-112935240D02*
G01*
X65952530Y-113436298D01*
X65284452Y-112066536D01*
X66311774Y-111565478D01*
X66979852Y-112935240D01*
G37*
G36*
X68538700Y-116131352D02*
G01*
X67511378Y-116632410D01*
X66843300Y-115262648D01*
X67870622Y-114761590D01*
X68538700Y-116131352D01*
G37*
%TD*%
%TO.C,D5*%
G36*
X67718622Y-137391622D02*
G01*
X66709413Y-137928228D01*
X65993938Y-136582616D01*
X67003147Y-136046010D01*
X67718622Y-137391622D01*
G37*
G36*
X69388062Y-140531384D02*
G01*
X68378853Y-141067990D01*
X67663378Y-139722378D01*
X68672587Y-139185772D01*
X69388062Y-140531384D01*
G37*
%TD*%
%TO.C,D6*%
G36*
X73940473Y-126461018D02*
G01*
X75000244Y-126889194D01*
X74429343Y-128302222D01*
X73369572Y-127874046D01*
X73940473Y-126461018D01*
G37*
G36*
X75272575Y-123163952D02*
G01*
X76332346Y-123592128D01*
X75761445Y-125005156D01*
X74701674Y-124576980D01*
X75272575Y-123163952D01*
G37*
%TD*%
D12*
%TO.C,D2*%
X78994000Y-86868000D03*
X82550000Y-86868000D03*
%TD*%
%TO.C,D1*%
X59944000Y-86868000D03*
X63500000Y-86868000D03*
%TD*%
%TO.C,R3*%
G36*
G01*
X54727000Y-94858000D02*
X53477000Y-94858000D01*
G75*
G02*
X53227000Y-94608000I0J250000D01*
G01*
X53227000Y-93808000D01*
G75*
G02*
X53477000Y-93558000I250000J0D01*
G01*
X54727000Y-93558000D01*
G75*
G02*
X54977000Y-93808000I0J-250000D01*
G01*
X54977000Y-94608000D01*
G75*
G02*
X54727000Y-94858000I-250000J0D01*
G01*
G37*
G36*
G01*
X54727000Y-97958000D02*
X53477000Y-97958000D01*
G75*
G02*
X53227000Y-97708000I0J250000D01*
G01*
X53227000Y-96908000D01*
G75*
G02*
X53477000Y-96658000I250000J0D01*
G01*
X54727000Y-96658000D01*
G75*
G02*
X54977000Y-96908000I0J-250000D01*
G01*
X54977000Y-97708000D01*
G75*
G02*
X54727000Y-97958000I-250000J0D01*
G01*
G37*
%TD*%
%TO.C,R8*%
G36*
G01*
X54600000Y-99938000D02*
X53350000Y-99938000D01*
G75*
G02*
X53100000Y-99688000I0J250000D01*
G01*
X53100000Y-98888000D01*
G75*
G02*
X53350000Y-98638000I250000J0D01*
G01*
X54600000Y-98638000D01*
G75*
G02*
X54850000Y-98888000I0J-250000D01*
G01*
X54850000Y-99688000D01*
G75*
G02*
X54600000Y-99938000I-250000J0D01*
G01*
G37*
G36*
G01*
X54600000Y-103038000D02*
X53350000Y-103038000D01*
G75*
G02*
X53100000Y-102788000I0J250000D01*
G01*
X53100000Y-101988000D01*
G75*
G02*
X53350000Y-101738000I250000J0D01*
G01*
X54600000Y-101738000D01*
G75*
G02*
X54850000Y-101988000I0J-250000D01*
G01*
X54850000Y-102788000D01*
G75*
G02*
X54600000Y-103038000I-250000J0D01*
G01*
G37*
%TD*%
%TO.C,R1*%
G36*
G01*
X68718000Y-87493000D02*
X68718000Y-86243000D01*
G75*
G02*
X68968000Y-85993000I250000J0D01*
G01*
X69768000Y-85993000D01*
G75*
G02*
X70018000Y-86243000I0J-250000D01*
G01*
X70018000Y-87493000D01*
G75*
G02*
X69768000Y-87743000I-250000J0D01*
G01*
X68968000Y-87743000D01*
G75*
G02*
X68718000Y-87493000I0J250000D01*
G01*
G37*
G36*
G01*
X65618000Y-87493000D02*
X65618000Y-86243000D01*
G75*
G02*
X65868000Y-85993000I250000J0D01*
G01*
X66668000Y-85993000D01*
G75*
G02*
X66918000Y-86243000I0J-250000D01*
G01*
X66918000Y-87493000D01*
G75*
G02*
X66668000Y-87743000I-250000J0D01*
G01*
X65868000Y-87743000D01*
G75*
G02*
X65618000Y-87493000I0J250000D01*
G01*
G37*
%TD*%
%TO.C,R2*%
G36*
G01*
X88022000Y-87493000D02*
X88022000Y-86243000D01*
G75*
G02*
X88272000Y-85993000I250000J0D01*
G01*
X89072000Y-85993000D01*
G75*
G02*
X89322000Y-86243000I0J-250000D01*
G01*
X89322000Y-87493000D01*
G75*
G02*
X89072000Y-87743000I-250000J0D01*
G01*
X88272000Y-87743000D01*
G75*
G02*
X88022000Y-87493000I0J250000D01*
G01*
G37*
G36*
G01*
X84922000Y-87493000D02*
X84922000Y-86243000D01*
G75*
G02*
X85172000Y-85993000I250000J0D01*
G01*
X85972000Y-85993000D01*
G75*
G02*
X86222000Y-86243000I0J-250000D01*
G01*
X86222000Y-87493000D01*
G75*
G02*
X85972000Y-87743000I-250000J0D01*
G01*
X85172000Y-87743000D01*
G75*
G02*
X84922000Y-87493000I0J250000D01*
G01*
G37*
%TD*%
%TO.C,R5*%
G36*
G01*
X63779490Y-114383513D02*
X62604874Y-114811039D01*
G75*
G02*
X62284446Y-114661621I-85505J234923D01*
G01*
X62010830Y-113909867D01*
G75*
G02*
X62160248Y-113589439I234923J85505D01*
G01*
X63334864Y-113161913D01*
G75*
G02*
X63655292Y-113311331I85505J-234923D01*
G01*
X63928908Y-114063085D01*
G75*
G02*
X63779490Y-114383513I-234923J-85505D01*
G01*
G37*
G36*
G01*
X64839752Y-117296561D02*
X63665136Y-117724087D01*
G75*
G02*
X63344708Y-117574669I-85505J234923D01*
G01*
X63071092Y-116822915D01*
G75*
G02*
X63220510Y-116502487I234923J85505D01*
G01*
X64395126Y-116074961D01*
G75*
G02*
X64715554Y-116224379I85505J-234923D01*
G01*
X64989170Y-116976133D01*
G75*
G02*
X64839752Y-117296561I-234923J-85505D01*
G01*
G37*
%TD*%
%TO.C,R6*%
G36*
G01*
X62670087Y-131697181D02*
X61537202Y-132225454D01*
G75*
G02*
X61204970Y-132104532I-105655J226577D01*
G01*
X60866875Y-131379485D01*
G75*
G02*
X60987797Y-131047253I226577J105655D01*
G01*
X62120682Y-130518980D01*
G75*
G02*
X62452914Y-130639902I105655J-226577D01*
G01*
X62791009Y-131364949D01*
G75*
G02*
X62670087Y-131697181I-226577J-105655D01*
G01*
G37*
G36*
G01*
X63980203Y-134506735D02*
X62847318Y-135035008D01*
G75*
G02*
X62515086Y-134914086I-105655J226577D01*
G01*
X62176991Y-134189039D01*
G75*
G02*
X62297913Y-133856807I226577J105655D01*
G01*
X63430798Y-133328534D01*
G75*
G02*
X63763030Y-133449456I105655J-226577D01*
G01*
X64101125Y-134174503D01*
G75*
G02*
X63980203Y-134506735I-226577J-105655D01*
G01*
G37*
%TD*%
%TO.C,R7*%
G36*
G01*
X77867005Y-127377961D02*
X79041621Y-127805487D01*
G75*
G02*
X79191039Y-128125915I-85505J-234923D01*
G01*
X78917423Y-128877669D01*
G75*
G02*
X78596995Y-129027087I-234923J85505D01*
G01*
X77422379Y-128599561D01*
G75*
G02*
X77272961Y-128279133I85505J234923D01*
G01*
X77546577Y-127527379D01*
G75*
G02*
X77867005Y-127377961I234923J-85505D01*
G01*
G37*
G36*
G01*
X78927267Y-124464913D02*
X80101883Y-124892439D01*
G75*
G02*
X80251301Y-125212867I-85505J-234923D01*
G01*
X79977685Y-125964621D01*
G75*
G02*
X79657257Y-126114039I-234923J85505D01*
G01*
X78482641Y-125686513D01*
G75*
G02*
X78333223Y-125366085I85505J234923D01*
G01*
X78606839Y-124614331D01*
G75*
G02*
X78927267Y-124464913I234923J-85505D01*
G01*
G37*
%TD*%
%TO.C,R4*%
G36*
G01*
X71258000Y-96256000D02*
X71258000Y-95006000D01*
G75*
G02*
X71508000Y-94756000I250000J0D01*
G01*
X72308000Y-94756000D01*
G75*
G02*
X72558000Y-95006000I0J-250000D01*
G01*
X72558000Y-96256000D01*
G75*
G02*
X72308000Y-96506000I-250000J0D01*
G01*
X71508000Y-96506000D01*
G75*
G02*
X71258000Y-96256000I0J250000D01*
G01*
G37*
G36*
G01*
X68158000Y-96256000D02*
X68158000Y-95006000D01*
G75*
G02*
X68408000Y-94756000I250000J0D01*
G01*
X69208000Y-94756000D01*
G75*
G02*
X69458000Y-95006000I0J-250000D01*
G01*
X69458000Y-96256000D01*
G75*
G02*
X69208000Y-96506000I-250000J0D01*
G01*
X68408000Y-96506000D01*
G75*
G02*
X68158000Y-96256000I0J250000D01*
G01*
G37*
%TD*%
D10*
%TO.C,SW2*%
G36*
X97470306Y-65790001D02*
G01*
X98243047Y-65997057D01*
X97984228Y-66962983D01*
X97211487Y-66755927D01*
X97470306Y-65790001D01*
G37*
G36*
X95580927Y-72841259D02*
G01*
X96353668Y-73048315D01*
X96094849Y-74014241D01*
X95322108Y-73807185D01*
X95580927Y-72841259D01*
G37*
G36*
X97715623Y-73413250D02*
G01*
X98488364Y-73620306D01*
X98229545Y-74586232D01*
X97456804Y-74379176D01*
X97715623Y-73413250D01*
G37*
G36*
X99605002Y-66361991D02*
G01*
X100377743Y-66569047D01*
X100118924Y-67534973D01*
X99346183Y-67327917D01*
X99605002Y-66361991D01*
G37*
G36*
X94938525Y-71375034D02*
G01*
X96387414Y-71763262D01*
X96206241Y-72439410D01*
X94757352Y-72051182D01*
X94938525Y-71375034D01*
G37*
G36*
X95326754Y-69926145D02*
G01*
X96775643Y-70314373D01*
X96594470Y-70990521D01*
X95145581Y-70602293D01*
X95326754Y-69926145D01*
G37*
G36*
X96103211Y-67028368D02*
G01*
X97552100Y-67416596D01*
X97370927Y-68092744D01*
X95922038Y-67704516D01*
X96103211Y-67028368D01*
G37*
%TD*%
D13*
%TO.C,U1*%
X84916000Y-97536000D03*
X84916000Y-98486000D03*
X84916000Y-96586000D03*
X82216000Y-96586000D03*
X82216000Y-97536000D03*
X82216000Y-98486000D03*
%TD*%
%TO.C,C1*%
G36*
G01*
X89042001Y-95620000D02*
X87741999Y-95620000D01*
G75*
G02*
X87492000Y-95370001I0J249999D01*
G01*
X87492000Y-94544999D01*
G75*
G02*
X87741999Y-94295000I249999J0D01*
G01*
X89042001Y-94295000D01*
G75*
G02*
X89292000Y-94544999I0J-249999D01*
G01*
X89292000Y-95370001D01*
G75*
G02*
X89042001Y-95620000I-249999J0D01*
G01*
G37*
G36*
G01*
X89042001Y-98745000D02*
X87741999Y-98745000D01*
G75*
G02*
X87492000Y-98495001I0J249999D01*
G01*
X87492000Y-97669999D01*
G75*
G02*
X87741999Y-97420000I249999J0D01*
G01*
X89042001Y-97420000D01*
G75*
G02*
X89292000Y-97669999I0J-249999D01*
G01*
X89292000Y-98495001D01*
G75*
G02*
X89042001Y-98745000I-249999J0D01*
G01*
G37*
%TD*%
D14*
%TO.C,Q1*%
X60382000Y-95758000D03*
X57982000Y-94808000D03*
X57982000Y-96708000D03*
%TD*%
%TO.C,Q2*%
X60382000Y-100838000D03*
X57982000Y-99888000D03*
X57982000Y-101788000D03*
%TD*%
M02*
