%TF.GenerationSoftware,KiCad,Pcbnew,(5.1.8)-1*%
%TF.CreationDate,2021-11-12T17:25:14-08:00*%
%TF.ProjectId,Krampus,4b72616d-7075-4732-9e6b-696361645f70,rev?*%
%TF.SameCoordinates,Original*%
%TF.FileFunction,Legend,Bot*%
%TF.FilePolarity,Positive*%
%FSLAX46Y46*%
G04 Gerber Fmt 4.6, Leading zero omitted, Abs format (unit mm)*
G04 Created by KiCad (PCBNEW (5.1.8)-1) date 2021-11-12 17:25:14*
%MOMM*%
%LPD*%
G01*
G04 APERTURE LIST*
%ADD10C,0.150000*%
%ADD11C,0.010000*%
%ADD12C,0.120000*%
%ADD13C,0.177800*%
%ADD14C,0.381000*%
G04 APERTURE END LIST*
D10*
X74445093Y-144013004D02*
X75984886Y-144902004D01*
X75181367Y-143753740D01*
X76577553Y-143875475D01*
X75037760Y-142986475D01*
X75873083Y-141708986D02*
X75715093Y-141813299D01*
X75545760Y-142106593D01*
X75534417Y-142295574D01*
X75638730Y-142453564D01*
X76225318Y-142792230D01*
X76414298Y-142803574D01*
X76572289Y-142699260D01*
X76741622Y-142405966D01*
X76752965Y-142216986D01*
X76648651Y-142058996D01*
X76502004Y-141974329D01*
X75932024Y-142622897D01*
X76223093Y-140933418D02*
X77249622Y-141526084D01*
X76956328Y-141356751D02*
X77145308Y-141368094D01*
X77260965Y-141337104D01*
X77418955Y-141232790D01*
X77503622Y-141086143D01*
X76773426Y-139980212D02*
X77799955Y-140572879D01*
X77506661Y-140403546D02*
X77695642Y-140414889D01*
X77811298Y-140383899D01*
X77969289Y-140279585D01*
X78053955Y-140132938D01*
X78265622Y-139766321D02*
X77450760Y-138807037D01*
X78688955Y-139033086D02*
X77450760Y-138807037D01*
X76999476Y-138742017D01*
X76883819Y-138773007D01*
X76725829Y-138877321D01*
X78678426Y-136680656D02*
X80218220Y-137569656D01*
X79186426Y-135800774D02*
X79685308Y-136968685D01*
X80726220Y-136689774D02*
X79338338Y-137061656D01*
X79567426Y-135140862D02*
X80593955Y-135733529D01*
X80300661Y-135564196D02*
X80489642Y-135575539D01*
X80605298Y-135544549D01*
X80763289Y-135440235D01*
X80847955Y-135293588D01*
X80498760Y-133527746D02*
X81305318Y-133993412D01*
X81409632Y-134151403D01*
X81398289Y-134340383D01*
X81228955Y-134633677D01*
X81070965Y-134737990D01*
X80572083Y-133570079D02*
X80414093Y-133674393D01*
X80202426Y-134041010D01*
X80191083Y-134229990D01*
X80295397Y-134387981D01*
X80442044Y-134472647D01*
X80631024Y-134483990D01*
X80789014Y-134379677D01*
X81000681Y-134013059D01*
X81158671Y-133908746D01*
X80922093Y-132794511D02*
X81948622Y-133387178D01*
X81801975Y-133302511D02*
X81917632Y-133271521D01*
X82075622Y-133167207D01*
X82202622Y-132947237D01*
X82213965Y-132758256D01*
X82109651Y-132600266D01*
X81303093Y-132134600D01*
X82109651Y-132600266D02*
X82298632Y-132611609D01*
X82456622Y-132507296D01*
X82583622Y-132287325D01*
X82594965Y-132098345D01*
X82490651Y-131940355D01*
X81684093Y-131474688D01*
X83133955Y-131334120D02*
X81594162Y-130445120D01*
X83060632Y-131291787D02*
X83218622Y-131187473D01*
X83387955Y-130894179D01*
X83399298Y-130705199D01*
X83368308Y-130589542D01*
X83263995Y-130431552D01*
X82824054Y-130177552D01*
X82635073Y-130166209D01*
X82519417Y-130197199D01*
X82361426Y-130301512D01*
X82192093Y-130594806D01*
X82180750Y-130783787D01*
X84319289Y-129281062D02*
X83292760Y-128688396D01*
X83938289Y-129940974D02*
X83131730Y-129475307D01*
X83027417Y-129317317D01*
X83038760Y-129128337D01*
X83165760Y-128908366D01*
X83323750Y-128804053D01*
X83439407Y-128773062D01*
X83747083Y-128070818D02*
X83758426Y-127881837D01*
X83927760Y-127588544D01*
X84085750Y-127484230D01*
X84274730Y-127495573D01*
X84348054Y-127537906D01*
X84452367Y-127695897D01*
X84441024Y-127884877D01*
X84314024Y-128104847D01*
X84302681Y-128293828D01*
X84406995Y-128451818D01*
X84480318Y-128494151D01*
X84669298Y-128505494D01*
X84827289Y-128401181D01*
X84954289Y-128181210D01*
X84965632Y-127992230D01*
X84582407Y-126793328D02*
X84551417Y-126677672D01*
X84435760Y-126708662D01*
X84466750Y-126824319D01*
X84582407Y-126793328D01*
X84435760Y-126708662D01*
X85022348Y-127047328D02*
X85859896Y-127628652D01*
X85975553Y-127597662D01*
X85944563Y-127482005D01*
X85022348Y-127047328D01*
X85975553Y-127597662D01*
X44619333Y-59719500D02*
X44704000Y-59804166D01*
X44788666Y-59973500D01*
X44788666Y-60142833D01*
X44704000Y-60312166D01*
X44619333Y-60396833D01*
X44450000Y-60481500D01*
X44280666Y-60481500D01*
X44111333Y-60396833D01*
X44026666Y-60312166D01*
X43942000Y-60142833D01*
X43942000Y-59973500D01*
X44026666Y-59804166D01*
X44111333Y-59719500D01*
X44788666Y-59719500D02*
X44111333Y-59719500D01*
X44026666Y-59634833D01*
X44026666Y-59550166D01*
X44111333Y-59380833D01*
X44280666Y-59296166D01*
X44704000Y-59296166D01*
X44958000Y-59465500D01*
X45127333Y-59719500D01*
X45212000Y-60058166D01*
X45127333Y-60396833D01*
X44958000Y-60650833D01*
X44704000Y-60820166D01*
X44365333Y-60904833D01*
X44026666Y-60820166D01*
X43772666Y-60650833D01*
X43603333Y-60396833D01*
X43518666Y-60058166D01*
X43603333Y-59719500D01*
X43772666Y-59465500D01*
X44280666Y-58618833D02*
X44280666Y-57772166D01*
X43772666Y-58788166D02*
X45550666Y-58195500D01*
X43772666Y-57602833D01*
X43772666Y-56756166D02*
X43857333Y-56925500D01*
X44026666Y-57010166D01*
X45550666Y-57010166D01*
X44958000Y-56078833D02*
X43180000Y-56078833D01*
X44873333Y-56078833D02*
X44958000Y-55909500D01*
X44958000Y-55570833D01*
X44873333Y-55401500D01*
X44788666Y-55316833D01*
X44619333Y-55232166D01*
X44111333Y-55232166D01*
X43942000Y-55316833D01*
X43857333Y-55401500D01*
X43772666Y-55570833D01*
X43772666Y-55909500D01*
X43857333Y-56078833D01*
X43857333Y-53792833D02*
X43772666Y-53962166D01*
X43772666Y-54300833D01*
X43857333Y-54470166D01*
X44026666Y-54554833D01*
X44704000Y-54554833D01*
X44873333Y-54470166D01*
X44958000Y-54300833D01*
X44958000Y-53962166D01*
X44873333Y-53792833D01*
X44704000Y-53708166D01*
X44534666Y-53708166D01*
X44365333Y-54554833D01*
X44958000Y-52946166D02*
X43772666Y-52946166D01*
X44788666Y-52946166D02*
X44873333Y-52861500D01*
X44958000Y-52692166D01*
X44958000Y-52438166D01*
X44873333Y-52268833D01*
X44704000Y-52184166D01*
X43772666Y-52184166D01*
X44958000Y-50575500D02*
X43518666Y-50575500D01*
X43349333Y-50660166D01*
X43264666Y-50744833D01*
X43180000Y-50914166D01*
X43180000Y-51168166D01*
X43264666Y-51337500D01*
X43857333Y-50575500D02*
X43772666Y-50744833D01*
X43772666Y-51083500D01*
X43857333Y-51252833D01*
X43942000Y-51337500D01*
X44111333Y-51422166D01*
X44619333Y-51422166D01*
X44788666Y-51337500D01*
X44873333Y-51252833D01*
X44958000Y-51083500D01*
X44958000Y-50744833D01*
X44873333Y-50575500D01*
X43772666Y-49474833D02*
X43857333Y-49644166D01*
X44026666Y-49728833D01*
X45550666Y-49728833D01*
X43772666Y-48543500D02*
X43857333Y-48712833D01*
X43942000Y-48797500D01*
X44111333Y-48882166D01*
X44619333Y-48882166D01*
X44788666Y-48797500D01*
X44873333Y-48712833D01*
X44958000Y-48543500D01*
X44958000Y-48289500D01*
X44873333Y-48120166D01*
X44788666Y-48035500D01*
X44619333Y-47950833D01*
X44111333Y-47950833D01*
X43942000Y-48035500D01*
X43857333Y-48120166D01*
X43772666Y-48289500D01*
X43772666Y-48543500D01*
X44958000Y-47358166D02*
X43772666Y-47019500D01*
X44619333Y-46680833D01*
X43772666Y-46342166D01*
X44958000Y-46003500D01*
X43772666Y-45326166D02*
X45550666Y-45326166D01*
X44958000Y-44479500D02*
X43772666Y-44479500D01*
X44788666Y-44479500D02*
X44873333Y-44394833D01*
X44958000Y-44225500D01*
X44958000Y-43971500D01*
X44873333Y-43802166D01*
X44704000Y-43717500D01*
X43772666Y-43717500D01*
X43772666Y-42108833D02*
X45550666Y-42108833D01*
X43857333Y-42108833D02*
X43772666Y-42278166D01*
X43772666Y-42616833D01*
X43857333Y-42786166D01*
X43942000Y-42870833D01*
X44111333Y-42955500D01*
X44619333Y-42955500D01*
X44788666Y-42870833D01*
X44873333Y-42786166D01*
X44958000Y-42616833D01*
X44958000Y-42278166D01*
X44873333Y-42108833D01*
D11*
%TO.C,G6*%
G36*
X101730763Y-58899495D02*
G01*
X101711125Y-58897087D01*
X101640895Y-58889225D01*
X101541180Y-58875076D01*
X101504750Y-58869351D01*
X101382924Y-58862299D01*
X101242873Y-58871981D01*
X101187250Y-58880980D01*
X101012625Y-58915725D01*
X101136108Y-58940005D01*
X101284966Y-58958319D01*
X101447452Y-58961313D01*
X101595889Y-58949414D01*
X101679375Y-58931602D01*
X101734834Y-58910543D01*
X101730763Y-58899495D01*
G37*
X101730763Y-58899495D02*
X101711125Y-58897087D01*
X101640895Y-58889225D01*
X101541180Y-58875076D01*
X101504750Y-58869351D01*
X101382924Y-58862299D01*
X101242873Y-58871981D01*
X101187250Y-58880980D01*
X101012625Y-58915725D01*
X101136108Y-58940005D01*
X101284966Y-58958319D01*
X101447452Y-58961313D01*
X101595889Y-58949414D01*
X101679375Y-58931602D01*
X101734834Y-58910543D01*
X101730763Y-58899495D01*
G36*
X101473667Y-58455842D02*
G01*
X101342578Y-58515090D01*
X101206300Y-58592456D01*
X101148229Y-58631713D01*
X101054615Y-58702548D01*
X101008003Y-58744677D01*
X101002611Y-58764693D01*
X101027595Y-58769250D01*
X101095495Y-58752341D01*
X101196454Y-58708214D01*
X101312007Y-58646769D01*
X101423693Y-58577906D01*
X101513047Y-58511525D01*
X101520625Y-58504885D01*
X101647625Y-58391166D01*
X101473667Y-58455842D01*
G37*
X101473667Y-58455842D02*
X101342578Y-58515090D01*
X101206300Y-58592456D01*
X101148229Y-58631713D01*
X101054615Y-58702548D01*
X101008003Y-58744677D01*
X101002611Y-58764693D01*
X101027595Y-58769250D01*
X101095495Y-58752341D01*
X101196454Y-58708214D01*
X101312007Y-58646769D01*
X101423693Y-58577906D01*
X101513047Y-58511525D01*
X101520625Y-58504885D01*
X101647625Y-58391166D01*
X101473667Y-58455842D01*
G36*
X101504750Y-59308800D02*
G01*
X101425203Y-59248589D01*
X101323749Y-59186229D01*
X101215783Y-59129299D01*
X101116698Y-59085377D01*
X101041888Y-59062044D01*
X101008463Y-59064455D01*
X101023935Y-59088932D01*
X101076397Y-59138206D01*
X101115825Y-59170783D01*
X101198563Y-59235602D01*
X101259984Y-59277939D01*
X101322930Y-59310517D01*
X101410248Y-59346057D01*
X101474638Y-59370603D01*
X101647625Y-59436245D01*
X101504750Y-59308800D01*
G37*
X101504750Y-59308800D02*
X101425203Y-59248589D01*
X101323749Y-59186229D01*
X101215783Y-59129299D01*
X101116698Y-59085377D01*
X101041888Y-59062044D01*
X101008463Y-59064455D01*
X101023935Y-59088932D01*
X101076397Y-59138206D01*
X101115825Y-59170783D01*
X101198563Y-59235602D01*
X101259984Y-59277939D01*
X101322930Y-59310517D01*
X101410248Y-59346057D01*
X101474638Y-59370603D01*
X101647625Y-59436245D01*
X101504750Y-59308800D01*
G36*
X101243378Y-58064508D02*
G01*
X101221794Y-58067175D01*
X101178066Y-58113175D01*
X101120624Y-58190186D01*
X101057898Y-58285886D01*
X100998317Y-58387952D01*
X100950310Y-58484062D01*
X100940458Y-58507313D01*
X100907779Y-58596895D01*
X100892427Y-58657006D01*
X100895323Y-58673019D01*
X100935936Y-58645089D01*
X100993660Y-58573699D01*
X101060092Y-58473535D01*
X101126831Y-58359287D01*
X101185474Y-58245643D01*
X101227622Y-58147293D01*
X101244871Y-58078923D01*
X101243378Y-58064508D01*
G37*
X101243378Y-58064508D02*
X101221794Y-58067175D01*
X101178066Y-58113175D01*
X101120624Y-58190186D01*
X101057898Y-58285886D01*
X100998317Y-58387952D01*
X100950310Y-58484062D01*
X100940458Y-58507313D01*
X100907779Y-58596895D01*
X100892427Y-58657006D01*
X100895323Y-58673019D01*
X100935936Y-58645089D01*
X100993660Y-58573699D01*
X101060092Y-58473535D01*
X101126831Y-58359287D01*
X101185474Y-58245643D01*
X101227622Y-58147293D01*
X101244871Y-58078923D01*
X101243378Y-58064508D01*
G36*
X101237143Y-59704752D02*
G01*
X101202614Y-59615243D01*
X101148643Y-59506635D01*
X101083743Y-59395370D01*
X101016427Y-59297892D01*
X100986249Y-59261375D01*
X100918149Y-59186945D01*
X100884314Y-59158237D01*
X100881989Y-59178835D01*
X100908417Y-59252323D01*
X100937516Y-59324739D01*
X100980450Y-59414459D01*
X101038005Y-59513953D01*
X101101480Y-59610893D01*
X101162175Y-59692948D01*
X101211391Y-59747789D01*
X101240428Y-59763085D01*
X101243720Y-59758718D01*
X101237143Y-59704752D01*
G37*
X101237143Y-59704752D02*
X101202614Y-59615243D01*
X101148643Y-59506635D01*
X101083743Y-59395370D01*
X101016427Y-59297892D01*
X100986249Y-59261375D01*
X100918149Y-59186945D01*
X100884314Y-59158237D01*
X100881989Y-59178835D01*
X100908417Y-59252323D01*
X100937516Y-59324739D01*
X100980450Y-59414459D01*
X101038005Y-59513953D01*
X101101480Y-59610893D01*
X101162175Y-59692948D01*
X101211391Y-59747789D01*
X101240428Y-59763085D01*
X101243720Y-59758718D01*
X101237143Y-59704752D01*
G36*
X100792958Y-58140074D02*
G01*
X100784253Y-58037122D01*
X100772358Y-57958652D01*
X100758371Y-57917441D01*
X100743390Y-57926268D01*
X100742582Y-57928396D01*
X100716918Y-58038904D01*
X100701964Y-58184025D01*
X100699234Y-58335544D01*
X100710246Y-58465243D01*
X100712949Y-58479948D01*
X100735849Y-58581975D01*
X100753160Y-58622200D01*
X100767819Y-58600162D01*
X100782761Y-58515400D01*
X100788951Y-58468032D01*
X100796405Y-58368307D01*
X100797375Y-58254728D01*
X100792958Y-58140074D01*
G37*
X100792958Y-58140074D02*
X100784253Y-58037122D01*
X100772358Y-57958652D01*
X100758371Y-57917441D01*
X100743390Y-57926268D01*
X100742582Y-57928396D01*
X100716918Y-58038904D01*
X100701964Y-58184025D01*
X100699234Y-58335544D01*
X100710246Y-58465243D01*
X100712949Y-58479948D01*
X100735849Y-58581975D01*
X100753160Y-58622200D01*
X100767819Y-58600162D01*
X100782761Y-58515400D01*
X100788951Y-58468032D01*
X100796405Y-58368307D01*
X100797375Y-58254728D01*
X100792958Y-58140074D01*
G36*
X100791106Y-59389890D02*
G01*
X100780748Y-59293342D01*
X100766770Y-59228565D01*
X100750323Y-59208563D01*
X100742611Y-59217281D01*
X100721362Y-59290583D01*
X100706611Y-59405282D01*
X100699496Y-59539502D01*
X100701156Y-59671368D01*
X100712727Y-59779004D01*
X100713253Y-59781698D01*
X100732622Y-59868514D01*
X100749138Y-59924747D01*
X100753866Y-59933949D01*
X100763444Y-59911996D01*
X100776084Y-59842008D01*
X100788938Y-59740109D01*
X100796354Y-59626278D01*
X100796692Y-59505203D01*
X100791106Y-59389890D01*
G37*
X100791106Y-59389890D02*
X100780748Y-59293342D01*
X100766770Y-59228565D01*
X100750323Y-59208563D01*
X100742611Y-59217281D01*
X100721362Y-59290583D01*
X100706611Y-59405282D01*
X100699496Y-59539502D01*
X100701156Y-59671368D01*
X100712727Y-59779004D01*
X100713253Y-59781698D01*
X100732622Y-59868514D01*
X100749138Y-59924747D01*
X100753866Y-59933949D01*
X100763444Y-59911996D01*
X100776084Y-59842008D01*
X100788938Y-59740109D01*
X100796354Y-59626278D01*
X100796692Y-59505203D01*
X100791106Y-59389890D01*
G36*
X100597178Y-58610500D02*
G01*
X100509272Y-58389089D01*
X100381913Y-58189257D01*
X100349218Y-58150125D01*
X100282370Y-58079178D01*
X100248011Y-58056116D01*
X100245841Y-58082825D01*
X100275565Y-58161189D01*
X100329188Y-58277125D01*
X100383109Y-58378608D01*
X100443152Y-58475308D01*
X100502189Y-58558360D01*
X100553096Y-58618901D01*
X100588746Y-58648064D01*
X100602012Y-58636984D01*
X100597178Y-58610500D01*
G37*
X100597178Y-58610500D02*
X100509272Y-58389089D01*
X100381913Y-58189257D01*
X100349218Y-58150125D01*
X100282370Y-58079178D01*
X100248011Y-58056116D01*
X100245841Y-58082825D01*
X100275565Y-58161189D01*
X100329188Y-58277125D01*
X100383109Y-58378608D01*
X100443152Y-58475308D01*
X100502189Y-58558360D01*
X100553096Y-58618901D01*
X100588746Y-58648064D01*
X100602012Y-58636984D01*
X100597178Y-58610500D01*
G36*
X100599034Y-59161305D02*
G01*
X100560352Y-59201584D01*
X100535759Y-59229625D01*
X100446334Y-59338360D01*
X100383628Y-59435221D01*
X100330498Y-59549099D01*
X100300258Y-59626500D01*
X100234432Y-59801125D01*
X100349342Y-59674125D01*
X100485768Y-59482085D01*
X100584168Y-59256219D01*
X100596853Y-59213750D01*
X100608324Y-59166108D01*
X100599034Y-59161305D01*
G37*
X100599034Y-59161305D02*
X100560352Y-59201584D01*
X100535759Y-59229625D01*
X100446334Y-59338360D01*
X100383628Y-59435221D01*
X100330498Y-59549099D01*
X100300258Y-59626500D01*
X100234432Y-59801125D01*
X100349342Y-59674125D01*
X100485768Y-59482085D01*
X100584168Y-59256219D01*
X100596853Y-59213750D01*
X100608324Y-59166108D01*
X100599034Y-59161305D01*
G36*
X100458457Y-58716044D02*
G01*
X100388972Y-58662389D01*
X100301136Y-58602124D01*
X100207053Y-58543817D01*
X100118827Y-58496036D01*
X100087896Y-58481795D01*
X99977937Y-58439443D01*
X99922217Y-58429376D01*
X99921193Y-58450998D01*
X99975327Y-58503713D01*
X100035023Y-58550431D01*
X100147706Y-58624949D01*
X100272003Y-58692222D01*
X100388542Y-58743012D01*
X100477952Y-58768083D01*
X100493959Y-58769250D01*
X100497487Y-58754521D01*
X100458457Y-58716044D01*
G37*
X100458457Y-58716044D02*
X100388972Y-58662389D01*
X100301136Y-58602124D01*
X100207053Y-58543817D01*
X100118827Y-58496036D01*
X100087896Y-58481795D01*
X99977937Y-58439443D01*
X99922217Y-58429376D01*
X99921193Y-58450998D01*
X99975327Y-58503713D01*
X100035023Y-58550431D01*
X100147706Y-58624949D01*
X100272003Y-58692222D01*
X100388542Y-58743012D01*
X100477952Y-58768083D01*
X100493959Y-58769250D01*
X100497487Y-58754521D01*
X100458457Y-58716044D01*
G36*
X100493540Y-59055000D02*
G01*
X100423082Y-59070546D01*
X100323215Y-59111598D01*
X100208310Y-59169786D01*
X100092740Y-59236734D01*
X99990875Y-59304070D01*
X99917087Y-59363419D01*
X99885748Y-59406410D01*
X99885500Y-59409268D01*
X99911884Y-59411057D01*
X99980186Y-59391769D01*
X100052188Y-59364844D01*
X100135099Y-59325010D01*
X100230429Y-59270064D01*
X100326481Y-59208218D01*
X100411559Y-59147682D01*
X100473968Y-59096668D01*
X100502012Y-59063386D01*
X100493540Y-59055000D01*
G37*
X100493540Y-59055000D02*
X100423082Y-59070546D01*
X100323215Y-59111598D01*
X100208310Y-59169786D01*
X100092740Y-59236734D01*
X99990875Y-59304070D01*
X99917087Y-59363419D01*
X99885748Y-59406410D01*
X99885500Y-59409268D01*
X99911884Y-59411057D01*
X99980186Y-59391769D01*
X100052188Y-59364844D01*
X100135099Y-59325010D01*
X100230429Y-59270064D01*
X100326481Y-59208218D01*
X100411559Y-59147682D01*
X100473968Y-59096668D01*
X100502012Y-59063386D01*
X100493540Y-59055000D01*
G36*
X99695000Y-45152826D02*
G01*
X99695000Y-45002394D01*
X99226688Y-44945054D01*
X98989335Y-44915851D01*
X98813755Y-44892696D01*
X98698730Y-44873590D01*
X98643047Y-44856535D01*
X98645487Y-44839533D01*
X98704836Y-44820584D01*
X98819878Y-44797691D01*
X98989396Y-44768854D01*
X99107625Y-44749372D01*
X99679125Y-44655210D01*
X99688819Y-44539427D01*
X99693044Y-44495064D01*
X99691949Y-44461406D01*
X99677615Y-44435450D01*
X99642122Y-44414193D01*
X99577554Y-44394635D01*
X99475989Y-44373771D01*
X99329511Y-44348599D01*
X99130200Y-44316117D01*
X99077011Y-44307453D01*
X98905750Y-44279007D01*
X98757952Y-44253517D01*
X98644335Y-44232907D01*
X98575619Y-44219102D01*
X98560065Y-44214648D01*
X98584645Y-44206602D01*
X98658945Y-44193407D01*
X98769610Y-44177288D01*
X98836742Y-44168534D01*
X99014267Y-44146227D01*
X99213823Y-44121152D01*
X99394785Y-44098414D01*
X99409250Y-44096597D01*
X99695000Y-44060693D01*
X99695000Y-43921972D01*
X99689814Y-43832791D01*
X99670260Y-43791633D01*
X99639311Y-43783250D01*
X99594182Y-43787728D01*
X99494959Y-43800359D01*
X99350355Y-43819941D01*
X99169082Y-43845273D01*
X98959854Y-43875152D01*
X98731384Y-43908378D01*
X98718624Y-43910250D01*
X98491350Y-43943495D01*
X98284675Y-43973490D01*
X98106912Y-43999048D01*
X97966374Y-44018981D01*
X97871375Y-44032101D01*
X97830228Y-44037222D01*
X97829522Y-44037250D01*
X97817345Y-44065456D01*
X97814405Y-44136765D01*
X97816634Y-44178273D01*
X97828664Y-44268061D01*
X97853718Y-44313696D01*
X97903475Y-44334510D01*
X97912113Y-44336350D01*
X97987667Y-44350557D01*
X98103996Y-44371157D01*
X98248185Y-44395996D01*
X98407316Y-44422921D01*
X98568473Y-44449780D01*
X98718740Y-44474420D01*
X98845201Y-44494689D01*
X98934939Y-44508433D01*
X98975037Y-44513500D01*
X98975049Y-44513500D01*
X99006769Y-44517275D01*
X98982080Y-44528800D01*
X98899598Y-44548380D01*
X98757939Y-44576319D01*
X98555719Y-44612920D01*
X98393018Y-44641177D01*
X98209010Y-44672992D01*
X98048536Y-44701195D01*
X97921287Y-44724045D01*
X97836954Y-44739801D01*
X97805229Y-44746723D01*
X97805191Y-44746778D01*
X97808093Y-44778096D01*
X97816220Y-44851676D01*
X97821066Y-44893738D01*
X97837625Y-45035850D01*
X98663125Y-45153151D01*
X98890387Y-45185509D01*
X99101722Y-45215722D01*
X99287493Y-45242403D01*
X99438061Y-45264164D01*
X99543787Y-45279618D01*
X99591813Y-45286855D01*
X99695001Y-45303258D01*
X99695000Y-45152826D01*
G37*
X99695000Y-45152826D02*
X99695000Y-45002394D01*
X99226688Y-44945054D01*
X98989335Y-44915851D01*
X98813755Y-44892696D01*
X98698730Y-44873590D01*
X98643047Y-44856535D01*
X98645487Y-44839533D01*
X98704836Y-44820584D01*
X98819878Y-44797691D01*
X98989396Y-44768854D01*
X99107625Y-44749372D01*
X99679125Y-44655210D01*
X99688819Y-44539427D01*
X99693044Y-44495064D01*
X99691949Y-44461406D01*
X99677615Y-44435450D01*
X99642122Y-44414193D01*
X99577554Y-44394635D01*
X99475989Y-44373771D01*
X99329511Y-44348599D01*
X99130200Y-44316117D01*
X99077011Y-44307453D01*
X98905750Y-44279007D01*
X98757952Y-44253517D01*
X98644335Y-44232907D01*
X98575619Y-44219102D01*
X98560065Y-44214648D01*
X98584645Y-44206602D01*
X98658945Y-44193407D01*
X98769610Y-44177288D01*
X98836742Y-44168534D01*
X99014267Y-44146227D01*
X99213823Y-44121152D01*
X99394785Y-44098414D01*
X99409250Y-44096597D01*
X99695000Y-44060693D01*
X99695000Y-43921972D01*
X99689814Y-43832791D01*
X99670260Y-43791633D01*
X99639311Y-43783250D01*
X99594182Y-43787728D01*
X99494959Y-43800359D01*
X99350355Y-43819941D01*
X99169082Y-43845273D01*
X98959854Y-43875152D01*
X98731384Y-43908378D01*
X98718624Y-43910250D01*
X98491350Y-43943495D01*
X98284675Y-43973490D01*
X98106912Y-43999048D01*
X97966374Y-44018981D01*
X97871375Y-44032101D01*
X97830228Y-44037222D01*
X97829522Y-44037250D01*
X97817345Y-44065456D01*
X97814405Y-44136765D01*
X97816634Y-44178273D01*
X97828664Y-44268061D01*
X97853718Y-44313696D01*
X97903475Y-44334510D01*
X97912113Y-44336350D01*
X97987667Y-44350557D01*
X98103996Y-44371157D01*
X98248185Y-44395996D01*
X98407316Y-44422921D01*
X98568473Y-44449780D01*
X98718740Y-44474420D01*
X98845201Y-44494689D01*
X98934939Y-44508433D01*
X98975037Y-44513500D01*
X98975049Y-44513500D01*
X99006769Y-44517275D01*
X98982080Y-44528800D01*
X98899598Y-44548380D01*
X98757939Y-44576319D01*
X98555719Y-44612920D01*
X98393018Y-44641177D01*
X98209010Y-44672992D01*
X98048536Y-44701195D01*
X97921287Y-44724045D01*
X97836954Y-44739801D01*
X97805229Y-44746723D01*
X97805191Y-44746778D01*
X97808093Y-44778096D01*
X97816220Y-44851676D01*
X97821066Y-44893738D01*
X97837625Y-45035850D01*
X98663125Y-45153151D01*
X98890387Y-45185509D01*
X99101722Y-45215722D01*
X99287493Y-45242403D01*
X99438061Y-45264164D01*
X99543787Y-45279618D01*
X99591813Y-45286855D01*
X99695001Y-45303258D01*
X99695000Y-45152826D01*
G36*
X99716958Y-45983541D02*
G01*
X99682604Y-45817281D01*
X99613233Y-45694779D01*
X99499650Y-45601784D01*
X99454827Y-45577125D01*
X99404151Y-45554368D01*
X99347965Y-45537740D01*
X99275744Y-45526305D01*
X99176964Y-45519124D01*
X99041101Y-45515258D01*
X98857629Y-45513771D01*
X98742500Y-45513625D01*
X98506150Y-45515197D01*
X98323690Y-45521627D01*
X98185554Y-45535482D01*
X98082173Y-45559334D01*
X98003980Y-45595752D01*
X97941408Y-45647305D01*
X97884889Y-45716564D01*
X97861546Y-45750225D01*
X97810875Y-45870758D01*
X97788893Y-46023611D01*
X97796251Y-46184127D01*
X97833599Y-46327653D01*
X97845612Y-46353920D01*
X97912005Y-46444813D01*
X98000979Y-46521614D01*
X98012250Y-46528545D01*
X98055152Y-46550747D01*
X98103122Y-46567216D01*
X98165909Y-46578798D01*
X98253265Y-46586336D01*
X98374940Y-46590674D01*
X98540683Y-46592656D01*
X98758375Y-46593125D01*
X98812087Y-46593042D01*
X98812087Y-46255149D01*
X98701001Y-46253738D01*
X98496801Y-46249674D01*
X98346763Y-46244911D01*
X98241549Y-46238357D01*
X98171824Y-46228921D01*
X98128248Y-46215514D01*
X98101487Y-46197043D01*
X98089005Y-46182245D01*
X98047210Y-46080243D01*
X98066017Y-45980396D01*
X98096546Y-45936813D01*
X98120091Y-45916588D01*
X98154866Y-45901649D01*
X98209882Y-45891212D01*
X98294149Y-45884490D01*
X98416678Y-45880699D01*
X98586478Y-45879052D01*
X98762564Y-45878750D01*
X99376037Y-45878750D01*
X99427894Y-45957894D01*
X99463667Y-46058129D01*
X99445665Y-46151119D01*
X99378630Y-46219428D01*
X99353609Y-46231048D01*
X99289712Y-46242346D01*
X99171849Y-46250348D01*
X99009486Y-46254725D01*
X98812087Y-46255149D01*
X98812087Y-46593042D01*
X98975585Y-46592787D01*
X99139100Y-46591140D01*
X99258729Y-46587237D01*
X99344275Y-46580128D01*
X99405545Y-46568866D01*
X99452346Y-46552504D01*
X99494481Y-46530092D01*
X99510295Y-46520423D01*
X99626046Y-46412353D01*
X99697327Y-46262757D01*
X99721852Y-46077571D01*
X99716958Y-45983541D01*
G37*
X99716958Y-45983541D02*
X99682604Y-45817281D01*
X99613233Y-45694779D01*
X99499650Y-45601784D01*
X99454827Y-45577125D01*
X99404151Y-45554368D01*
X99347965Y-45537740D01*
X99275744Y-45526305D01*
X99176964Y-45519124D01*
X99041101Y-45515258D01*
X98857629Y-45513771D01*
X98742500Y-45513625D01*
X98506150Y-45515197D01*
X98323690Y-45521627D01*
X98185554Y-45535482D01*
X98082173Y-45559334D01*
X98003980Y-45595752D01*
X97941408Y-45647305D01*
X97884889Y-45716564D01*
X97861546Y-45750225D01*
X97810875Y-45870758D01*
X97788893Y-46023611D01*
X97796251Y-46184127D01*
X97833599Y-46327653D01*
X97845612Y-46353920D01*
X97912005Y-46444813D01*
X98000979Y-46521614D01*
X98012250Y-46528545D01*
X98055152Y-46550747D01*
X98103122Y-46567216D01*
X98165909Y-46578798D01*
X98253265Y-46586336D01*
X98374940Y-46590674D01*
X98540683Y-46592656D01*
X98758375Y-46593125D01*
X98812087Y-46593042D01*
X98812087Y-46255149D01*
X98701001Y-46253738D01*
X98496801Y-46249674D01*
X98346763Y-46244911D01*
X98241549Y-46238357D01*
X98171824Y-46228921D01*
X98128248Y-46215514D01*
X98101487Y-46197043D01*
X98089005Y-46182245D01*
X98047210Y-46080243D01*
X98066017Y-45980396D01*
X98096546Y-45936813D01*
X98120091Y-45916588D01*
X98154866Y-45901649D01*
X98209882Y-45891212D01*
X98294149Y-45884490D01*
X98416678Y-45880699D01*
X98586478Y-45879052D01*
X98762564Y-45878750D01*
X99376037Y-45878750D01*
X99427894Y-45957894D01*
X99463667Y-46058129D01*
X99445665Y-46151119D01*
X99378630Y-46219428D01*
X99353609Y-46231048D01*
X99289712Y-46242346D01*
X99171849Y-46250348D01*
X99009486Y-46254725D01*
X98812087Y-46255149D01*
X98812087Y-46593042D01*
X98975585Y-46592787D01*
X99139100Y-46591140D01*
X99258729Y-46587237D01*
X99344275Y-46580128D01*
X99405545Y-46568866D01*
X99452346Y-46552504D01*
X99494481Y-46530092D01*
X99510295Y-46520423D01*
X99626046Y-46412353D01*
X99697327Y-46262757D01*
X99721852Y-46077571D01*
X99716958Y-45983541D01*
G36*
X98044000Y-47212250D02*
G01*
X98044000Y-46767750D01*
X97825380Y-46767750D01*
X97815628Y-47164683D01*
X97805875Y-47561616D01*
X98750438Y-47561558D01*
X99695000Y-47561500D01*
X99695000Y-47212250D01*
X98044000Y-47212250D01*
G37*
X98044000Y-47212250D02*
X98044000Y-46767750D01*
X97825380Y-46767750D01*
X97815628Y-47164683D01*
X97805875Y-47561616D01*
X98750438Y-47561558D01*
X99695000Y-47561500D01*
X99695000Y-47212250D01*
X98044000Y-47212250D01*
G36*
X99697000Y-48190209D02*
G01*
X99650600Y-48055812D01*
X99564513Y-47961677D01*
X99431580Y-47900006D01*
X99244639Y-47863004D01*
X99242530Y-47862739D01*
X99060000Y-47839934D01*
X99060000Y-48196500D01*
X99202875Y-48196500D01*
X99331902Y-48216494D01*
X99422356Y-48270231D01*
X99467299Y-48348349D01*
X99459794Y-48441483D01*
X99427730Y-48499995D01*
X99405930Y-48522927D01*
X99372609Y-48539776D01*
X99318070Y-48551761D01*
X99232618Y-48560100D01*
X99106558Y-48566015D01*
X98930194Y-48570723D01*
X98852311Y-48572361D01*
X98614309Y-48575953D01*
X98431728Y-48575147D01*
X98296579Y-48568867D01*
X98200870Y-48556035D01*
X98136610Y-48535576D01*
X98095807Y-48506412D01*
X98070472Y-48467468D01*
X98070260Y-48467004D01*
X98045473Y-48356793D01*
X98077713Y-48268186D01*
X98163113Y-48204786D01*
X98297803Y-48170195D01*
X98394744Y-48164750D01*
X98488184Y-48166985D01*
X98534575Y-48180074D01*
X98550359Y-48213599D01*
X98552000Y-48256397D01*
X98562293Y-48323637D01*
X98606313Y-48353910D01*
X98647431Y-48362050D01*
X98719594Y-48367329D01*
X98758556Y-48360361D01*
X98765961Y-48323344D01*
X98771484Y-48239321D01*
X98774146Y-48124784D01*
X98774250Y-48095959D01*
X98774250Y-47847250D01*
X98303292Y-47847250D01*
X98136960Y-47848254D01*
X97994244Y-47851018D01*
X97886676Y-47855170D01*
X97825788Y-47860338D01*
X97816640Y-47862945D01*
X97804587Y-47912539D01*
X97817928Y-47986645D01*
X97847938Y-48056219D01*
X97885469Y-48092108D01*
X97917581Y-48107005D01*
X97910205Y-48135624D01*
X97865393Y-48187923D01*
X97816440Y-48257410D01*
X97794954Y-48342578D01*
X97792013Y-48431324D01*
X97798437Y-48539774D01*
X97812451Y-48630891D01*
X97821118Y-48660428D01*
X97887347Y-48752856D01*
X97998540Y-48835162D01*
X98136244Y-48894017D01*
X98149877Y-48897862D01*
X98236203Y-48910917D01*
X98376731Y-48919621D01*
X98562287Y-48923653D01*
X98783702Y-48922694D01*
X98836294Y-48921782D01*
X99040166Y-48917199D01*
X99191245Y-48911740D01*
X99300238Y-48904108D01*
X99377851Y-48893005D01*
X99434790Y-48877131D01*
X99481762Y-48855190D01*
X99506492Y-48840523D01*
X99605826Y-48762765D01*
X99668649Y-48668504D01*
X99701489Y-48542797D01*
X99710875Y-48372665D01*
X99697000Y-48190209D01*
G37*
X99697000Y-48190209D02*
X99650600Y-48055812D01*
X99564513Y-47961677D01*
X99431580Y-47900006D01*
X99244639Y-47863004D01*
X99242530Y-47862739D01*
X99060000Y-47839934D01*
X99060000Y-48196500D01*
X99202875Y-48196500D01*
X99331902Y-48216494D01*
X99422356Y-48270231D01*
X99467299Y-48348349D01*
X99459794Y-48441483D01*
X99427730Y-48499995D01*
X99405930Y-48522927D01*
X99372609Y-48539776D01*
X99318070Y-48551761D01*
X99232618Y-48560100D01*
X99106558Y-48566015D01*
X98930194Y-48570723D01*
X98852311Y-48572361D01*
X98614309Y-48575953D01*
X98431728Y-48575147D01*
X98296579Y-48568867D01*
X98200870Y-48556035D01*
X98136610Y-48535576D01*
X98095807Y-48506412D01*
X98070472Y-48467468D01*
X98070260Y-48467004D01*
X98045473Y-48356793D01*
X98077713Y-48268186D01*
X98163113Y-48204786D01*
X98297803Y-48170195D01*
X98394744Y-48164750D01*
X98488184Y-48166985D01*
X98534575Y-48180074D01*
X98550359Y-48213599D01*
X98552000Y-48256397D01*
X98562293Y-48323637D01*
X98606313Y-48353910D01*
X98647431Y-48362050D01*
X98719594Y-48367329D01*
X98758556Y-48360361D01*
X98765961Y-48323344D01*
X98771484Y-48239321D01*
X98774146Y-48124784D01*
X98774250Y-48095959D01*
X98774250Y-47847250D01*
X98303292Y-47847250D01*
X98136960Y-47848254D01*
X97994244Y-47851018D01*
X97886676Y-47855170D01*
X97825788Y-47860338D01*
X97816640Y-47862945D01*
X97804587Y-47912539D01*
X97817928Y-47986645D01*
X97847938Y-48056219D01*
X97885469Y-48092108D01*
X97917581Y-48107005D01*
X97910205Y-48135624D01*
X97865393Y-48187923D01*
X97816440Y-48257410D01*
X97794954Y-48342578D01*
X97792013Y-48431324D01*
X97798437Y-48539774D01*
X97812451Y-48630891D01*
X97821118Y-48660428D01*
X97887347Y-48752856D01*
X97998540Y-48835162D01*
X98136244Y-48894017D01*
X98149877Y-48897862D01*
X98236203Y-48910917D01*
X98376731Y-48919621D01*
X98562287Y-48923653D01*
X98783702Y-48922694D01*
X98836294Y-48921782D01*
X99040166Y-48917199D01*
X99191245Y-48911740D01*
X99300238Y-48904108D01*
X99377851Y-48893005D01*
X99434790Y-48877131D01*
X99481762Y-48855190D01*
X99506492Y-48840523D01*
X99605826Y-48762765D01*
X99668649Y-48668504D01*
X99701489Y-48542797D01*
X99710875Y-48372665D01*
X99697000Y-48190209D01*
G36*
X98663125Y-49499558D02*
G01*
X99179063Y-49498904D01*
X99695000Y-49498250D01*
X99695000Y-49212500D01*
X97803337Y-49212500D01*
X97805571Y-49299813D01*
X97814566Y-49377165D01*
X97829189Y-49421413D01*
X97864463Y-49444479D01*
X97948384Y-49486396D01*
X98070652Y-49542397D01*
X98220967Y-49607719D01*
X98336224Y-49655970D01*
X98543424Y-49742417D01*
X98695202Y-49808401D01*
X98795460Y-49856108D01*
X98848098Y-49887725D01*
X98857019Y-49905436D01*
X98826123Y-49911429D01*
X98790125Y-49910312D01*
X98723354Y-49908306D01*
X98608218Y-49907103D01*
X98459848Y-49906778D01*
X98293377Y-49907408D01*
X98261648Y-49907636D01*
X97828420Y-49911000D01*
X97816152Y-50039650D01*
X97811623Y-50123583D01*
X97815278Y-50176231D01*
X97818108Y-50182525D01*
X97852260Y-50186133D01*
X97941902Y-50189404D01*
X98079025Y-50192218D01*
X98255622Y-50194455D01*
X98463682Y-50195993D01*
X98695197Y-50196712D01*
X98763667Y-50196750D01*
X99695000Y-50196750D01*
X99695000Y-50073590D01*
X99695001Y-49950430D01*
X98663125Y-49499558D01*
G37*
X98663125Y-49499558D02*
X99179063Y-49498904D01*
X99695000Y-49498250D01*
X99695000Y-49212500D01*
X97803337Y-49212500D01*
X97805571Y-49299813D01*
X97814566Y-49377165D01*
X97829189Y-49421413D01*
X97864463Y-49444479D01*
X97948384Y-49486396D01*
X98070652Y-49542397D01*
X98220967Y-49607719D01*
X98336224Y-49655970D01*
X98543424Y-49742417D01*
X98695202Y-49808401D01*
X98795460Y-49856108D01*
X98848098Y-49887725D01*
X98857019Y-49905436D01*
X98826123Y-49911429D01*
X98790125Y-49910312D01*
X98723354Y-49908306D01*
X98608218Y-49907103D01*
X98459848Y-49906778D01*
X98293377Y-49907408D01*
X98261648Y-49907636D01*
X97828420Y-49911000D01*
X97816152Y-50039650D01*
X97811623Y-50123583D01*
X97815278Y-50176231D01*
X97818108Y-50182525D01*
X97852260Y-50186133D01*
X97941902Y-50189404D01*
X98079025Y-50192218D01*
X98255622Y-50194455D01*
X98463682Y-50195993D01*
X98695197Y-50196712D01*
X98763667Y-50196750D01*
X99695000Y-50196750D01*
X99695000Y-50073590D01*
X99695001Y-49950430D01*
X98663125Y-49499558D01*
G36*
X99475652Y-50419000D02*
G01*
X99466264Y-50633313D01*
X99456875Y-50847625D01*
X98917125Y-50847625D01*
X98907529Y-50680938D01*
X98897932Y-50514250D01*
X98679000Y-50514250D01*
X98679000Y-50863500D01*
X98044000Y-50863500D01*
X98044000Y-50419000D01*
X97821750Y-50419000D01*
X97819105Y-50728563D01*
X97817160Y-50870371D01*
X97814132Y-50994622D01*
X97810524Y-51083183D01*
X97808535Y-51109576D01*
X97808463Y-51172359D01*
X97816472Y-51196889D01*
X97851051Y-51200913D01*
X97941102Y-51204561D01*
X98078597Y-51207699D01*
X98255509Y-51210192D01*
X98463811Y-51211907D01*
X98695474Y-51212708D01*
X98763667Y-51212750D01*
X99695000Y-51212750D01*
X99695000Y-50419000D01*
X99475652Y-50419000D01*
G37*
X99475652Y-50419000D02*
X99466264Y-50633313D01*
X99456875Y-50847625D01*
X98917125Y-50847625D01*
X98907529Y-50680938D01*
X98897932Y-50514250D01*
X98679000Y-50514250D01*
X98679000Y-50863500D01*
X98044000Y-50863500D01*
X98044000Y-50419000D01*
X97821750Y-50419000D01*
X97819105Y-50728563D01*
X97817160Y-50870371D01*
X97814132Y-50994622D01*
X97810524Y-51083183D01*
X97808535Y-51109576D01*
X97808463Y-51172359D01*
X97816472Y-51196889D01*
X97851051Y-51200913D01*
X97941102Y-51204561D01*
X98078597Y-51207699D01*
X98255509Y-51210192D01*
X98463811Y-51211907D01*
X98695474Y-51212708D01*
X98763667Y-51212750D01*
X99695000Y-51212750D01*
X99695000Y-50419000D01*
X99475652Y-50419000D01*
G36*
X99694882Y-52093813D02*
G01*
X99688997Y-51888787D01*
X99668878Y-51736286D01*
X99630598Y-51626176D01*
X99570228Y-51548323D01*
X99483838Y-51492593D01*
X99457200Y-51480715D01*
X99322530Y-51446406D01*
X99161430Y-51436713D01*
X99002667Y-51451266D01*
X98878209Y-51488154D01*
X98771555Y-51572198D01*
X98694417Y-51702603D01*
X98653146Y-51866605D01*
X98647948Y-51950938D01*
X98647250Y-52101750D01*
X98234500Y-52101750D01*
X98064972Y-52102516D01*
X97948925Y-52105705D01*
X97876352Y-52112658D01*
X97837244Y-52124714D01*
X97821591Y-52143211D01*
X97819321Y-52157313D01*
X97813058Y-52234846D01*
X97809799Y-52260500D01*
X97809014Y-52330135D01*
X97814437Y-52379563D01*
X97826167Y-52451000D01*
X98901250Y-52451000D01*
X98901250Y-52101750D01*
X98901250Y-51996694D01*
X98914777Y-51903333D01*
X98946316Y-51830006D01*
X98990121Y-51791892D01*
X99061436Y-51773063D01*
X99167432Y-51768375D01*
X99298070Y-51778034D01*
X99380950Y-51813833D01*
X99429787Y-51886010D01*
X99454618Y-51982688D01*
X99475628Y-52101750D01*
X98901250Y-52101750D01*
X98901250Y-52451000D01*
X99695000Y-52451000D01*
X99694882Y-52093813D01*
G37*
X99694882Y-52093813D02*
X99688997Y-51888787D01*
X99668878Y-51736286D01*
X99630598Y-51626176D01*
X99570228Y-51548323D01*
X99483838Y-51492593D01*
X99457200Y-51480715D01*
X99322530Y-51446406D01*
X99161430Y-51436713D01*
X99002667Y-51451266D01*
X98878209Y-51488154D01*
X98771555Y-51572198D01*
X98694417Y-51702603D01*
X98653146Y-51866605D01*
X98647948Y-51950938D01*
X98647250Y-52101750D01*
X98234500Y-52101750D01*
X98064972Y-52102516D01*
X97948925Y-52105705D01*
X97876352Y-52112658D01*
X97837244Y-52124714D01*
X97821591Y-52143211D01*
X97819321Y-52157313D01*
X97813058Y-52234846D01*
X97809799Y-52260500D01*
X97809014Y-52330135D01*
X97814437Y-52379563D01*
X97826167Y-52451000D01*
X98901250Y-52451000D01*
X98901250Y-52101750D01*
X98901250Y-51996694D01*
X98914777Y-51903333D01*
X98946316Y-51830006D01*
X98990121Y-51791892D01*
X99061436Y-51773063D01*
X99167432Y-51768375D01*
X99298070Y-51778034D01*
X99380950Y-51813833D01*
X99429787Y-51886010D01*
X99454618Y-51982688D01*
X99475628Y-52101750D01*
X98901250Y-52101750D01*
X98901250Y-52451000D01*
X99695000Y-52451000D01*
X99694882Y-52093813D01*
G36*
X98044000Y-53117750D02*
G01*
X98044000Y-52669417D01*
X97927396Y-52679271D01*
X97878234Y-52683167D01*
X97844118Y-52691717D01*
X97822645Y-52714795D01*
X97811413Y-52762272D01*
X97808022Y-52844019D01*
X97810069Y-52969908D01*
X97814924Y-53141563D01*
X97823972Y-53467000D01*
X99695000Y-53467000D01*
X99695000Y-53117750D01*
X98044000Y-53117750D01*
G37*
X98044000Y-53117750D02*
X98044000Y-52669417D01*
X97927396Y-52679271D01*
X97878234Y-52683167D01*
X97844118Y-52691717D01*
X97822645Y-52714795D01*
X97811413Y-52762272D01*
X97808022Y-52844019D01*
X97810069Y-52969908D01*
X97814924Y-53141563D01*
X97823972Y-53467000D01*
X99695000Y-53467000D01*
X99695000Y-53117750D01*
X98044000Y-53117750D01*
G36*
X98774250Y-53874814D02*
G01*
X98542928Y-53828006D01*
X98332031Y-53785532D01*
X98149520Y-53748981D01*
X98003358Y-53719940D01*
X97901505Y-53699995D01*
X97851923Y-53690734D01*
X97848627Y-53690275D01*
X97834759Y-53718195D01*
X97822158Y-53790656D01*
X97816877Y-53846579D01*
X97813692Y-53942450D01*
X97825065Y-53992892D01*
X97856293Y-54015294D01*
X97869375Y-54018925D01*
X97938824Y-54032491D01*
X98039518Y-54049100D01*
X98083688Y-54055702D01*
X98234500Y-54077461D01*
X98234500Y-54412290D01*
X98083688Y-54433579D01*
X97955850Y-54453028D01*
X97878314Y-54473730D01*
X97838505Y-54505786D01*
X97823843Y-54559294D01*
X97821750Y-54643890D01*
X97829374Y-54751144D01*
X97852333Y-54797273D01*
X97861438Y-54799311D01*
X97901754Y-54792865D01*
X97996010Y-54775244D01*
X98135948Y-54748072D01*
X98313311Y-54712972D01*
X98518620Y-54671812D01*
X98518620Y-54351194D01*
X98477985Y-54341589D01*
X98460645Y-54316764D01*
X98456742Y-54275383D01*
X98456750Y-54244875D01*
X98462975Y-54169502D01*
X98489398Y-54139223D01*
X98528188Y-54135352D01*
X98589870Y-54141665D01*
X98695902Y-54157265D01*
X98828287Y-54179394D01*
X98901250Y-54192507D01*
X99202875Y-54248060D01*
X98878873Y-54302030D01*
X98709206Y-54330080D01*
X98592408Y-54346912D01*
X98518620Y-54351194D01*
X98518620Y-54671812D01*
X98519842Y-54671567D01*
X98747283Y-54625481D01*
X98790125Y-54616748D01*
X99679125Y-54435375D01*
X99679125Y-54058330D01*
X98774250Y-53874814D01*
G37*
X98774250Y-53874814D02*
X98542928Y-53828006D01*
X98332031Y-53785532D01*
X98149520Y-53748981D01*
X98003358Y-53719940D01*
X97901505Y-53699995D01*
X97851923Y-53690734D01*
X97848627Y-53690275D01*
X97834759Y-53718195D01*
X97822158Y-53790656D01*
X97816877Y-53846579D01*
X97813692Y-53942450D01*
X97825065Y-53992892D01*
X97856293Y-54015294D01*
X97869375Y-54018925D01*
X97938824Y-54032491D01*
X98039518Y-54049100D01*
X98083688Y-54055702D01*
X98234500Y-54077461D01*
X98234500Y-54412290D01*
X98083688Y-54433579D01*
X97955850Y-54453028D01*
X97878314Y-54473730D01*
X97838505Y-54505786D01*
X97823843Y-54559294D01*
X97821750Y-54643890D01*
X97829374Y-54751144D01*
X97852333Y-54797273D01*
X97861438Y-54799311D01*
X97901754Y-54792865D01*
X97996010Y-54775244D01*
X98135948Y-54748072D01*
X98313311Y-54712972D01*
X98518620Y-54671812D01*
X98518620Y-54351194D01*
X98477985Y-54341589D01*
X98460645Y-54316764D01*
X98456742Y-54275383D01*
X98456750Y-54244875D01*
X98462975Y-54169502D01*
X98489398Y-54139223D01*
X98528188Y-54135352D01*
X98589870Y-54141665D01*
X98695902Y-54157265D01*
X98828287Y-54179394D01*
X98901250Y-54192507D01*
X99202875Y-54248060D01*
X98878873Y-54302030D01*
X98709206Y-54330080D01*
X98592408Y-54346912D01*
X98518620Y-54351194D01*
X98518620Y-54671812D01*
X98519842Y-54671567D01*
X98747283Y-54625481D01*
X98790125Y-54616748D01*
X99679125Y-54435375D01*
X99679125Y-54058330D01*
X98774250Y-53874814D01*
G36*
X96627120Y-44311303D02*
G01*
X96607953Y-44171587D01*
X96595763Y-44092813D01*
X96539778Y-43735625D01*
X96484320Y-44084875D01*
X96459964Y-44236281D01*
X96443945Y-44343568D01*
X96436296Y-44425026D01*
X96437052Y-44498942D01*
X96446246Y-44583604D01*
X96463912Y-44697299D01*
X96485707Y-44831000D01*
X96539360Y-45164375D01*
X96595554Y-44807188D01*
X96619694Y-44646753D01*
X96632997Y-44525931D01*
X96635470Y-44421766D01*
X96627120Y-44311303D01*
G37*
X96627120Y-44311303D02*
X96607953Y-44171587D01*
X96595763Y-44092813D01*
X96539778Y-43735625D01*
X96484320Y-44084875D01*
X96459964Y-44236281D01*
X96443945Y-44343568D01*
X96436296Y-44425026D01*
X96437052Y-44498942D01*
X96446246Y-44583604D01*
X96463912Y-44697299D01*
X96485707Y-44831000D01*
X96539360Y-45164375D01*
X96595554Y-44807188D01*
X96619694Y-44646753D01*
X96632997Y-44525931D01*
X96635470Y-44421766D01*
X96627120Y-44311303D01*
G36*
X96628860Y-54007016D02*
G01*
X96610360Y-53870037D01*
X96596517Y-53780076D01*
X96540205Y-53419375D01*
X96483706Y-53784500D01*
X96461742Y-53929368D01*
X96444321Y-54049887D01*
X96433268Y-54133030D01*
X96430324Y-54165500D01*
X96436243Y-54201534D01*
X96449818Y-54286590D01*
X96468868Y-54406955D01*
X96485846Y-54514750D01*
X96538253Y-54848125D01*
X96595542Y-54494451D01*
X96620030Y-54336785D01*
X96633726Y-54217950D01*
X96636659Y-54115508D01*
X96628860Y-54007016D01*
G37*
X96628860Y-54007016D02*
X96610360Y-53870037D01*
X96596517Y-53780076D01*
X96540205Y-53419375D01*
X96483706Y-53784500D01*
X96461742Y-53929368D01*
X96444321Y-54049887D01*
X96433268Y-54133030D01*
X96430324Y-54165500D01*
X96436243Y-54201534D01*
X96449818Y-54286590D01*
X96468868Y-54406955D01*
X96485846Y-54514750D01*
X96538253Y-54848125D01*
X96595542Y-54494451D01*
X96620030Y-54336785D01*
X96633726Y-54217950D01*
X96636659Y-54115508D01*
X96628860Y-54007016D01*
G36*
X97192355Y-46478204D02*
G01*
X97187597Y-46397859D01*
X97174900Y-46354917D01*
X97150423Y-46336329D01*
X97110598Y-46329079D01*
X97061950Y-46327179D01*
X97037509Y-46347043D01*
X97028969Y-46403838D01*
X97028000Y-46479892D01*
X97028000Y-46640750D01*
X96647000Y-46640750D01*
X96647000Y-46513750D01*
X96642668Y-46431927D01*
X96622233Y-46395559D01*
X96574538Y-46386796D01*
X96567625Y-46386750D01*
X96516486Y-46393682D01*
X96493756Y-46426379D01*
X96488279Y-46502691D01*
X96488250Y-46513750D01*
X96488250Y-46640750D01*
X96043750Y-46640750D01*
X96043750Y-46482000D01*
X96041177Y-46387784D01*
X96028044Y-46340782D01*
X95996231Y-46324754D01*
X95964375Y-46323250D01*
X95926834Y-46325518D01*
X95903510Y-46340458D01*
X95891019Y-46380276D01*
X95885978Y-46457178D01*
X95885005Y-46583370D01*
X95885000Y-46609645D01*
X95885000Y-46896039D01*
X97192838Y-46878875D01*
X97193017Y-46609000D01*
X97192355Y-46478204D01*
G37*
X97192355Y-46478204D02*
X97187597Y-46397859D01*
X97174900Y-46354917D01*
X97150423Y-46336329D01*
X97110598Y-46329079D01*
X97061950Y-46327179D01*
X97037509Y-46347043D01*
X97028969Y-46403838D01*
X97028000Y-46479892D01*
X97028000Y-46640750D01*
X96647000Y-46640750D01*
X96647000Y-46513750D01*
X96642668Y-46431927D01*
X96622233Y-46395559D01*
X96574538Y-46386796D01*
X96567625Y-46386750D01*
X96516486Y-46393682D01*
X96493756Y-46426379D01*
X96488279Y-46502691D01*
X96488250Y-46513750D01*
X96488250Y-46640750D01*
X96043750Y-46640750D01*
X96043750Y-46482000D01*
X96041177Y-46387784D01*
X96028044Y-46340782D01*
X95996231Y-46324754D01*
X95964375Y-46323250D01*
X95926834Y-46325518D01*
X95903510Y-46340458D01*
X95891019Y-46380276D01*
X95885978Y-46457178D01*
X95885005Y-46583370D01*
X95885000Y-46609645D01*
X95885000Y-46896039D01*
X97192838Y-46878875D01*
X97193017Y-46609000D01*
X97192355Y-46478204D01*
G36*
X95885000Y-47117000D02*
G01*
X95885000Y-47339250D01*
X97186750Y-47339250D01*
X97186750Y-47117000D01*
X95885000Y-47117000D01*
G37*
X95885000Y-47117000D02*
X95885000Y-47339250D01*
X97186750Y-47339250D01*
X97186750Y-47117000D01*
X95885000Y-47117000D01*
G36*
X97173722Y-47781088D02*
G01*
X97129831Y-47688122D01*
X97067298Y-47623877D01*
X96965710Y-47577767D01*
X96837028Y-47564158D01*
X96706755Y-47581760D01*
X96600391Y-47629286D01*
X96577493Y-47648647D01*
X96553425Y-47673971D01*
X96532712Y-47690887D01*
X96505319Y-47698089D01*
X96461211Y-47694267D01*
X96390351Y-47678114D01*
X96282704Y-47648322D01*
X96128235Y-47603583D01*
X96043750Y-47579087D01*
X95885000Y-47533173D01*
X95885000Y-47656209D01*
X95885600Y-47706141D01*
X95893426Y-47743392D01*
X95917520Y-47772854D01*
X95966924Y-47799420D01*
X96050679Y-47827980D01*
X96177828Y-47863427D01*
X96353313Y-47909578D01*
X96442617Y-47943067D01*
X96486143Y-47981542D01*
X96488250Y-47991349D01*
X96476550Y-48013576D01*
X96434521Y-48027644D01*
X96351774Y-48035151D01*
X96217919Y-48037696D01*
X96186625Y-48037750D01*
X95885000Y-48037750D01*
X95885000Y-48291750D01*
X96837500Y-48291750D01*
X96837500Y-48037750D01*
X96731907Y-48036046D01*
X96674896Y-48026833D01*
X96651562Y-48003956D01*
X96647003Y-47961265D01*
X96647000Y-47959107D01*
X96676444Y-47875243D01*
X96726144Y-47828607D01*
X96832799Y-47792282D01*
X96892514Y-47798643D01*
X96982014Y-47838540D01*
X97022104Y-47908965D01*
X97027514Y-47966313D01*
X97022593Y-48005994D01*
X96997302Y-48027428D01*
X96936886Y-48036162D01*
X96837500Y-48037750D01*
X96837500Y-48291750D01*
X97181332Y-48291750D01*
X97191979Y-48084491D01*
X97193250Y-47908819D01*
X97173722Y-47781088D01*
G37*
X97173722Y-47781088D02*
X97129831Y-47688122D01*
X97067298Y-47623877D01*
X96965710Y-47577767D01*
X96837028Y-47564158D01*
X96706755Y-47581760D01*
X96600391Y-47629286D01*
X96577493Y-47648647D01*
X96553425Y-47673971D01*
X96532712Y-47690887D01*
X96505319Y-47698089D01*
X96461211Y-47694267D01*
X96390351Y-47678114D01*
X96282704Y-47648322D01*
X96128235Y-47603583D01*
X96043750Y-47579087D01*
X95885000Y-47533173D01*
X95885000Y-47656209D01*
X95885600Y-47706141D01*
X95893426Y-47743392D01*
X95917520Y-47772854D01*
X95966924Y-47799420D01*
X96050679Y-47827980D01*
X96177828Y-47863427D01*
X96353313Y-47909578D01*
X96442617Y-47943067D01*
X96486143Y-47981542D01*
X96488250Y-47991349D01*
X96476550Y-48013576D01*
X96434521Y-48027644D01*
X96351774Y-48035151D01*
X96217919Y-48037696D01*
X96186625Y-48037750D01*
X95885000Y-48037750D01*
X95885000Y-48291750D01*
X96837500Y-48291750D01*
X96837500Y-48037750D01*
X96731907Y-48036046D01*
X96674896Y-48026833D01*
X96651562Y-48003956D01*
X96647003Y-47961265D01*
X96647000Y-47959107D01*
X96676444Y-47875243D01*
X96726144Y-47828607D01*
X96832799Y-47792282D01*
X96892514Y-47798643D01*
X96982014Y-47838540D01*
X97022104Y-47908965D01*
X97027514Y-47966313D01*
X97022593Y-48005994D01*
X96997302Y-48027428D01*
X96936886Y-48036162D01*
X96837500Y-48037750D01*
X96837500Y-48291750D01*
X97181332Y-48291750D01*
X97191979Y-48084491D01*
X97193250Y-47908819D01*
X97173722Y-47781088D01*
G36*
X97186285Y-48603792D02*
G01*
X97183138Y-48507645D01*
X97174685Y-48452370D01*
X97158299Y-48426654D01*
X97131355Y-48419182D01*
X97109387Y-48418750D01*
X97053890Y-48430083D01*
X97028607Y-48476345D01*
X97022075Y-48521938D01*
X97012125Y-48625125D01*
X95884959Y-48625125D01*
X95884980Y-48744188D01*
X95885000Y-48863250D01*
X97028000Y-48863250D01*
X97028000Y-48974375D01*
X97033931Y-49049525D01*
X97060618Y-49080290D01*
X97107375Y-49085500D01*
X97186750Y-49085500D01*
X97186750Y-48752125D01*
X97186285Y-48603792D01*
G37*
X97186285Y-48603792D02*
X97183138Y-48507645D01*
X97174685Y-48452370D01*
X97158299Y-48426654D01*
X97131355Y-48419182D01*
X97109387Y-48418750D01*
X97053890Y-48430083D01*
X97028607Y-48476345D01*
X97022075Y-48521938D01*
X97012125Y-48625125D01*
X95884959Y-48625125D01*
X95884980Y-48744188D01*
X95885000Y-48863250D01*
X97028000Y-48863250D01*
X97028000Y-48974375D01*
X97033931Y-49049525D01*
X97060618Y-49080290D01*
X97107375Y-49085500D01*
X97186750Y-49085500D01*
X97186750Y-48752125D01*
X97186285Y-48603792D01*
G36*
X97182613Y-51303630D02*
G01*
X97171655Y-51192835D01*
X97156061Y-51120904D01*
X97152445Y-51112725D01*
X97096840Y-51048654D01*
X97004423Y-51003180D01*
X96868012Y-50974460D01*
X96680421Y-50960654D01*
X96551751Y-50958750D01*
X96327290Y-50964622D01*
X96158190Y-50985791D01*
X96037098Y-51027586D01*
X95956660Y-51095337D01*
X95909525Y-51194375D01*
X95888339Y-51330028D01*
X95885000Y-51442065D01*
X95885000Y-51689000D01*
X96537978Y-51689000D01*
X96537978Y-51435000D01*
X96047956Y-51435000D01*
X96063666Y-51348364D01*
X96088010Y-51275776D01*
X96117126Y-51237725D01*
X96162101Y-51228390D01*
X96256756Y-51220666D01*
X96387275Y-51215350D01*
X96539844Y-51213239D01*
X96541545Y-51213237D01*
X96730054Y-51215860D01*
X96863941Y-51226194D01*
X96951896Y-51247105D01*
X97002611Y-51281463D01*
X97024780Y-51332136D01*
X97028000Y-51373768D01*
X97024470Y-51397037D01*
X97007693Y-51413531D01*
X96968391Y-51424408D01*
X96897284Y-51430830D01*
X96785093Y-51433956D01*
X96622539Y-51434944D01*
X96537978Y-51435000D01*
X96537978Y-51689000D01*
X97186750Y-51689000D01*
X97186750Y-51432913D01*
X97182613Y-51303630D01*
G37*
X97182613Y-51303630D02*
X97171655Y-51192835D01*
X97156061Y-51120904D01*
X97152445Y-51112725D01*
X97096840Y-51048654D01*
X97004423Y-51003180D01*
X96868012Y-50974460D01*
X96680421Y-50960654D01*
X96551751Y-50958750D01*
X96327290Y-50964622D01*
X96158190Y-50985791D01*
X96037098Y-51027586D01*
X95956660Y-51095337D01*
X95909525Y-51194375D01*
X95888339Y-51330028D01*
X95885000Y-51442065D01*
X95885000Y-51689000D01*
X96537978Y-51689000D01*
X96537978Y-51435000D01*
X96047956Y-51435000D01*
X96063666Y-51348364D01*
X96088010Y-51275776D01*
X96117126Y-51237725D01*
X96162101Y-51228390D01*
X96256756Y-51220666D01*
X96387275Y-51215350D01*
X96539844Y-51213239D01*
X96541545Y-51213237D01*
X96730054Y-51215860D01*
X96863941Y-51226194D01*
X96951896Y-51247105D01*
X97002611Y-51281463D01*
X97024780Y-51332136D01*
X97028000Y-51373768D01*
X97024470Y-51397037D01*
X97007693Y-51413531D01*
X96968391Y-51424408D01*
X96897284Y-51430830D01*
X96785093Y-51433956D01*
X96622539Y-51434944D01*
X96537978Y-51435000D01*
X96537978Y-51689000D01*
X97186750Y-51689000D01*
X97186750Y-51432913D01*
X97182613Y-51303630D01*
G36*
X95880657Y-51909949D02*
G01*
X95890766Y-51996374D01*
X95900270Y-52034860D01*
X95925294Y-52068554D01*
X95975686Y-52103696D01*
X96061292Y-52146526D01*
X96191958Y-52203285D01*
X96266000Y-52234170D01*
X96631125Y-52385541D01*
X96258063Y-52386521D01*
X95885000Y-52387500D01*
X95885000Y-52609750D01*
X96532172Y-52609750D01*
X96750589Y-52609455D01*
X96913811Y-52608050D01*
X97030143Y-52604760D01*
X97107891Y-52598808D01*
X97155359Y-52589418D01*
X97180853Y-52575813D01*
X97192676Y-52557217D01*
X97195564Y-52547726D01*
X97199296Y-52495686D01*
X97175313Y-52449183D01*
X97115515Y-52401831D01*
X97011801Y-52347240D01*
X96856073Y-52279026D01*
X96853375Y-52277898D01*
X96727891Y-52224048D01*
X96624235Y-52176947D01*
X96556738Y-52143242D01*
X96539776Y-52132425D01*
X96557340Y-52121551D01*
X96626613Y-52112521D01*
X96735805Y-52106438D01*
X96838352Y-52104466D01*
X96974709Y-52102914D01*
X97084733Y-52100233D01*
X97154736Y-52096843D01*
X97172660Y-52094216D01*
X97182480Y-52060214D01*
X97191583Y-52006500D01*
X97202625Y-51927125D01*
X95880657Y-51909949D01*
G37*
X95880657Y-51909949D02*
X95890766Y-51996374D01*
X95900270Y-52034860D01*
X95925294Y-52068554D01*
X95975686Y-52103696D01*
X96061292Y-52146526D01*
X96191958Y-52203285D01*
X96266000Y-52234170D01*
X96631125Y-52385541D01*
X96258063Y-52386521D01*
X95885000Y-52387500D01*
X95885000Y-52609750D01*
X96532172Y-52609750D01*
X96750589Y-52609455D01*
X96913811Y-52608050D01*
X97030143Y-52604760D01*
X97107891Y-52598808D01*
X97155359Y-52589418D01*
X97180853Y-52575813D01*
X97192676Y-52557217D01*
X97195564Y-52547726D01*
X97199296Y-52495686D01*
X97175313Y-52449183D01*
X97115515Y-52401831D01*
X97011801Y-52347240D01*
X96856073Y-52279026D01*
X96853375Y-52277898D01*
X96727891Y-52224048D01*
X96624235Y-52176947D01*
X96556738Y-52143242D01*
X96539776Y-52132425D01*
X96557340Y-52121551D01*
X96626613Y-52112521D01*
X96735805Y-52106438D01*
X96838352Y-52104466D01*
X96974709Y-52102914D01*
X97084733Y-52100233D01*
X97154736Y-52096843D01*
X97172660Y-52094216D01*
X97182480Y-52060214D01*
X97191583Y-52006500D01*
X97202625Y-51927125D01*
X95880657Y-51909949D01*
G36*
X95885000Y-52832000D02*
G01*
X95885000Y-52943125D01*
X95891010Y-53018390D01*
X95917933Y-53049419D01*
X95964375Y-53055044D01*
X96021297Y-53055357D01*
X96129646Y-53055730D01*
X96277349Y-53056130D01*
X96452334Y-53056524D01*
X96607313Y-53056817D01*
X97170875Y-53057797D01*
X97180730Y-52944899D01*
X97190584Y-52832000D01*
X95885000Y-52832000D01*
G37*
X95885000Y-52832000D02*
X95885000Y-52943125D01*
X95891010Y-53018390D01*
X95917933Y-53049419D01*
X95964375Y-53055044D01*
X96021297Y-53055357D01*
X96129646Y-53055730D01*
X96277349Y-53056130D01*
X96452334Y-53056524D01*
X96607313Y-53056817D01*
X97170875Y-53057797D01*
X97180730Y-52944899D01*
X97190584Y-52832000D01*
X95885000Y-52832000D01*
G36*
X97202663Y-45751923D02*
G01*
X97153588Y-45658060D01*
X97063609Y-45579961D01*
X96955307Y-45534716D01*
X96908938Y-45529619D01*
X96853954Y-45544810D01*
X96837585Y-45601568D01*
X96837500Y-45608875D01*
X96836793Y-45678643D01*
X96835564Y-45711600D01*
X96861293Y-45734740D01*
X96926294Y-45758936D01*
X96930814Y-45760132D01*
X97006452Y-45801492D01*
X97028591Y-45863303D01*
X96993144Y-45930706D01*
X96980788Y-45941908D01*
X96913926Y-45968479D01*
X96832659Y-45944976D01*
X96732336Y-45868975D01*
X96623604Y-45755613D01*
X96481533Y-45615811D01*
X96348226Y-45533171D01*
X96215486Y-45503662D01*
X96126134Y-45510966D01*
X96003196Y-45562920D01*
X95917104Y-45658587D01*
X95874049Y-45786068D01*
X95880217Y-45933467D01*
X95888762Y-45967272D01*
X95944900Y-46065659D01*
X96038222Y-46144036D01*
X96146248Y-46186515D01*
X96202500Y-46188967D01*
X96260416Y-46169752D01*
X96286463Y-46116044D01*
X96291825Y-46077188D01*
X96292631Y-46006088D01*
X96267816Y-45978101D01*
X96225308Y-45974000D01*
X96149667Y-45954579D01*
X96093430Y-45906927D01*
X96062997Y-45846962D01*
X96064764Y-45790601D01*
X96105130Y-45753763D01*
X96134460Y-45747989D01*
X96196942Y-45748471D01*
X96254187Y-45765004D01*
X96318693Y-45805233D01*
X96402957Y-45876803D01*
X96508679Y-45976904D01*
X96615225Y-46077995D01*
X96691213Y-46142154D01*
X96750633Y-46177702D01*
X96807472Y-46192960D01*
X96875722Y-46196250D01*
X96877460Y-46196250D01*
X97025054Y-46170534D01*
X97133796Y-46097871D01*
X97198757Y-45984995D01*
X97215011Y-45838638D01*
X97202663Y-45751923D01*
G37*
X97202663Y-45751923D02*
X97153588Y-45658060D01*
X97063609Y-45579961D01*
X96955307Y-45534716D01*
X96908938Y-45529619D01*
X96853954Y-45544810D01*
X96837585Y-45601568D01*
X96837500Y-45608875D01*
X96836793Y-45678643D01*
X96835564Y-45711600D01*
X96861293Y-45734740D01*
X96926294Y-45758936D01*
X96930814Y-45760132D01*
X97006452Y-45801492D01*
X97028591Y-45863303D01*
X96993144Y-45930706D01*
X96980788Y-45941908D01*
X96913926Y-45968479D01*
X96832659Y-45944976D01*
X96732336Y-45868975D01*
X96623604Y-45755613D01*
X96481533Y-45615811D01*
X96348226Y-45533171D01*
X96215486Y-45503662D01*
X96126134Y-45510966D01*
X96003196Y-45562920D01*
X95917104Y-45658587D01*
X95874049Y-45786068D01*
X95880217Y-45933467D01*
X95888762Y-45967272D01*
X95944900Y-46065659D01*
X96038222Y-46144036D01*
X96146248Y-46186515D01*
X96202500Y-46188967D01*
X96260416Y-46169752D01*
X96286463Y-46116044D01*
X96291825Y-46077188D01*
X96292631Y-46006088D01*
X96267816Y-45978101D01*
X96225308Y-45974000D01*
X96149667Y-45954579D01*
X96093430Y-45906927D01*
X96062997Y-45846962D01*
X96064764Y-45790601D01*
X96105130Y-45753763D01*
X96134460Y-45747989D01*
X96196942Y-45748471D01*
X96254187Y-45765004D01*
X96318693Y-45805233D01*
X96402957Y-45876803D01*
X96508679Y-45976904D01*
X96615225Y-46077995D01*
X96691213Y-46142154D01*
X96750633Y-46177702D01*
X96807472Y-46192960D01*
X96875722Y-46196250D01*
X96877460Y-46196250D01*
X97025054Y-46170534D01*
X97133796Y-46097871D01*
X97198757Y-45984995D01*
X97215011Y-45838638D01*
X97202663Y-45751923D01*
G36*
X97189287Y-49377878D02*
G01*
X97118585Y-49275954D01*
X97013298Y-49212888D01*
X96918909Y-49190324D01*
X96865191Y-49206599D01*
X96837560Y-49269263D01*
X96830785Y-49307362D01*
X96827749Y-49374884D01*
X96853770Y-49400243D01*
X96886737Y-49403000D01*
X96965579Y-49424335D01*
X97012904Y-49476416D01*
X97014693Y-49541361D01*
X97007042Y-49556474D01*
X96954592Y-49610891D01*
X96889660Y-49618792D01*
X96806188Y-49578031D01*
X96698117Y-49486466D01*
X96637479Y-49425660D01*
X96471986Y-49277509D01*
X96318315Y-49187808D01*
X96178591Y-49156915D01*
X96054937Y-49185182D01*
X95949479Y-49272966D01*
X95924688Y-49306491D01*
X95875611Y-49391049D01*
X95859401Y-49465731D01*
X95872791Y-49558237D01*
X95888254Y-49615316D01*
X95935484Y-49709094D01*
X96000797Y-49782003D01*
X96081423Y-49825630D01*
X96169485Y-49845469D01*
X96243494Y-49839545D01*
X96281364Y-49807813D01*
X96302360Y-49718513D01*
X96299582Y-49657410D01*
X96281875Y-49640625D01*
X96169336Y-49618440D01*
X96091198Y-49573273D01*
X96056925Y-49514169D01*
X96075983Y-49450172D01*
X96078840Y-49446601D01*
X96138239Y-49403727D01*
X96212347Y-49406479D01*
X96306631Y-49457206D01*
X96426561Y-49558257D01*
X96494768Y-49625250D01*
X96596120Y-49726983D01*
X96667747Y-49791686D01*
X96724316Y-49827738D01*
X96780491Y-49843517D01*
X96850937Y-49847401D01*
X96883813Y-49847500D01*
X96989258Y-49843049D01*
X97056714Y-49823181D01*
X97111441Y-49778121D01*
X97136303Y-49749814D01*
X97201817Y-49630831D01*
X97218255Y-49501511D01*
X97189287Y-49377878D01*
G37*
X97189287Y-49377878D02*
X97118585Y-49275954D01*
X97013298Y-49212888D01*
X96918909Y-49190324D01*
X96865191Y-49206599D01*
X96837560Y-49269263D01*
X96830785Y-49307362D01*
X96827749Y-49374884D01*
X96853770Y-49400243D01*
X96886737Y-49403000D01*
X96965579Y-49424335D01*
X97012904Y-49476416D01*
X97014693Y-49541361D01*
X97007042Y-49556474D01*
X96954592Y-49610891D01*
X96889660Y-49618792D01*
X96806188Y-49578031D01*
X96698117Y-49486466D01*
X96637479Y-49425660D01*
X96471986Y-49277509D01*
X96318315Y-49187808D01*
X96178591Y-49156915D01*
X96054937Y-49185182D01*
X95949479Y-49272966D01*
X95924688Y-49306491D01*
X95875611Y-49391049D01*
X95859401Y-49465731D01*
X95872791Y-49558237D01*
X95888254Y-49615316D01*
X95935484Y-49709094D01*
X96000797Y-49782003D01*
X96081423Y-49825630D01*
X96169485Y-49845469D01*
X96243494Y-49839545D01*
X96281364Y-49807813D01*
X96302360Y-49718513D01*
X96299582Y-49657410D01*
X96281875Y-49640625D01*
X96169336Y-49618440D01*
X96091198Y-49573273D01*
X96056925Y-49514169D01*
X96075983Y-49450172D01*
X96078840Y-49446601D01*
X96138239Y-49403727D01*
X96212347Y-49406479D01*
X96306631Y-49457206D01*
X96426561Y-49558257D01*
X96494768Y-49625250D01*
X96596120Y-49726983D01*
X96667747Y-49791686D01*
X96724316Y-49827738D01*
X96780491Y-49843517D01*
X96850937Y-49847401D01*
X96883813Y-49847500D01*
X96989258Y-49843049D01*
X97056714Y-49823181D01*
X97111441Y-49778121D01*
X97136303Y-49749814D01*
X97201817Y-49630831D01*
X97218255Y-49501511D01*
X97189287Y-49377878D01*
G36*
X97196953Y-50638764D02*
G01*
X97193233Y-50618636D01*
X97185907Y-50590604D01*
X97169890Y-50570909D01*
X97135372Y-50558078D01*
X97072546Y-50550642D01*
X96971604Y-50547130D01*
X96822739Y-50546071D01*
X96708866Y-50546000D01*
X96535699Y-50543935D01*
X96379426Y-50538257D01*
X96253815Y-50529746D01*
X96172629Y-50519180D01*
X96156129Y-50514727D01*
X96076588Y-50463854D01*
X96052288Y-50398815D01*
X96087122Y-50330229D01*
X96088116Y-50329226D01*
X96117554Y-50308752D01*
X96165250Y-50293750D01*
X96240867Y-50283193D01*
X96354067Y-50276055D01*
X96514511Y-50271312D01*
X96656020Y-50268923D01*
X97170875Y-50261720D01*
X97180850Y-50147834D01*
X97190825Y-50033947D01*
X96617930Y-50043911D01*
X96414159Y-50047725D01*
X96264071Y-50051931D01*
X96157856Y-50057879D01*
X96085704Y-50066918D01*
X96037805Y-50080398D01*
X96004348Y-50099669D01*
X95975524Y-50126081D01*
X95968573Y-50133250D01*
X95901423Y-50244354D01*
X95870697Y-50390260D01*
X95875989Y-50521048D01*
X95908644Y-50598264D01*
X95972078Y-50676483D01*
X95984685Y-50687735D01*
X96021183Y-50716830D01*
X96057883Y-50737907D01*
X96105154Y-50752259D01*
X96173366Y-50761177D01*
X96272888Y-50765954D01*
X96414089Y-50767881D01*
X96607339Y-50768250D01*
X96630916Y-50768250D01*
X96837690Y-50767756D01*
X96989039Y-50764840D01*
X97093035Y-50757355D01*
X97157751Y-50743153D01*
X97191260Y-50720086D01*
X97201636Y-50686005D01*
X97196953Y-50638764D01*
G37*
X97196953Y-50638764D02*
X97193233Y-50618636D01*
X97185907Y-50590604D01*
X97169890Y-50570909D01*
X97135372Y-50558078D01*
X97072546Y-50550642D01*
X96971604Y-50547130D01*
X96822739Y-50546071D01*
X96708866Y-50546000D01*
X96535699Y-50543935D01*
X96379426Y-50538257D01*
X96253815Y-50529746D01*
X96172629Y-50519180D01*
X96156129Y-50514727D01*
X96076588Y-50463854D01*
X96052288Y-50398815D01*
X96087122Y-50330229D01*
X96088116Y-50329226D01*
X96117554Y-50308752D01*
X96165250Y-50293750D01*
X96240867Y-50283193D01*
X96354067Y-50276055D01*
X96514511Y-50271312D01*
X96656020Y-50268923D01*
X97170875Y-50261720D01*
X97180850Y-50147834D01*
X97190825Y-50033947D01*
X96617930Y-50043911D01*
X96414159Y-50047725D01*
X96264071Y-50051931D01*
X96157856Y-50057879D01*
X96085704Y-50066918D01*
X96037805Y-50080398D01*
X96004348Y-50099669D01*
X95975524Y-50126081D01*
X95968573Y-50133250D01*
X95901423Y-50244354D01*
X95870697Y-50390260D01*
X95875989Y-50521048D01*
X95908644Y-50598264D01*
X95972078Y-50676483D01*
X95984685Y-50687735D01*
X96021183Y-50716830D01*
X96057883Y-50737907D01*
X96105154Y-50752259D01*
X96173366Y-50761177D01*
X96272888Y-50765954D01*
X96414089Y-50767881D01*
X96607339Y-50768250D01*
X96630916Y-50768250D01*
X96837690Y-50767756D01*
X96989039Y-50764840D01*
X97093035Y-50757355D01*
X97157751Y-50743153D01*
X97191260Y-50720086D01*
X97201636Y-50686005D01*
X97196953Y-50638764D01*
G36*
X100097238Y-60049904D02*
G01*
X100071058Y-60065036D01*
X100017480Y-60125853D01*
X99942470Y-60224011D01*
X99851994Y-60351166D01*
X99752020Y-60498976D01*
X99648513Y-60659096D01*
X99564544Y-60794792D01*
X99476516Y-60933358D01*
X99388418Y-61060317D01*
X99311216Y-61160498D01*
X99261362Y-61214143D01*
X99193193Y-61267375D01*
X99119558Y-61307679D01*
X99031240Y-61336420D01*
X98919023Y-61354962D01*
X98773691Y-61364669D01*
X98586028Y-61366907D01*
X98346817Y-61363040D01*
X98269147Y-61361044D01*
X98024884Y-61355214D01*
X97753695Y-61350052D01*
X97480595Y-61345955D01*
X97230598Y-61343315D01*
X97099438Y-61342588D01*
X96877739Y-61340351D01*
X96716042Y-61334949D01*
X96610917Y-61326151D01*
X96558933Y-61313722D01*
X96551750Y-61305345D01*
X96571247Y-61256468D01*
X96624116Y-61171163D01*
X96701923Y-61060799D01*
X96796237Y-60936746D01*
X96898625Y-60810373D01*
X97000653Y-60693051D01*
X97027438Y-60663980D01*
X97113571Y-60566256D01*
X97181201Y-60478982D01*
X97218953Y-60417196D01*
X97222775Y-60405759D01*
X97258679Y-60342357D01*
X97342374Y-60253846D01*
X97466071Y-60145827D01*
X97621983Y-60023904D01*
X97802321Y-59893677D01*
X97999298Y-59760750D01*
X98205125Y-59630725D01*
X98412014Y-59509204D01*
X98612177Y-59401789D01*
X98633104Y-59391248D01*
X98774202Y-59324883D01*
X98940951Y-59253060D01*
X99121187Y-59180295D01*
X99302749Y-59111101D01*
X99473472Y-59049993D01*
X99621193Y-59001488D01*
X99733751Y-58970099D01*
X99794300Y-58960218D01*
X99857219Y-58937054D01*
X99885501Y-58912125D01*
X99910511Y-58873524D01*
X99908139Y-58864500D01*
X99868423Y-58858167D01*
X99780476Y-58840933D01*
X99656570Y-58815444D01*
X99508976Y-58784349D01*
X99349966Y-58750295D01*
X99191814Y-58715928D01*
X99046789Y-58683897D01*
X98927165Y-58656849D01*
X98845214Y-58637431D01*
X98813218Y-58628301D01*
X98832298Y-58612312D01*
X98893955Y-58586708D01*
X98916812Y-58578854D01*
X98992953Y-58546465D01*
X99022014Y-58506850D01*
X99022127Y-58460525D01*
X98998422Y-58399643D01*
X98934836Y-58352627D01*
X98879141Y-58328300D01*
X98785103Y-58286778D01*
X98678464Y-58232435D01*
X98574455Y-58174058D01*
X98488305Y-58120433D01*
X98435245Y-58080346D01*
X98425631Y-58066665D01*
X98451257Y-58042220D01*
X98514425Y-58009708D01*
X98520765Y-58007038D01*
X98583070Y-57973913D01*
X98592328Y-57942300D01*
X98580377Y-57923811D01*
X98528330Y-57885879D01*
X98503885Y-57880250D01*
X98457843Y-57851671D01*
X98429777Y-57777126D01*
X98425000Y-57720526D01*
X98406869Y-57678763D01*
X98345517Y-57640847D01*
X98247077Y-57605160D01*
X98097360Y-57539939D01*
X97956679Y-57448818D01*
X97930951Y-57427423D01*
X97693069Y-57248560D01*
X97424900Y-57107610D01*
X97141492Y-57005359D01*
X96987191Y-56955451D01*
X96886973Y-56913744D01*
X96832584Y-56876345D01*
X96817978Y-56852757D01*
X96786282Y-56796093D01*
X96725425Y-56715488D01*
X96674880Y-56657354D01*
X96551222Y-56523201D01*
X96670549Y-56504334D01*
X96729911Y-56499850D01*
X96844525Y-56495657D01*
X97006141Y-56491892D01*
X97206510Y-56488691D01*
X97437385Y-56486192D01*
X97690515Y-56484531D01*
X97901408Y-56483901D01*
X98221800Y-56483129D01*
X98485673Y-56483292D01*
X98699994Y-56486625D01*
X98871728Y-56495361D01*
X99007843Y-56511736D01*
X99115307Y-56537985D01*
X99201085Y-56576341D01*
X99272146Y-56629041D01*
X99335455Y-56698318D01*
X99397980Y-56786407D01*
X99466688Y-56895542D01*
X99536250Y-57008284D01*
X99660997Y-57205059D01*
X99778556Y-57384056D01*
X99884001Y-57538287D01*
X99972409Y-57660768D01*
X100038853Y-57744513D01*
X100078411Y-57782534D01*
X100083136Y-57784075D01*
X100086205Y-57759082D01*
X100061683Y-57688749D01*
X100014499Y-57582278D01*
X99949580Y-57448871D01*
X99871856Y-57297728D01*
X99786255Y-57138052D01*
X99697703Y-56979044D01*
X99611131Y-56829907D01*
X99531466Y-56699841D01*
X99463636Y-56598048D01*
X99414641Y-56535905D01*
X99329887Y-56461539D01*
X99226493Y-56390739D01*
X99202875Y-56377335D01*
X99168331Y-56359896D01*
X99131490Y-56345624D01*
X99085798Y-56334133D01*
X99024699Y-56325037D01*
X98941638Y-56317953D01*
X98830058Y-56312493D01*
X98683405Y-56308275D01*
X98495123Y-56304912D01*
X98258656Y-56302019D01*
X97967449Y-56299211D01*
X97856157Y-56298220D01*
X97520515Y-56295576D01*
X97241955Y-56294537D01*
X97014067Y-56295746D01*
X96830439Y-56299843D01*
X96684663Y-56307469D01*
X96570327Y-56319268D01*
X96481021Y-56335879D01*
X96410334Y-56357945D01*
X96351856Y-56386106D01*
X96299176Y-56421005D01*
X96251288Y-56458817D01*
X96216703Y-56487567D01*
X96185850Y-56515452D01*
X96155238Y-56547937D01*
X96121379Y-56590486D01*
X96080782Y-56648563D01*
X96029956Y-56727635D01*
X95965413Y-56833165D01*
X95883661Y-56970620D01*
X95781211Y-57145462D01*
X95654574Y-57363158D01*
X95500258Y-57629173D01*
X95464608Y-57690652D01*
X95300548Y-57975010D01*
X95166875Y-58211313D01*
X95061203Y-58405899D01*
X94981148Y-58565102D01*
X94924324Y-58695257D01*
X94888345Y-58802702D01*
X94870825Y-58893770D01*
X94869380Y-58974798D01*
X94881624Y-59052121D01*
X94905171Y-59132075D01*
X94913214Y-59155093D01*
X94946184Y-59228880D01*
X95006948Y-59346876D01*
X95090867Y-59501231D01*
X95193302Y-59684092D01*
X95309615Y-59887609D01*
X95435167Y-60103928D01*
X95565320Y-60325200D01*
X95695434Y-60543572D01*
X95820871Y-60751192D01*
X95936992Y-60940209D01*
X96039159Y-61102771D01*
X96122732Y-61231027D01*
X96183073Y-61317125D01*
X96208614Y-61347727D01*
X96263195Y-61398619D01*
X96317004Y-61440597D01*
X96376428Y-61474422D01*
X96447854Y-61500856D01*
X96537667Y-61520661D01*
X96652253Y-61534596D01*
X96797999Y-61543425D01*
X96981290Y-61547908D01*
X97208513Y-61548807D01*
X97486055Y-61546882D01*
X97820300Y-61542896D01*
X97843113Y-61542597D01*
X98188603Y-61538346D01*
X98477236Y-61533644D01*
X98715615Y-61525751D01*
X98910341Y-61511924D01*
X99068016Y-61489424D01*
X99195243Y-61455508D01*
X99298623Y-61407435D01*
X99384759Y-61342463D01*
X99460252Y-61257851D01*
X99531705Y-61150858D01*
X99605719Y-61018743D01*
X99688897Y-60858763D01*
X99743163Y-60753625D01*
X99826770Y-60593431D01*
X99907012Y-60441267D01*
X99976038Y-60311916D01*
X100025998Y-60220158D01*
X100035371Y-60203445D01*
X100077178Y-60121654D01*
X100097886Y-60064449D01*
X100097238Y-60049904D01*
G37*
X100097238Y-60049904D02*
X100071058Y-60065036D01*
X100017480Y-60125853D01*
X99942470Y-60224011D01*
X99851994Y-60351166D01*
X99752020Y-60498976D01*
X99648513Y-60659096D01*
X99564544Y-60794792D01*
X99476516Y-60933358D01*
X99388418Y-61060317D01*
X99311216Y-61160498D01*
X99261362Y-61214143D01*
X99193193Y-61267375D01*
X99119558Y-61307679D01*
X99031240Y-61336420D01*
X98919023Y-61354962D01*
X98773691Y-61364669D01*
X98586028Y-61366907D01*
X98346817Y-61363040D01*
X98269147Y-61361044D01*
X98024884Y-61355214D01*
X97753695Y-61350052D01*
X97480595Y-61345955D01*
X97230598Y-61343315D01*
X97099438Y-61342588D01*
X96877739Y-61340351D01*
X96716042Y-61334949D01*
X96610917Y-61326151D01*
X96558933Y-61313722D01*
X96551750Y-61305345D01*
X96571247Y-61256468D01*
X96624116Y-61171163D01*
X96701923Y-61060799D01*
X96796237Y-60936746D01*
X96898625Y-60810373D01*
X97000653Y-60693051D01*
X97027438Y-60663980D01*
X97113571Y-60566256D01*
X97181201Y-60478982D01*
X97218953Y-60417196D01*
X97222775Y-60405759D01*
X97258679Y-60342357D01*
X97342374Y-60253846D01*
X97466071Y-60145827D01*
X97621983Y-60023904D01*
X97802321Y-59893677D01*
X97999298Y-59760750D01*
X98205125Y-59630725D01*
X98412014Y-59509204D01*
X98612177Y-59401789D01*
X98633104Y-59391248D01*
X98774202Y-59324883D01*
X98940951Y-59253060D01*
X99121187Y-59180295D01*
X99302749Y-59111101D01*
X99473472Y-59049993D01*
X99621193Y-59001488D01*
X99733751Y-58970099D01*
X99794300Y-58960218D01*
X99857219Y-58937054D01*
X99885501Y-58912125D01*
X99910511Y-58873524D01*
X99908139Y-58864500D01*
X99868423Y-58858167D01*
X99780476Y-58840933D01*
X99656570Y-58815444D01*
X99508976Y-58784349D01*
X99349966Y-58750295D01*
X99191814Y-58715928D01*
X99046789Y-58683897D01*
X98927165Y-58656849D01*
X98845214Y-58637431D01*
X98813218Y-58628301D01*
X98832298Y-58612312D01*
X98893955Y-58586708D01*
X98916812Y-58578854D01*
X98992953Y-58546465D01*
X99022014Y-58506850D01*
X99022127Y-58460525D01*
X98998422Y-58399643D01*
X98934836Y-58352627D01*
X98879141Y-58328300D01*
X98785103Y-58286778D01*
X98678464Y-58232435D01*
X98574455Y-58174058D01*
X98488305Y-58120433D01*
X98435245Y-58080346D01*
X98425631Y-58066665D01*
X98451257Y-58042220D01*
X98514425Y-58009708D01*
X98520765Y-58007038D01*
X98583070Y-57973913D01*
X98592328Y-57942300D01*
X98580377Y-57923811D01*
X98528330Y-57885879D01*
X98503885Y-57880250D01*
X98457843Y-57851671D01*
X98429777Y-57777126D01*
X98425000Y-57720526D01*
X98406869Y-57678763D01*
X98345517Y-57640847D01*
X98247077Y-57605160D01*
X98097360Y-57539939D01*
X97956679Y-57448818D01*
X97930951Y-57427423D01*
X97693069Y-57248560D01*
X97424900Y-57107610D01*
X97141492Y-57005359D01*
X96987191Y-56955451D01*
X96886973Y-56913744D01*
X96832584Y-56876345D01*
X96817978Y-56852757D01*
X96786282Y-56796093D01*
X96725425Y-56715488D01*
X96674880Y-56657354D01*
X96551222Y-56523201D01*
X96670549Y-56504334D01*
X96729911Y-56499850D01*
X96844525Y-56495657D01*
X97006141Y-56491892D01*
X97206510Y-56488691D01*
X97437385Y-56486192D01*
X97690515Y-56484531D01*
X97901408Y-56483901D01*
X98221800Y-56483129D01*
X98485673Y-56483292D01*
X98699994Y-56486625D01*
X98871728Y-56495361D01*
X99007843Y-56511736D01*
X99115307Y-56537985D01*
X99201085Y-56576341D01*
X99272146Y-56629041D01*
X99335455Y-56698318D01*
X99397980Y-56786407D01*
X99466688Y-56895542D01*
X99536250Y-57008284D01*
X99660997Y-57205059D01*
X99778556Y-57384056D01*
X99884001Y-57538287D01*
X99972409Y-57660768D01*
X100038853Y-57744513D01*
X100078411Y-57782534D01*
X100083136Y-57784075D01*
X100086205Y-57759082D01*
X100061683Y-57688749D01*
X100014499Y-57582278D01*
X99949580Y-57448871D01*
X99871856Y-57297728D01*
X99786255Y-57138052D01*
X99697703Y-56979044D01*
X99611131Y-56829907D01*
X99531466Y-56699841D01*
X99463636Y-56598048D01*
X99414641Y-56535905D01*
X99329887Y-56461539D01*
X99226493Y-56390739D01*
X99202875Y-56377335D01*
X99168331Y-56359896D01*
X99131490Y-56345624D01*
X99085798Y-56334133D01*
X99024699Y-56325037D01*
X98941638Y-56317953D01*
X98830058Y-56312493D01*
X98683405Y-56308275D01*
X98495123Y-56304912D01*
X98258656Y-56302019D01*
X97967449Y-56299211D01*
X97856157Y-56298220D01*
X97520515Y-56295576D01*
X97241955Y-56294537D01*
X97014067Y-56295746D01*
X96830439Y-56299843D01*
X96684663Y-56307469D01*
X96570327Y-56319268D01*
X96481021Y-56335879D01*
X96410334Y-56357945D01*
X96351856Y-56386106D01*
X96299176Y-56421005D01*
X96251288Y-56458817D01*
X96216703Y-56487567D01*
X96185850Y-56515452D01*
X96155238Y-56547937D01*
X96121379Y-56590486D01*
X96080782Y-56648563D01*
X96029956Y-56727635D01*
X95965413Y-56833165D01*
X95883661Y-56970620D01*
X95781211Y-57145462D01*
X95654574Y-57363158D01*
X95500258Y-57629173D01*
X95464608Y-57690652D01*
X95300548Y-57975010D01*
X95166875Y-58211313D01*
X95061203Y-58405899D01*
X94981148Y-58565102D01*
X94924324Y-58695257D01*
X94888345Y-58802702D01*
X94870825Y-58893770D01*
X94869380Y-58974798D01*
X94881624Y-59052121D01*
X94905171Y-59132075D01*
X94913214Y-59155093D01*
X94946184Y-59228880D01*
X95006948Y-59346876D01*
X95090867Y-59501231D01*
X95193302Y-59684092D01*
X95309615Y-59887609D01*
X95435167Y-60103928D01*
X95565320Y-60325200D01*
X95695434Y-60543572D01*
X95820871Y-60751192D01*
X95936992Y-60940209D01*
X96039159Y-61102771D01*
X96122732Y-61231027D01*
X96183073Y-61317125D01*
X96208614Y-61347727D01*
X96263195Y-61398619D01*
X96317004Y-61440597D01*
X96376428Y-61474422D01*
X96447854Y-61500856D01*
X96537667Y-61520661D01*
X96652253Y-61534596D01*
X96797999Y-61543425D01*
X96981290Y-61547908D01*
X97208513Y-61548807D01*
X97486055Y-61546882D01*
X97820300Y-61542896D01*
X97843113Y-61542597D01*
X98188603Y-61538346D01*
X98477236Y-61533644D01*
X98715615Y-61525751D01*
X98910341Y-61511924D01*
X99068016Y-61489424D01*
X99195243Y-61455508D01*
X99298623Y-61407435D01*
X99384759Y-61342463D01*
X99460252Y-61257851D01*
X99531705Y-61150858D01*
X99605719Y-61018743D01*
X99688897Y-60858763D01*
X99743163Y-60753625D01*
X99826770Y-60593431D01*
X99907012Y-60441267D01*
X99976038Y-60311916D01*
X100025998Y-60220158D01*
X100035371Y-60203445D01*
X100077178Y-60121654D01*
X100097886Y-60064449D01*
X100097238Y-60049904D01*
D12*
%TO.C,SW1*%
X44411852Y-67339440D02*
X45189850Y-67202258D01*
X46388023Y-73997431D02*
X45610025Y-74134613D01*
X47100822Y-71993206D02*
X46805620Y-70319033D01*
X44511180Y-73719113D02*
X43521385Y-68105709D01*
X42763245Y-71234898D02*
X44033647Y-71010892D01*
X42747449Y-72354653D02*
X42591165Y-71468326D01*
X44259390Y-72291142D02*
X42988988Y-72515148D01*
X42763245Y-71234898D02*
X42591165Y-71468326D01*
X42988988Y-72515148D02*
X42747449Y-72354653D01*
X46579877Y-69038783D02*
X46545148Y-68841822D01*
%TO.C,BT1*%
X82120000Y-80430000D02*
X82120000Y-79430000D01*
X81920000Y-80980000D02*
X82120000Y-80430000D01*
X60120000Y-80430000D02*
X60120000Y-79430000D01*
X60370000Y-80980000D02*
X60120000Y-80430000D01*
X60120000Y-65430000D02*
X60120000Y-70430000D01*
X60570000Y-65430000D02*
X60120000Y-65430000D01*
X82120000Y-65430000D02*
X82120000Y-70430000D01*
X81670000Y-65430000D02*
X82120000Y-65430000D01*
X60570000Y-65430000D02*
X67270000Y-65430000D01*
X81670000Y-65430000D02*
X74970000Y-65430000D01*
X67170000Y-85780000D02*
X60370000Y-80980000D01*
X75070000Y-85780000D02*
X67170000Y-85780000D01*
X81920000Y-80980000D02*
X75070000Y-85780000D01*
X74966385Y-65428536D02*
G75*
G03*
X67270000Y-65430000I-3846385J-9501464D01*
G01*
D13*
%TO.C,D3*%
X67485000Y-97979000D02*
X67485000Y-99379000D01*
X71488261Y-99434580D02*
G75*
G02*
X69485000Y-99441000I-1003261J505580D01*
G01*
%TO.C,D4*%
X67597534Y-117102186D02*
X68855845Y-116488466D01*
X67150887Y-112865995D02*
G75*
G02*
X68034828Y-114663699I-14612J-1123356D01*
G01*
%TO.C,D5*%
X68481351Y-141534473D02*
X69717478Y-140877213D01*
X67887135Y-137316449D02*
G75*
G02*
X68833278Y-139082210I24602J-1123183D01*
G01*
%TO.C,D6*%
X76623807Y-123213760D02*
X75325750Y-122689311D01*
X73774570Y-126380248D02*
G75*
G02*
X74519051Y-124520453I844593J740813D01*
G01*
%TO.C,D2*%
X83772000Y-87568000D02*
X83772000Y-86168000D01*
X79768739Y-86112420D02*
G75*
G02*
X81772000Y-86106000I1003261J-505580D01*
G01*
%TO.C,D1*%
X64722000Y-87568000D02*
X64722000Y-86168000D01*
X60718739Y-86112420D02*
G75*
G02*
X62722000Y-86106000I1003261J-505580D01*
G01*
D12*
%TO.C,R3*%
X53192000Y-96485064D02*
X53192000Y-95030936D01*
X55012000Y-96485064D02*
X55012000Y-95030936D01*
%TO.C,R8*%
X53065000Y-101565064D02*
X53065000Y-100110936D01*
X54885000Y-101565064D02*
X54885000Y-100110936D01*
%TO.C,R1*%
X67090936Y-85958000D02*
X68545064Y-85958000D01*
X67090936Y-87778000D02*
X68545064Y-87778000D01*
%TO.C,R2*%
X86394936Y-85958000D02*
X87849064Y-85958000D01*
X86394936Y-87778000D02*
X87849064Y-87778000D01*
%TO.C,R5*%
X62893550Y-116437455D02*
X62396209Y-115071022D01*
X64603791Y-115814978D02*
X64106450Y-114448545D01*
%TO.C,R6*%
X61966530Y-133820520D02*
X61351989Y-132502633D01*
X63616011Y-133051355D02*
X63001470Y-131733468D01*
%TO.C,R7*%
X79865922Y-126374022D02*
X79368581Y-127740455D01*
X78155681Y-125751545D02*
X77658340Y-127117978D01*
%TO.C,R4*%
X69630936Y-94721000D02*
X71085064Y-94721000D01*
X69630936Y-96541000D02*
X71085064Y-96541000D01*
%TO.C,SW2*%
X97338541Y-73622794D02*
X96575459Y-73418327D01*
X98361311Y-66753439D02*
X99124392Y-66957906D01*
X96868274Y-68268641D02*
X96428281Y-69910715D01*
X99944686Y-67798868D02*
X98469417Y-73304646D01*
X100478978Y-70789041D02*
X99232934Y-70455164D01*
X100966523Y-69780875D02*
X100733586Y-70650208D01*
X99569398Y-69199461D02*
X100815443Y-69533337D01*
X100478978Y-70789041D02*
X100733586Y-70650208D01*
X100815443Y-69533337D02*
X100966523Y-69780875D01*
X96091816Y-71166419D02*
X96040053Y-71359604D01*
D13*
%TO.C,U1*%
X84466000Y-99146000D02*
X82666000Y-99146000D01*
X82666000Y-95926000D02*
X84466000Y-95926000D01*
D14*
X80766000Y-98536000D02*
G75*
G03*
X80766000Y-98536000I-200000J0D01*
G01*
D12*
%TO.C,C1*%
X87482000Y-97231252D02*
X87482000Y-95808748D01*
X89302000Y-97231252D02*
X89302000Y-95808748D01*
%TO.C,Q1*%
X58482000Y-96158000D02*
X58482000Y-95358000D01*
X59882000Y-94258000D02*
X58482000Y-94258000D01*
X59882000Y-97258000D02*
X58482000Y-97258000D01*
X59882000Y-97258000D02*
X59882000Y-96408000D01*
X59882000Y-94258000D02*
X59882000Y-95108000D01*
%TO.C,Q2*%
X58482000Y-101238000D02*
X58482000Y-100438000D01*
X59882000Y-99338000D02*
X58482000Y-99338000D01*
X59882000Y-102338000D02*
X58482000Y-102338000D01*
X59882000Y-102338000D02*
X59882000Y-101488000D01*
X59882000Y-99338000D02*
X59882000Y-100188000D01*
%TO.C,J1*%
D13*
X83312000Y-110163428D02*
X83312000Y-111252000D01*
X83384571Y-111469714D01*
X83529714Y-111614857D01*
X83747428Y-111687428D01*
X83892571Y-111687428D01*
X81788000Y-111687428D02*
X82658857Y-111687428D01*
X82223428Y-111687428D02*
X82223428Y-110163428D01*
X82368571Y-110381142D01*
X82513714Y-110526285D01*
X82658857Y-110598857D01*
%TO.C,SW1*%
X49656367Y-71958245D02*
X49547092Y-71756440D01*
X49484083Y-71399096D01*
X49530348Y-71243556D01*
X49589215Y-71159485D01*
X49719551Y-71062812D01*
X49862489Y-71037609D01*
X50018028Y-71083874D01*
X50102099Y-71142741D01*
X50198772Y-71273077D01*
X50320648Y-71546350D01*
X50417321Y-71676686D01*
X50501392Y-71735553D01*
X50656932Y-71781818D01*
X50799869Y-71756615D01*
X50930205Y-71659942D01*
X50989072Y-71575871D01*
X51035337Y-71420331D01*
X50972328Y-71062987D01*
X50863053Y-70861182D01*
X50846309Y-70348298D02*
X49282452Y-70255593D01*
X50304078Y-69780689D01*
X49181637Y-69683842D01*
X50619475Y-69061858D01*
X48879192Y-67968588D02*
X49030415Y-68826215D01*
X48954803Y-68397402D02*
X50455650Y-68132762D01*
X50266447Y-68313505D01*
X50148713Y-68481647D01*
X50102448Y-68637187D01*
%TO.C,BT1*%
X85525428Y-81171142D02*
X85307714Y-81243714D01*
X85235142Y-81316285D01*
X85162571Y-81461428D01*
X85162571Y-81679142D01*
X85235142Y-81824285D01*
X85307714Y-81896857D01*
X85452857Y-81969428D01*
X86033428Y-81969428D01*
X86033428Y-80445428D01*
X85525428Y-80445428D01*
X85380285Y-80518000D01*
X85307714Y-80590571D01*
X85235142Y-80735714D01*
X85235142Y-80880857D01*
X85307714Y-81026000D01*
X85380285Y-81098571D01*
X85525428Y-81171142D01*
X86033428Y-81171142D01*
X84727142Y-80445428D02*
X83856285Y-80445428D01*
X84291714Y-81969428D02*
X84291714Y-80445428D01*
X82550000Y-81969428D02*
X83420857Y-81969428D01*
X82985428Y-81969428D02*
X82985428Y-80445428D01*
X83130571Y-80663142D01*
X83275714Y-80808285D01*
X83420857Y-80880857D01*
%TO.C,D3*%
X76181857Y-99241428D02*
X76181857Y-97717428D01*
X75819000Y-97717428D01*
X75601285Y-97790000D01*
X75456142Y-97935142D01*
X75383571Y-98080285D01*
X75311000Y-98370571D01*
X75311000Y-98588285D01*
X75383571Y-98878571D01*
X75456142Y-99023714D01*
X75601285Y-99168857D01*
X75819000Y-99241428D01*
X76181857Y-99241428D01*
X74803000Y-97717428D02*
X73859571Y-97717428D01*
X74367571Y-98298000D01*
X74149857Y-98298000D01*
X74004714Y-98370571D01*
X73932142Y-98443142D01*
X73859571Y-98588285D01*
X73859571Y-98951142D01*
X73932142Y-99096285D01*
X74004714Y-99168857D01*
X74149857Y-99241428D01*
X74585285Y-99241428D01*
X74730428Y-99168857D01*
X74803000Y-99096285D01*
%TO.C,D4*%
X64262450Y-111549240D02*
X65632212Y-110881162D01*
X65473146Y-110555029D01*
X65312480Y-110391161D01*
X65118400Y-110324334D01*
X64956133Y-110322734D01*
X64663413Y-110384760D01*
X64467732Y-110480200D01*
X64238639Y-110672679D01*
X64139998Y-110801533D01*
X64073171Y-110995613D01*
X64103384Y-111223106D01*
X64262450Y-111549240D01*
X64221228Y-109147052D02*
X63308054Y-109592437D01*
X64902109Y-109218680D02*
X64082773Y-110022012D01*
X63669201Y-109174064D01*
%TO.C,D5*%
X65832359Y-135428858D02*
X67177971Y-134713383D01*
X67007620Y-134392999D01*
X66841332Y-134234839D01*
X66645038Y-134174826D01*
X66482814Y-134178890D01*
X66192437Y-134251094D01*
X66000207Y-134353304D01*
X65777970Y-134553662D01*
X65683887Y-134685879D01*
X65623874Y-134882173D01*
X65662008Y-135108474D01*
X65832359Y-135428858D01*
X66121794Y-132727003D02*
X66462496Y-133367771D01*
X65855799Y-133772550D01*
X65885805Y-133674403D01*
X65881742Y-133512179D01*
X65711390Y-133191795D01*
X65579173Y-133097712D01*
X65481026Y-133067705D01*
X65318802Y-133071769D01*
X64998419Y-133242120D01*
X64904335Y-133374337D01*
X64874329Y-133472484D01*
X64878392Y-133634708D01*
X65048744Y-133955092D01*
X65180961Y-134049175D01*
X65279108Y-134079182D01*
%TO.C,D6*%
X78403605Y-119992315D02*
X76990577Y-119421414D01*
X76854649Y-119757849D01*
X76840378Y-119986896D01*
X76920581Y-120175842D01*
X77027969Y-120297500D01*
X77269932Y-120473530D01*
X77471793Y-120555088D01*
X77768127Y-120596544D01*
X77929887Y-120583628D01*
X78118833Y-120503425D01*
X78267677Y-120328750D01*
X78403605Y-119992315D01*
X76175005Y-121440026D02*
X76283748Y-121170878D01*
X76405407Y-121063489D01*
X76499879Y-121023388D01*
X76756112Y-120970371D01*
X77052446Y-121011827D01*
X77590743Y-121229313D01*
X77698131Y-121350971D01*
X77738232Y-121445444D01*
X77751148Y-121607204D01*
X77642405Y-121876352D01*
X77520746Y-121983741D01*
X77426274Y-122023842D01*
X77264514Y-122036757D01*
X76928078Y-121900829D01*
X76820690Y-121779170D01*
X76780589Y-121684697D01*
X76767673Y-121522938D01*
X76876416Y-121253789D01*
X76998075Y-121146401D01*
X77092547Y-121106300D01*
X77254307Y-121093384D01*
%TO.C,D2*%
X81896857Y-90224428D02*
X81896857Y-88700428D01*
X81534000Y-88700428D01*
X81316285Y-88773000D01*
X81171142Y-88918142D01*
X81098571Y-89063285D01*
X81026000Y-89353571D01*
X81026000Y-89571285D01*
X81098571Y-89861571D01*
X81171142Y-90006714D01*
X81316285Y-90151857D01*
X81534000Y-90224428D01*
X81896857Y-90224428D01*
X80445428Y-88845571D02*
X80372857Y-88773000D01*
X80227714Y-88700428D01*
X79864857Y-88700428D01*
X79719714Y-88773000D01*
X79647142Y-88845571D01*
X79574571Y-88990714D01*
X79574571Y-89135857D01*
X79647142Y-89353571D01*
X80518000Y-90224428D01*
X79574571Y-90224428D01*
%TO.C,D1*%
X62719857Y-89843428D02*
X62719857Y-88319428D01*
X62357000Y-88319428D01*
X62139285Y-88392000D01*
X61994142Y-88537142D01*
X61921571Y-88682285D01*
X61849000Y-88972571D01*
X61849000Y-89190285D01*
X61921571Y-89480571D01*
X61994142Y-89625714D01*
X62139285Y-89770857D01*
X62357000Y-89843428D01*
X62719857Y-89843428D01*
X60397571Y-89843428D02*
X61268428Y-89843428D01*
X60833000Y-89843428D02*
X60833000Y-88319428D01*
X60978142Y-88537142D01*
X61123285Y-88682285D01*
X61268428Y-88754857D01*
%TO.C,R3*%
X54791428Y-91186000D02*
X54065714Y-90678000D01*
X54791428Y-90315142D02*
X53267428Y-90315142D01*
X53267428Y-90895714D01*
X53340000Y-91040857D01*
X53412571Y-91113428D01*
X53557714Y-91186000D01*
X53775428Y-91186000D01*
X53920571Y-91113428D01*
X53993142Y-91040857D01*
X54065714Y-90895714D01*
X54065714Y-90315142D01*
X53267428Y-91694000D02*
X53267428Y-92637428D01*
X53848000Y-92129428D01*
X53848000Y-92347142D01*
X53920571Y-92492285D01*
X53993142Y-92564857D01*
X54138285Y-92637428D01*
X54501142Y-92637428D01*
X54646285Y-92564857D01*
X54718857Y-92492285D01*
X54791428Y-92347142D01*
X54791428Y-91911714D01*
X54718857Y-91766571D01*
X54646285Y-91694000D01*
X52971428Y-94850857D02*
X52971428Y-93980000D01*
X52971428Y-94415428D02*
X51447428Y-94415428D01*
X51665142Y-94270285D01*
X51810285Y-94125142D01*
X51882857Y-93980000D01*
X51447428Y-95794285D02*
X51447428Y-95939428D01*
X51520000Y-96084571D01*
X51592571Y-96157142D01*
X51737714Y-96229714D01*
X52028000Y-96302285D01*
X52390857Y-96302285D01*
X52681142Y-96229714D01*
X52826285Y-96157142D01*
X52898857Y-96084571D01*
X52971428Y-95939428D01*
X52971428Y-95794285D01*
X52898857Y-95649142D01*
X52826285Y-95576571D01*
X52681142Y-95504000D01*
X52390857Y-95431428D01*
X52028000Y-95431428D01*
X51737714Y-95504000D01*
X51592571Y-95576571D01*
X51520000Y-95649142D01*
X51447428Y-95794285D01*
X52971428Y-96955428D02*
X51447428Y-96955428D01*
X52390857Y-97100571D02*
X52971428Y-97536000D01*
X51955428Y-97536000D02*
X52536000Y-96955428D01*
%TO.C,R8*%
X54664428Y-104775000D02*
X53938714Y-104267000D01*
X54664428Y-103904142D02*
X53140428Y-103904142D01*
X53140428Y-104484714D01*
X53213000Y-104629857D01*
X53285571Y-104702428D01*
X53430714Y-104775000D01*
X53648428Y-104775000D01*
X53793571Y-104702428D01*
X53866142Y-104629857D01*
X53938714Y-104484714D01*
X53938714Y-103904142D01*
X53793571Y-105645857D02*
X53721000Y-105500714D01*
X53648428Y-105428142D01*
X53503285Y-105355571D01*
X53430714Y-105355571D01*
X53285571Y-105428142D01*
X53213000Y-105500714D01*
X53140428Y-105645857D01*
X53140428Y-105936142D01*
X53213000Y-106081285D01*
X53285571Y-106153857D01*
X53430714Y-106226428D01*
X53503285Y-106226428D01*
X53648428Y-106153857D01*
X53721000Y-106081285D01*
X53793571Y-105936142D01*
X53793571Y-105645857D01*
X53866142Y-105500714D01*
X53938714Y-105428142D01*
X54083857Y-105355571D01*
X54374142Y-105355571D01*
X54519285Y-105428142D01*
X54591857Y-105500714D01*
X54664428Y-105645857D01*
X54664428Y-105936142D01*
X54591857Y-106081285D01*
X54519285Y-106153857D01*
X54374142Y-106226428D01*
X54083857Y-106226428D01*
X53938714Y-106153857D01*
X53866142Y-106081285D01*
X53793571Y-105936142D01*
X52844428Y-99930857D02*
X52844428Y-99060000D01*
X52844428Y-99495428D02*
X51320428Y-99495428D01*
X51538142Y-99350285D01*
X51683285Y-99205142D01*
X51755857Y-99060000D01*
X51320428Y-100874285D02*
X51320428Y-101019428D01*
X51393000Y-101164571D01*
X51465571Y-101237142D01*
X51610714Y-101309714D01*
X51901000Y-101382285D01*
X52263857Y-101382285D01*
X52554142Y-101309714D01*
X52699285Y-101237142D01*
X52771857Y-101164571D01*
X52844428Y-101019428D01*
X52844428Y-100874285D01*
X52771857Y-100729142D01*
X52699285Y-100656571D01*
X52554142Y-100584000D01*
X52263857Y-100511428D01*
X51901000Y-100511428D01*
X51610714Y-100584000D01*
X51465571Y-100656571D01*
X51393000Y-100729142D01*
X51320428Y-100874285D01*
X52844428Y-102035428D02*
X51320428Y-102035428D01*
X52263857Y-102180571D02*
X52844428Y-102616000D01*
X51828428Y-102616000D02*
X52409000Y-102035428D01*
%TO.C,R1*%
X67945000Y-89970428D02*
X68453000Y-89244714D01*
X68815857Y-89970428D02*
X68815857Y-88446428D01*
X68235285Y-88446428D01*
X68090142Y-88519000D01*
X68017571Y-88591571D01*
X67945000Y-88736714D01*
X67945000Y-88954428D01*
X68017571Y-89099571D01*
X68090142Y-89172142D01*
X68235285Y-89244714D01*
X68815857Y-89244714D01*
X66493571Y-89970428D02*
X67364428Y-89970428D01*
X66929000Y-89970428D02*
X66929000Y-88446428D01*
X67074142Y-88664142D01*
X67219285Y-88809285D01*
X67364428Y-88881857D01*
%TO.C,R2*%
X87376000Y-90351428D02*
X87884000Y-89625714D01*
X88246857Y-90351428D02*
X88246857Y-88827428D01*
X87666285Y-88827428D01*
X87521142Y-88900000D01*
X87448571Y-88972571D01*
X87376000Y-89117714D01*
X87376000Y-89335428D01*
X87448571Y-89480571D01*
X87521142Y-89553142D01*
X87666285Y-89625714D01*
X88246857Y-89625714D01*
X86795428Y-88972571D02*
X86722857Y-88900000D01*
X86577714Y-88827428D01*
X86214857Y-88827428D01*
X86069714Y-88900000D01*
X85997142Y-88972571D01*
X85924571Y-89117714D01*
X85924571Y-89262857D01*
X85997142Y-89480571D01*
X86868000Y-90351428D01*
X85924571Y-90351428D01*
%TO.C,R5*%
X61034022Y-112234480D02*
X61889716Y-112463635D01*
X61331872Y-113052818D02*
X62763964Y-112531579D01*
X62565397Y-111986021D01*
X62447560Y-111874452D01*
X62354544Y-111831078D01*
X62193334Y-111812525D01*
X61988749Y-111886987D01*
X61877181Y-112004824D01*
X61833807Y-112097840D01*
X61815254Y-112259050D01*
X62013821Y-112804609D01*
X61994516Y-110417539D02*
X62242725Y-111099488D01*
X61585598Y-111415891D01*
X61628972Y-111322876D01*
X61647525Y-111161665D01*
X61523420Y-110820691D01*
X61405584Y-110709122D01*
X61312568Y-110665748D01*
X61151357Y-110647195D01*
X60810383Y-110771300D01*
X60698814Y-110889136D01*
X60655440Y-110982152D01*
X60636887Y-111143363D01*
X60760992Y-111484337D01*
X60878828Y-111595905D01*
X60971844Y-111639279D01*
%TO.C,R6*%
X59807510Y-129426567D02*
X60679921Y-129580271D01*
X60175550Y-130215831D02*
X61556763Y-129571761D01*
X61311403Y-129045585D01*
X61184291Y-128944711D01*
X61087849Y-128909609D01*
X60925635Y-128905177D01*
X60728319Y-128997187D01*
X60627445Y-129124299D01*
X60592343Y-129220741D01*
X60587911Y-129382955D01*
X60833271Y-129909131D01*
X60636663Y-127598600D02*
X60759343Y-127861688D01*
X60754911Y-128023902D01*
X60719809Y-128120344D01*
X60583833Y-128343898D01*
X60351415Y-128532350D01*
X59825238Y-128777710D01*
X59663024Y-128773278D01*
X59566582Y-128738176D01*
X59439470Y-128637302D01*
X59316790Y-128374214D01*
X59321222Y-128212000D01*
X59356324Y-128115558D01*
X59457198Y-127988446D01*
X59786058Y-127835096D01*
X59948272Y-127839528D01*
X60044714Y-127874630D01*
X60171827Y-127975504D01*
X60294507Y-128238592D01*
X60290075Y-128400806D01*
X60254973Y-128497248D01*
X60154098Y-128624360D01*
%TO.C,R7*%
X81506724Y-122425116D02*
X80998521Y-121699543D01*
X81804574Y-121606778D02*
X80372483Y-121085539D01*
X80173916Y-121631098D01*
X80192469Y-121792309D01*
X80235843Y-121885324D01*
X80347411Y-122003161D01*
X80551996Y-122077624D01*
X80713206Y-122059071D01*
X80806222Y-122015697D01*
X80924059Y-121904128D01*
X81122626Y-121358569D01*
X79900886Y-122381241D02*
X79553393Y-123335969D01*
X81208873Y-123243454D01*
%TO.C,R4*%
X74930000Y-96320428D02*
X75438000Y-95594714D01*
X75800857Y-96320428D02*
X75800857Y-94796428D01*
X75220285Y-94796428D01*
X75075142Y-94869000D01*
X75002571Y-94941571D01*
X74930000Y-95086714D01*
X74930000Y-95304428D01*
X75002571Y-95449571D01*
X75075142Y-95522142D01*
X75220285Y-95594714D01*
X75800857Y-95594714D01*
X73623714Y-95304428D02*
X73623714Y-96320428D01*
X73986571Y-94723857D02*
X74349428Y-95812428D01*
X73406000Y-95812428D01*
%TO.C,SW2*%
X94339758Y-67157893D02*
X94353508Y-67386971D01*
X94259594Y-67737464D01*
X94151929Y-67858879D01*
X94063048Y-67910195D01*
X93904068Y-67942727D01*
X93763871Y-67905162D01*
X93642456Y-67797497D01*
X93591140Y-67708616D01*
X93558608Y-67549636D01*
X93563640Y-67250458D01*
X93531108Y-67091478D01*
X93479792Y-67002597D01*
X93358377Y-66894932D01*
X93218180Y-66857367D01*
X93059200Y-66889900D01*
X92970319Y-66941215D01*
X92862654Y-67062630D01*
X92768740Y-67413123D01*
X92782490Y-67642202D01*
X92580911Y-68114109D02*
X93959068Y-68859042D01*
X92832457Y-68857694D01*
X93808805Y-69419831D01*
X92242820Y-69375884D01*
X92251537Y-69904140D02*
X92162655Y-69955456D01*
X92054991Y-70076870D01*
X91961077Y-70427363D01*
X91993609Y-70586343D01*
X92044925Y-70675225D01*
X92166340Y-70782889D01*
X92306537Y-70820455D01*
X92535616Y-70806705D01*
X93602193Y-70190916D01*
X93358016Y-71102198D01*
%TO.C,U1*%
X84727142Y-99601428D02*
X84727142Y-100835142D01*
X84654571Y-100980285D01*
X84582000Y-101052857D01*
X84436857Y-101125428D01*
X84146571Y-101125428D01*
X84001428Y-101052857D01*
X83928857Y-100980285D01*
X83856285Y-100835142D01*
X83856285Y-99601428D01*
X82332285Y-101125428D02*
X83203142Y-101125428D01*
X82767714Y-101125428D02*
X82767714Y-99601428D01*
X82912857Y-99819142D01*
X83058000Y-99964285D01*
X83203142Y-100036857D01*
%TO.C,C1*%
X91095285Y-92456000D02*
X91167857Y-92383428D01*
X91240428Y-92165714D01*
X91240428Y-92020571D01*
X91167857Y-91802857D01*
X91022714Y-91657714D01*
X90877571Y-91585142D01*
X90587285Y-91512571D01*
X90369571Y-91512571D01*
X90079285Y-91585142D01*
X89934142Y-91657714D01*
X89789000Y-91802857D01*
X89716428Y-92020571D01*
X89716428Y-92165714D01*
X89789000Y-92383428D01*
X89861571Y-92456000D01*
X91240428Y-93907428D02*
X91240428Y-93036571D01*
X91240428Y-93472000D02*
X89716428Y-93472000D01*
X89934142Y-93326857D01*
X90079285Y-93181714D01*
X90151857Y-93036571D01*
%TO.C,Q1*%
X61867142Y-94433571D02*
X62012285Y-94361000D01*
X62157428Y-94215857D01*
X62375142Y-93998142D01*
X62520285Y-93925571D01*
X62665428Y-93925571D01*
X62592857Y-94288428D02*
X62738000Y-94215857D01*
X62883142Y-94070714D01*
X62955714Y-93780428D01*
X62955714Y-93272428D01*
X62883142Y-92982142D01*
X62738000Y-92837000D01*
X62592857Y-92764428D01*
X62302571Y-92764428D01*
X62157428Y-92837000D01*
X62012285Y-92982142D01*
X61939714Y-93272428D01*
X61939714Y-93780428D01*
X62012285Y-94070714D01*
X62157428Y-94215857D01*
X62302571Y-94288428D01*
X62592857Y-94288428D01*
X60488285Y-94288428D02*
X61359142Y-94288428D01*
X60923714Y-94288428D02*
X60923714Y-92764428D01*
X61068857Y-92982142D01*
X61214000Y-93127285D01*
X61359142Y-93199857D01*
%TO.C,Q2*%
X62121142Y-99767571D02*
X62266285Y-99695000D01*
X62411428Y-99549857D01*
X62629142Y-99332142D01*
X62774285Y-99259571D01*
X62919428Y-99259571D01*
X62846857Y-99622428D02*
X62992000Y-99549857D01*
X63137142Y-99404714D01*
X63209714Y-99114428D01*
X63209714Y-98606428D01*
X63137142Y-98316142D01*
X62992000Y-98171000D01*
X62846857Y-98098428D01*
X62556571Y-98098428D01*
X62411428Y-98171000D01*
X62266285Y-98316142D01*
X62193714Y-98606428D01*
X62193714Y-99114428D01*
X62266285Y-99404714D01*
X62411428Y-99549857D01*
X62556571Y-99622428D01*
X62846857Y-99622428D01*
X61613142Y-98243571D02*
X61540571Y-98171000D01*
X61395428Y-98098428D01*
X61032571Y-98098428D01*
X60887428Y-98171000D01*
X60814857Y-98243571D01*
X60742285Y-98388714D01*
X60742285Y-98533857D01*
X60814857Y-98751571D01*
X61685714Y-99622428D01*
X60742285Y-99622428D01*
%TD*%
M02*
