%TF.GenerationSoftware,KiCad,Pcbnew,(5.1.8)-1*%
%TF.CreationDate,2021-11-12T17:25:14-08:00*%
%TF.ProjectId,Krampus,4b72616d-7075-4732-9e6b-696361645f70,rev?*%
%TF.SameCoordinates,Original*%
%TF.FileFunction,Soldermask,Top*%
%TF.FilePolarity,Negative*%
%FSLAX46Y46*%
G04 Gerber Fmt 4.6, Leading zero omitted, Abs format (unit mm)*
G04 Created by KiCad (PCBNEW (5.1.8)-1) date 2021-11-12 17:25:14*
%MOMM*%
%LPD*%
G01*
G04 APERTURE LIST*
%ADD10C,0.010000*%
%ADD11C,0.900000*%
%ADD12C,1.500000*%
G04 APERTURE END LIST*
D10*
%TO.C,G5*%
G36*
X89096730Y-32512493D02*
G01*
X89842210Y-32581679D01*
X90501265Y-32700029D01*
X90805000Y-32786195D01*
X91726368Y-33177156D01*
X92575032Y-33691600D01*
X93314518Y-34301489D01*
X93908349Y-34978785D01*
X94154667Y-35361003D01*
X94355885Y-35676419D01*
X94590911Y-35942655D01*
X94910373Y-36209164D01*
X95307864Y-36487411D01*
X96059074Y-37038957D01*
X96669906Y-37609755D01*
X97198831Y-38260860D01*
X97606381Y-38887400D01*
X97861954Y-39281093D01*
X98211061Y-39774469D01*
X98614099Y-40313698D01*
X99031469Y-40844951D01*
X99182473Y-41029772D01*
X99961635Y-42003215D01*
X100607885Y-42877877D01*
X101114849Y-43644432D01*
X101476152Y-44293552D01*
X101596557Y-44562134D01*
X101704624Y-44866031D01*
X101775122Y-45175205D01*
X101816028Y-45547116D01*
X101835319Y-46039225D01*
X101839015Y-46308721D01*
X101845401Y-46813716D01*
X101861212Y-47166433D01*
X101897618Y-47417788D01*
X101965791Y-47618695D01*
X102076901Y-47820070D01*
X102218126Y-48036685D01*
X102649574Y-48795474D01*
X103017328Y-49655599D01*
X103305781Y-50562498D01*
X103499325Y-51461612D01*
X103582352Y-52298380D01*
X103571118Y-52766274D01*
X103417109Y-53629881D01*
X103116513Y-54468755D01*
X102693257Y-55236525D01*
X102171266Y-55886816D01*
X101784554Y-56228927D01*
X101270252Y-56616600D01*
X101331511Y-57306120D01*
X101383693Y-58118110D01*
X101398299Y-58915303D01*
X101376742Y-59651966D01*
X101320438Y-60282368D01*
X101230801Y-60760777D01*
X101223866Y-60785485D01*
X100917718Y-61581678D01*
X100457178Y-62424846D01*
X99871987Y-63276022D01*
X99191883Y-64096240D01*
X98446606Y-64846534D01*
X97665896Y-65487939D01*
X97597114Y-65537426D01*
X96660988Y-66115067D01*
X95589823Y-66626756D01*
X94447500Y-67048030D01*
X93297897Y-67354426D01*
X92495970Y-67490860D01*
X92131662Y-67558712D01*
X91800741Y-67682589D01*
X91430542Y-67893873D01*
X91188523Y-68055495D01*
X90652052Y-68393859D01*
X90139844Y-68638294D01*
X89578058Y-68817465D01*
X88892850Y-68960034D01*
X88831037Y-68970625D01*
X88292624Y-69033681D01*
X87715910Y-69041152D01*
X87069409Y-68989508D01*
X86321630Y-68875222D01*
X85441087Y-68694764D01*
X84607400Y-68497291D01*
X83890266Y-68323838D01*
X83322558Y-68197981D01*
X82858099Y-68112267D01*
X82450711Y-68059246D01*
X82054219Y-68031465D01*
X81661000Y-68021808D01*
X80639019Y-68072137D01*
X79724481Y-68239631D01*
X78935860Y-68517730D01*
X78291630Y-68899871D01*
X77810265Y-69379495D01*
X77800388Y-69392800D01*
X77516949Y-69715952D01*
X77276229Y-69865167D01*
X77091207Y-69834085D01*
X77034631Y-69768025D01*
X77008951Y-69545277D01*
X77130610Y-69246744D01*
X77373360Y-68902273D01*
X77710953Y-68541710D01*
X78117141Y-68194900D01*
X78565676Y-67891690D01*
X78793901Y-67767610D01*
X79329430Y-67531447D01*
X79856756Y-67371590D01*
X80428350Y-67279382D01*
X81096682Y-67246168D01*
X81864200Y-67261178D01*
X82516816Y-67301909D01*
X83146893Y-67374062D01*
X83821153Y-67487544D01*
X84606317Y-67652262D01*
X84810600Y-67698663D01*
X85471306Y-67846704D01*
X85995262Y-67951678D01*
X86442534Y-68021060D01*
X86873184Y-68062324D01*
X87347279Y-68082942D01*
X87924882Y-68090389D01*
X87960200Y-68090562D01*
X88603518Y-68087946D01*
X89087633Y-68070651D01*
X89456258Y-68034776D01*
X89753103Y-67976417D01*
X89966800Y-67911434D01*
X90258874Y-67796750D01*
X90452617Y-67696039D01*
X90500200Y-67647248D01*
X90406407Y-67605257D01*
X90155611Y-67559344D01*
X89793687Y-67517029D01*
X89611200Y-67501500D01*
X89149322Y-67453669D01*
X88566557Y-67374787D01*
X87940744Y-67276203D01*
X87401400Y-67179309D01*
X86043126Y-66929342D01*
X84854375Y-66739194D01*
X83810420Y-66609036D01*
X82886534Y-66539039D01*
X82057992Y-66529375D01*
X81300066Y-66580213D01*
X80588032Y-66691726D01*
X79897162Y-66864085D01*
X79202731Y-67097460D01*
X78842965Y-67238506D01*
X78260729Y-67466272D01*
X77857861Y-67599853D01*
X77633259Y-67638449D01*
X77585821Y-67581262D01*
X77714445Y-67427494D01*
X78018029Y-67176344D01*
X78384400Y-66906011D01*
X79969740Y-65858712D01*
X80308147Y-65673333D01*
X81378971Y-65673333D01*
X81391028Y-65687590D01*
X81508600Y-65652087D01*
X81683149Y-65622288D01*
X82015660Y-65590430D01*
X82460973Y-65560029D01*
X82973925Y-65534604D01*
X83061512Y-65531147D01*
X83657749Y-65515833D01*
X84191589Y-65522180D01*
X84705514Y-65555469D01*
X85242010Y-65620983D01*
X85843558Y-65724003D01*
X86552643Y-65869813D01*
X87411748Y-66063696D01*
X87489383Y-66081709D01*
X88664701Y-66330160D01*
X89702178Y-66491828D01*
X90646604Y-66569016D01*
X91542769Y-66564026D01*
X92435462Y-66479161D01*
X93099897Y-66370137D01*
X94425333Y-66027721D01*
X95756132Y-65507957D01*
X97046154Y-64830064D01*
X97534007Y-64523172D01*
X97950134Y-64239216D01*
X98190266Y-64053063D01*
X98255568Y-63962991D01*
X98147202Y-63967277D01*
X97866333Y-64064199D01*
X97836124Y-64076031D01*
X97096185Y-64315280D01*
X96253740Y-64486429D01*
X95293039Y-64590148D01*
X94198332Y-64627109D01*
X92953871Y-64597985D01*
X91543906Y-64503447D01*
X90398600Y-64393251D01*
X89073578Y-64270189D01*
X87910087Y-64204792D01*
X86874047Y-64199710D01*
X85931379Y-64257591D01*
X85048001Y-64381084D01*
X84189835Y-64572840D01*
X83322801Y-64835508D01*
X82931000Y-64973758D01*
X82637508Y-65087838D01*
X82315663Y-65223088D01*
X81997174Y-65364385D01*
X81713755Y-65496607D01*
X81497117Y-65604631D01*
X81378971Y-65673333D01*
X80308147Y-65673333D01*
X81528889Y-65004613D01*
X83057910Y-64345570D01*
X84552865Y-63883436D01*
X85030817Y-63775932D01*
X85506054Y-63671891D01*
X85943293Y-63563448D01*
X86280050Y-63466695D01*
X86406125Y-63421688D01*
X86495439Y-63363945D01*
X90769138Y-63363945D01*
X90771528Y-63412634D01*
X90887593Y-63450431D01*
X91140498Y-63485855D01*
X91553411Y-63527425D01*
X92024200Y-63571746D01*
X92783921Y-63618738D01*
X93583354Y-63625038D01*
X94362976Y-63593146D01*
X95063263Y-63525559D01*
X95624694Y-63424773D01*
X95644380Y-63419843D01*
X96661761Y-63058460D01*
X97607699Y-62517321D01*
X98459278Y-61813991D01*
X99193585Y-60966033D01*
X99550007Y-60426190D01*
X99772803Y-60037623D01*
X99909698Y-59739935D01*
X99984728Y-59453114D01*
X100021927Y-59097146D01*
X100036539Y-58806484D01*
X100073279Y-57943686D01*
X99405277Y-58568569D01*
X98874901Y-59012543D01*
X98307508Y-59373077D01*
X97655965Y-59673664D01*
X96873137Y-59937797D01*
X96393000Y-60069976D01*
X95591933Y-60286593D01*
X94943654Y-60489143D01*
X94401341Y-60701603D01*
X93918174Y-60947951D01*
X93447334Y-61252163D01*
X92942001Y-61638217D01*
X92355353Y-62130088D01*
X92333517Y-62148874D01*
X91927088Y-62491780D01*
X91540279Y-62805847D01*
X91218076Y-63055279D01*
X91012717Y-63199819D01*
X90857256Y-63295846D01*
X90769138Y-63363945D01*
X86495439Y-63363945D01*
X86589160Y-63303354D01*
X86828043Y-63108852D01*
X87979849Y-63108852D01*
X88020469Y-63151208D01*
X88223012Y-63123658D01*
X88600217Y-63029951D01*
X88868119Y-62956737D01*
X89557202Y-62738690D01*
X90170198Y-62477907D01*
X90760524Y-62144824D01*
X91381594Y-61709880D01*
X91973400Y-61238154D01*
X92589562Y-60741069D01*
X93130779Y-60343819D01*
X93646148Y-60019946D01*
X94184765Y-59742992D01*
X94795729Y-59486500D01*
X95528136Y-59224013D01*
X96002891Y-59066729D01*
X97006431Y-58724325D01*
X97820404Y-58410493D01*
X98455685Y-58120443D01*
X98923150Y-57849384D01*
X99136508Y-57686099D01*
X99270033Y-57547737D01*
X99249839Y-57508568D01*
X99223315Y-57515118D01*
X99070261Y-57551780D01*
X98755715Y-57619376D01*
X98317639Y-57710010D01*
X97793995Y-57815781D01*
X97445315Y-57885044D01*
X96635787Y-58048662D01*
X95984984Y-58190844D01*
X95451132Y-58323164D01*
X94992454Y-58457199D01*
X94567176Y-58604525D01*
X94133523Y-58776717D01*
X93955560Y-58852060D01*
X92942593Y-59339840D01*
X91941892Y-59934259D01*
X90920344Y-60657407D01*
X89844836Y-61531378D01*
X89535000Y-61801283D01*
X89148162Y-62135546D01*
X88749343Y-62468459D01*
X88409670Y-62740932D01*
X88333417Y-62799429D01*
X88088412Y-62992841D01*
X87979849Y-63108852D01*
X86828043Y-63108852D01*
X86882006Y-63064915D01*
X87254236Y-62733318D01*
X87675426Y-62335512D01*
X88041766Y-61972974D01*
X88579174Y-61448127D01*
X89189970Y-60881495D01*
X89812448Y-60328570D01*
X90384902Y-59844844D01*
X90601800Y-59670767D01*
X91056518Y-59308365D01*
X91470704Y-58968840D01*
X91810152Y-58680933D01*
X92040659Y-58473383D01*
X92106132Y-58406734D01*
X92350781Y-58075788D01*
X92578239Y-57658112D01*
X94077697Y-57658112D01*
X94651148Y-57367243D01*
X94970462Y-57214549D01*
X95226640Y-57108734D01*
X95349420Y-57075087D01*
X95434287Y-56987827D01*
X95587632Y-56747685D01*
X95791619Y-56385736D01*
X95796412Y-56376572D01*
X97576280Y-56376572D01*
X97595059Y-56463713D01*
X97600428Y-56464200D01*
X97733092Y-56434329D01*
X98010652Y-56354156D01*
X98385299Y-56237833D01*
X98611911Y-56164722D01*
X99598976Y-55795009D01*
X100404380Y-55382273D01*
X101048198Y-54907839D01*
X101550503Y-54353033D01*
X101931372Y-53699178D01*
X102210878Y-52927601D01*
X102250723Y-52779640D01*
X102353216Y-52198686D01*
X102404594Y-51501836D01*
X102403889Y-50770110D01*
X102350128Y-50084525D01*
X102287519Y-49707800D01*
X102156743Y-49098200D01*
X101983243Y-49727308D01*
X101779077Y-50313556D01*
X101489596Y-50864624D01*
X101089863Y-51416315D01*
X100554940Y-52004433D01*
X100073428Y-52469290D01*
X99518908Y-52997911D01*
X99093465Y-53443758D01*
X98765824Y-53848868D01*
X98504711Y-54255279D01*
X98278852Y-54705027D01*
X98107530Y-55111716D01*
X97941283Y-55519388D01*
X97784873Y-55886834D01*
X97666929Y-56147160D01*
X97648278Y-56184800D01*
X97576280Y-56376572D01*
X95796412Y-56376572D01*
X96028412Y-55933055D01*
X96181170Y-55626000D01*
X96660902Y-54698102D01*
X97125541Y-53924234D01*
X97606642Y-53260651D01*
X98135763Y-52663609D01*
X98711543Y-52118301D01*
X99238527Y-51647357D01*
X99636746Y-51273024D01*
X99934562Y-50963069D01*
X100160337Y-50685257D01*
X100342434Y-50407356D01*
X100509215Y-50097132D01*
X100534057Y-50047053D01*
X100694681Y-49709759D01*
X100811929Y-49442545D01*
X100862836Y-49298065D01*
X100863400Y-49291867D01*
X100797140Y-49318303D01*
X100619835Y-49461796D01*
X100363688Y-49695289D01*
X100228400Y-49825326D01*
X99895529Y-50132251D01*
X99456124Y-50512272D01*
X98966881Y-50917468D01*
X98484499Y-51299916D01*
X98475800Y-51306627D01*
X97985400Y-51700515D01*
X97480653Y-52132667D01*
X97021552Y-52550221D01*
X96673494Y-52894579D01*
X96464636Y-53121503D01*
X96280892Y-53338890D01*
X96108949Y-53570398D01*
X95935496Y-53839682D01*
X95747218Y-54170398D01*
X95530804Y-54586202D01*
X95272940Y-55110749D01*
X94960314Y-55767696D01*
X94579613Y-56580699D01*
X94485912Y-56781756D01*
X94077697Y-57658112D01*
X92578239Y-57658112D01*
X92590532Y-57635539D01*
X92838067Y-57058573D01*
X93106067Y-56317475D01*
X93192762Y-56057800D01*
X93568183Y-55011483D01*
X93966668Y-54110541D01*
X94419204Y-53297302D01*
X94956777Y-52514095D01*
X95394745Y-51959515D01*
X95628870Y-51658912D01*
X95783522Y-51394443D01*
X95859692Y-51127010D01*
X95858368Y-50817513D01*
X95780544Y-50426851D01*
X95627208Y-49915927D01*
X95459126Y-49418336D01*
X95281593Y-48893814D01*
X95161537Y-48493970D01*
X95087498Y-48152333D01*
X95048015Y-47802433D01*
X95031629Y-47377797D01*
X95027326Y-46913800D01*
X95025193Y-46456600D01*
X95748793Y-46456600D01*
X95772180Y-47081254D01*
X95839155Y-47605829D01*
X95964612Y-48131408D01*
X96025680Y-48336200D01*
X96185642Y-48857900D01*
X96357893Y-49427858D01*
X96507662Y-49930943D01*
X96520442Y-49974433D01*
X96664688Y-50393816D01*
X96794544Y-50638052D01*
X96900424Y-50702048D01*
X96972739Y-50580709D01*
X97001899Y-50268940D01*
X97002077Y-50230329D01*
X96980883Y-49959692D01*
X96923861Y-49550447D01*
X96840181Y-49062144D01*
X96757368Y-48641000D01*
X96593698Y-47813084D01*
X96489645Y-47131777D01*
X96451727Y-46567986D01*
X97418444Y-46567986D01*
X97442972Y-47373240D01*
X97527692Y-48249524D01*
X97670620Y-49156469D01*
X97769299Y-49635798D01*
X97821379Y-49868597D01*
X98453389Y-49513103D01*
X98832317Y-49288271D01*
X99191659Y-49055677D01*
X99426975Y-48885896D01*
X99676270Y-48616665D01*
X99945838Y-48205853D01*
X100137916Y-47840192D01*
X100325360Y-47426981D01*
X100436013Y-47102927D01*
X100489610Y-46780331D01*
X100505886Y-46371493D01*
X100506431Y-46202600D01*
X100495898Y-45734643D01*
X100453672Y-45384692D01*
X100362170Y-45068047D01*
X100203813Y-44700002D01*
X100187203Y-44664687D01*
X99965500Y-44240647D01*
X99679202Y-43754179D01*
X99386928Y-43304440D01*
X99361648Y-43268178D01*
X98854468Y-42545980D01*
X98683503Y-43068676D01*
X98534221Y-43434132D01*
X98316451Y-43863150D01*
X98109661Y-44211186D01*
X97878076Y-44607480D01*
X97675293Y-45023711D01*
X97557892Y-45332040D01*
X97456089Y-45874130D01*
X97418444Y-46567986D01*
X96451727Y-46567986D01*
X96450403Y-46548309D01*
X96481170Y-46013908D01*
X96587139Y-45479803D01*
X96773508Y-44897224D01*
X97045471Y-44217399D01*
X97287859Y-43661367D01*
X97519644Y-43115050D01*
X97729572Y-42575902D01*
X97897760Y-42098118D01*
X98004322Y-41735890D01*
X98019439Y-41667534D01*
X98081405Y-41308529D01*
X98088825Y-41076367D01*
X98037102Y-40900926D01*
X97960618Y-40770299D01*
X97779623Y-40494065D01*
X97642596Y-41029496D01*
X97539325Y-41326925D01*
X97358354Y-41744898D01*
X97124864Y-42228728D01*
X96864037Y-42723726D01*
X96854622Y-42740763D01*
X96429733Y-43551965D01*
X96121092Y-44255376D01*
X95914428Y-44898947D01*
X95795472Y-45530630D01*
X95749953Y-46198373D01*
X95748793Y-46456600D01*
X95025193Y-46456600D01*
X95021400Y-45643800D01*
X94411800Y-45237400D01*
X93879859Y-44806515D01*
X93440190Y-44300571D01*
X93125546Y-43765319D01*
X92968682Y-43246512D01*
X92964954Y-43216475D01*
X92908106Y-42927823D01*
X92826326Y-42765635D01*
X92789214Y-42748200D01*
X92640949Y-42705225D01*
X92371475Y-42592669D01*
X92045852Y-42438181D01*
X91722020Y-42225464D01*
X93921127Y-42225464D01*
X94023346Y-42839395D01*
X94186255Y-43289962D01*
X94404506Y-43690486D01*
X94653029Y-44032849D01*
X94904572Y-44292812D01*
X95131880Y-44446138D01*
X95307702Y-44468588D01*
X95396442Y-44366273D01*
X95352340Y-44237096D01*
X95199956Y-44023448D01*
X95061918Y-43867250D01*
X94723993Y-43427116D01*
X94499611Y-42923248D01*
X94386933Y-42333777D01*
X94386109Y-42129309D01*
X94998151Y-42129309D01*
X95067513Y-42479982D01*
X95076153Y-42506903D01*
X95190685Y-42791565D01*
X95343451Y-43094809D01*
X95501507Y-43359435D01*
X95631910Y-43528246D01*
X95682551Y-43559742D01*
X95744311Y-43474687D01*
X95880012Y-43239608D01*
X96072314Y-42886021D01*
X96303874Y-42445442D01*
X96422607Y-42214800D01*
X96764370Y-41518833D01*
X97000999Y-40962313D01*
X97139626Y-40515316D01*
X97187383Y-40147918D01*
X97151402Y-39830194D01*
X97054366Y-39564187D01*
X96913981Y-39355508D01*
X96703969Y-39132742D01*
X96473720Y-38937452D01*
X96272625Y-38811196D01*
X96150073Y-38795537D01*
X96145754Y-38799610D01*
X96094355Y-38901395D01*
X95977993Y-39152753D01*
X95813316Y-39517164D01*
X95616967Y-39958108D01*
X95592758Y-40012868D01*
X95299392Y-40716178D01*
X95107137Y-41280976D01*
X95009042Y-41740830D01*
X94998151Y-42129309D01*
X94386109Y-42129309D01*
X94384122Y-41636835D01*
X94489338Y-40810556D01*
X94700745Y-39833071D01*
X94717272Y-39767133D01*
X94919053Y-38887322D01*
X95035133Y-38182895D01*
X95066322Y-37645369D01*
X95013431Y-37266266D01*
X94967025Y-37153520D01*
X94852028Y-36990351D01*
X94764250Y-36996373D01*
X94697262Y-37181954D01*
X94644632Y-37557460D01*
X94631976Y-37693600D01*
X94580243Y-38090930D01*
X94487843Y-38613358D01*
X94368312Y-39190145D01*
X94247985Y-39700200D01*
X94033011Y-40681186D01*
X93924203Y-41514501D01*
X93921127Y-42225464D01*
X91722020Y-42225464D01*
X91351216Y-41981893D01*
X90731473Y-41343218D01*
X90183139Y-40518221D01*
X89953348Y-40073867D01*
X89709878Y-39564907D01*
X89423888Y-38965765D01*
X89139944Y-38369850D01*
X88999501Y-38074600D01*
X88755310Y-37594150D01*
X88493642Y-37133667D01*
X88250393Y-36753801D01*
X88102769Y-36559587D01*
X87459069Y-35962195D01*
X86681503Y-35474949D01*
X85821220Y-35123978D01*
X84929371Y-34935409D01*
X84921530Y-34934548D01*
X84597839Y-34889387D01*
X84418674Y-34822182D01*
X84325679Y-34699592D01*
X84282391Y-34569400D01*
X84249443Y-34387402D01*
X84290036Y-34234742D01*
X84418093Y-34074475D01*
X85812482Y-34074475D01*
X86492371Y-34199749D01*
X87392797Y-34465114D01*
X88243494Y-34910181D01*
X88953632Y-35468121D01*
X89172381Y-35688337D01*
X89366266Y-35921765D01*
X89556921Y-36203226D01*
X89765977Y-36567540D01*
X90015066Y-37049529D01*
X90310431Y-37652160D01*
X90686913Y-38418373D01*
X91003957Y-39029675D01*
X91281736Y-39518111D01*
X91540421Y-39915725D01*
X91800186Y-40254563D01*
X92081202Y-40566669D01*
X92255254Y-40741600D01*
X92609820Y-41056388D01*
X92856940Y-41201369D01*
X92999335Y-41177479D01*
X93040200Y-41011750D01*
X92976636Y-40816515D01*
X92814051Y-40549627D01*
X92685440Y-40384844D01*
X92453961Y-40041956D01*
X92182464Y-39510588D01*
X91875268Y-38800562D01*
X91536692Y-37921702D01*
X91257824Y-37137565D01*
X90835230Y-36103765D01*
X90344818Y-35258866D01*
X89783691Y-34599216D01*
X89148952Y-34121167D01*
X88691885Y-33904715D01*
X88335368Y-33788940D01*
X87992859Y-33729562D01*
X87582842Y-33716597D01*
X87249000Y-33727965D01*
X86783494Y-33767502D01*
X86384716Y-33832785D01*
X86117370Y-33912895D01*
X86098941Y-33922049D01*
X85812482Y-34074475D01*
X84418093Y-34074475D01*
X84432967Y-34055860D01*
X84662450Y-33836147D01*
X85256566Y-33389358D01*
X85747174Y-33127586D01*
X89278040Y-33127586D01*
X89334491Y-33202347D01*
X89543647Y-33351509D01*
X89747848Y-33485369D01*
X90283526Y-33883295D01*
X90746163Y-34345389D01*
X91151649Y-34897938D01*
X91515871Y-35567224D01*
X91854718Y-36379532D01*
X92184077Y-37361148D01*
X92276256Y-37668200D01*
X92442348Y-38200345D01*
X92618433Y-38709823D01*
X92783478Y-39138759D01*
X92916183Y-39428797D01*
X93182799Y-39919394D01*
X93369675Y-38869997D01*
X93485518Y-38015571D01*
X93521989Y-37230990D01*
X93515755Y-37007800D01*
X93403941Y-36162595D01*
X93165371Y-35411763D01*
X92812788Y-34791359D01*
X92671465Y-34619040D01*
X92276370Y-34275710D01*
X91733347Y-33935634D01*
X91096155Y-33626824D01*
X90418552Y-33377292D01*
X90133476Y-33296555D01*
X89666677Y-33180005D01*
X89385150Y-33121910D01*
X89278040Y-33127586D01*
X85747174Y-33127586D01*
X85987825Y-32999183D01*
X86791575Y-32698411D01*
X87042476Y-32629174D01*
X87626788Y-32533317D01*
X88334898Y-32495398D01*
X89096730Y-32512493D01*
G37*
X89096730Y-32512493D02*
X89842210Y-32581679D01*
X90501265Y-32700029D01*
X90805000Y-32786195D01*
X91726368Y-33177156D01*
X92575032Y-33691600D01*
X93314518Y-34301489D01*
X93908349Y-34978785D01*
X94154667Y-35361003D01*
X94355885Y-35676419D01*
X94590911Y-35942655D01*
X94910373Y-36209164D01*
X95307864Y-36487411D01*
X96059074Y-37038957D01*
X96669906Y-37609755D01*
X97198831Y-38260860D01*
X97606381Y-38887400D01*
X97861954Y-39281093D01*
X98211061Y-39774469D01*
X98614099Y-40313698D01*
X99031469Y-40844951D01*
X99182473Y-41029772D01*
X99961635Y-42003215D01*
X100607885Y-42877877D01*
X101114849Y-43644432D01*
X101476152Y-44293552D01*
X101596557Y-44562134D01*
X101704624Y-44866031D01*
X101775122Y-45175205D01*
X101816028Y-45547116D01*
X101835319Y-46039225D01*
X101839015Y-46308721D01*
X101845401Y-46813716D01*
X101861212Y-47166433D01*
X101897618Y-47417788D01*
X101965791Y-47618695D01*
X102076901Y-47820070D01*
X102218126Y-48036685D01*
X102649574Y-48795474D01*
X103017328Y-49655599D01*
X103305781Y-50562498D01*
X103499325Y-51461612D01*
X103582352Y-52298380D01*
X103571118Y-52766274D01*
X103417109Y-53629881D01*
X103116513Y-54468755D01*
X102693257Y-55236525D01*
X102171266Y-55886816D01*
X101784554Y-56228927D01*
X101270252Y-56616600D01*
X101331511Y-57306120D01*
X101383693Y-58118110D01*
X101398299Y-58915303D01*
X101376742Y-59651966D01*
X101320438Y-60282368D01*
X101230801Y-60760777D01*
X101223866Y-60785485D01*
X100917718Y-61581678D01*
X100457178Y-62424846D01*
X99871987Y-63276022D01*
X99191883Y-64096240D01*
X98446606Y-64846534D01*
X97665896Y-65487939D01*
X97597114Y-65537426D01*
X96660988Y-66115067D01*
X95589823Y-66626756D01*
X94447500Y-67048030D01*
X93297897Y-67354426D01*
X92495970Y-67490860D01*
X92131662Y-67558712D01*
X91800741Y-67682589D01*
X91430542Y-67893873D01*
X91188523Y-68055495D01*
X90652052Y-68393859D01*
X90139844Y-68638294D01*
X89578058Y-68817465D01*
X88892850Y-68960034D01*
X88831037Y-68970625D01*
X88292624Y-69033681D01*
X87715910Y-69041152D01*
X87069409Y-68989508D01*
X86321630Y-68875222D01*
X85441087Y-68694764D01*
X84607400Y-68497291D01*
X83890266Y-68323838D01*
X83322558Y-68197981D01*
X82858099Y-68112267D01*
X82450711Y-68059246D01*
X82054219Y-68031465D01*
X81661000Y-68021808D01*
X80639019Y-68072137D01*
X79724481Y-68239631D01*
X78935860Y-68517730D01*
X78291630Y-68899871D01*
X77810265Y-69379495D01*
X77800388Y-69392800D01*
X77516949Y-69715952D01*
X77276229Y-69865167D01*
X77091207Y-69834085D01*
X77034631Y-69768025D01*
X77008951Y-69545277D01*
X77130610Y-69246744D01*
X77373360Y-68902273D01*
X77710953Y-68541710D01*
X78117141Y-68194900D01*
X78565676Y-67891690D01*
X78793901Y-67767610D01*
X79329430Y-67531447D01*
X79856756Y-67371590D01*
X80428350Y-67279382D01*
X81096682Y-67246168D01*
X81864200Y-67261178D01*
X82516816Y-67301909D01*
X83146893Y-67374062D01*
X83821153Y-67487544D01*
X84606317Y-67652262D01*
X84810600Y-67698663D01*
X85471306Y-67846704D01*
X85995262Y-67951678D01*
X86442534Y-68021060D01*
X86873184Y-68062324D01*
X87347279Y-68082942D01*
X87924882Y-68090389D01*
X87960200Y-68090562D01*
X88603518Y-68087946D01*
X89087633Y-68070651D01*
X89456258Y-68034776D01*
X89753103Y-67976417D01*
X89966800Y-67911434D01*
X90258874Y-67796750D01*
X90452617Y-67696039D01*
X90500200Y-67647248D01*
X90406407Y-67605257D01*
X90155611Y-67559344D01*
X89793687Y-67517029D01*
X89611200Y-67501500D01*
X89149322Y-67453669D01*
X88566557Y-67374787D01*
X87940744Y-67276203D01*
X87401400Y-67179309D01*
X86043126Y-66929342D01*
X84854375Y-66739194D01*
X83810420Y-66609036D01*
X82886534Y-66539039D01*
X82057992Y-66529375D01*
X81300066Y-66580213D01*
X80588032Y-66691726D01*
X79897162Y-66864085D01*
X79202731Y-67097460D01*
X78842965Y-67238506D01*
X78260729Y-67466272D01*
X77857861Y-67599853D01*
X77633259Y-67638449D01*
X77585821Y-67581262D01*
X77714445Y-67427494D01*
X78018029Y-67176344D01*
X78384400Y-66906011D01*
X79969740Y-65858712D01*
X80308147Y-65673333D01*
X81378971Y-65673333D01*
X81391028Y-65687590D01*
X81508600Y-65652087D01*
X81683149Y-65622288D01*
X82015660Y-65590430D01*
X82460973Y-65560029D01*
X82973925Y-65534604D01*
X83061512Y-65531147D01*
X83657749Y-65515833D01*
X84191589Y-65522180D01*
X84705514Y-65555469D01*
X85242010Y-65620983D01*
X85843558Y-65724003D01*
X86552643Y-65869813D01*
X87411748Y-66063696D01*
X87489383Y-66081709D01*
X88664701Y-66330160D01*
X89702178Y-66491828D01*
X90646604Y-66569016D01*
X91542769Y-66564026D01*
X92435462Y-66479161D01*
X93099897Y-66370137D01*
X94425333Y-66027721D01*
X95756132Y-65507957D01*
X97046154Y-64830064D01*
X97534007Y-64523172D01*
X97950134Y-64239216D01*
X98190266Y-64053063D01*
X98255568Y-63962991D01*
X98147202Y-63967277D01*
X97866333Y-64064199D01*
X97836124Y-64076031D01*
X97096185Y-64315280D01*
X96253740Y-64486429D01*
X95293039Y-64590148D01*
X94198332Y-64627109D01*
X92953871Y-64597985D01*
X91543906Y-64503447D01*
X90398600Y-64393251D01*
X89073578Y-64270189D01*
X87910087Y-64204792D01*
X86874047Y-64199710D01*
X85931379Y-64257591D01*
X85048001Y-64381084D01*
X84189835Y-64572840D01*
X83322801Y-64835508D01*
X82931000Y-64973758D01*
X82637508Y-65087838D01*
X82315663Y-65223088D01*
X81997174Y-65364385D01*
X81713755Y-65496607D01*
X81497117Y-65604631D01*
X81378971Y-65673333D01*
X80308147Y-65673333D01*
X81528889Y-65004613D01*
X83057910Y-64345570D01*
X84552865Y-63883436D01*
X85030817Y-63775932D01*
X85506054Y-63671891D01*
X85943293Y-63563448D01*
X86280050Y-63466695D01*
X86406125Y-63421688D01*
X86495439Y-63363945D01*
X90769138Y-63363945D01*
X90771528Y-63412634D01*
X90887593Y-63450431D01*
X91140498Y-63485855D01*
X91553411Y-63527425D01*
X92024200Y-63571746D01*
X92783921Y-63618738D01*
X93583354Y-63625038D01*
X94362976Y-63593146D01*
X95063263Y-63525559D01*
X95624694Y-63424773D01*
X95644380Y-63419843D01*
X96661761Y-63058460D01*
X97607699Y-62517321D01*
X98459278Y-61813991D01*
X99193585Y-60966033D01*
X99550007Y-60426190D01*
X99772803Y-60037623D01*
X99909698Y-59739935D01*
X99984728Y-59453114D01*
X100021927Y-59097146D01*
X100036539Y-58806484D01*
X100073279Y-57943686D01*
X99405277Y-58568569D01*
X98874901Y-59012543D01*
X98307508Y-59373077D01*
X97655965Y-59673664D01*
X96873137Y-59937797D01*
X96393000Y-60069976D01*
X95591933Y-60286593D01*
X94943654Y-60489143D01*
X94401341Y-60701603D01*
X93918174Y-60947951D01*
X93447334Y-61252163D01*
X92942001Y-61638217D01*
X92355353Y-62130088D01*
X92333517Y-62148874D01*
X91927088Y-62491780D01*
X91540279Y-62805847D01*
X91218076Y-63055279D01*
X91012717Y-63199819D01*
X90857256Y-63295846D01*
X90769138Y-63363945D01*
X86495439Y-63363945D01*
X86589160Y-63303354D01*
X86828043Y-63108852D01*
X87979849Y-63108852D01*
X88020469Y-63151208D01*
X88223012Y-63123658D01*
X88600217Y-63029951D01*
X88868119Y-62956737D01*
X89557202Y-62738690D01*
X90170198Y-62477907D01*
X90760524Y-62144824D01*
X91381594Y-61709880D01*
X91973400Y-61238154D01*
X92589562Y-60741069D01*
X93130779Y-60343819D01*
X93646148Y-60019946D01*
X94184765Y-59742992D01*
X94795729Y-59486500D01*
X95528136Y-59224013D01*
X96002891Y-59066729D01*
X97006431Y-58724325D01*
X97820404Y-58410493D01*
X98455685Y-58120443D01*
X98923150Y-57849384D01*
X99136508Y-57686099D01*
X99270033Y-57547737D01*
X99249839Y-57508568D01*
X99223315Y-57515118D01*
X99070261Y-57551780D01*
X98755715Y-57619376D01*
X98317639Y-57710010D01*
X97793995Y-57815781D01*
X97445315Y-57885044D01*
X96635787Y-58048662D01*
X95984984Y-58190844D01*
X95451132Y-58323164D01*
X94992454Y-58457199D01*
X94567176Y-58604525D01*
X94133523Y-58776717D01*
X93955560Y-58852060D01*
X92942593Y-59339840D01*
X91941892Y-59934259D01*
X90920344Y-60657407D01*
X89844836Y-61531378D01*
X89535000Y-61801283D01*
X89148162Y-62135546D01*
X88749343Y-62468459D01*
X88409670Y-62740932D01*
X88333417Y-62799429D01*
X88088412Y-62992841D01*
X87979849Y-63108852D01*
X86828043Y-63108852D01*
X86882006Y-63064915D01*
X87254236Y-62733318D01*
X87675426Y-62335512D01*
X88041766Y-61972974D01*
X88579174Y-61448127D01*
X89189970Y-60881495D01*
X89812448Y-60328570D01*
X90384902Y-59844844D01*
X90601800Y-59670767D01*
X91056518Y-59308365D01*
X91470704Y-58968840D01*
X91810152Y-58680933D01*
X92040659Y-58473383D01*
X92106132Y-58406734D01*
X92350781Y-58075788D01*
X92578239Y-57658112D01*
X94077697Y-57658112D01*
X94651148Y-57367243D01*
X94970462Y-57214549D01*
X95226640Y-57108734D01*
X95349420Y-57075087D01*
X95434287Y-56987827D01*
X95587632Y-56747685D01*
X95791619Y-56385736D01*
X95796412Y-56376572D01*
X97576280Y-56376572D01*
X97595059Y-56463713D01*
X97600428Y-56464200D01*
X97733092Y-56434329D01*
X98010652Y-56354156D01*
X98385299Y-56237833D01*
X98611911Y-56164722D01*
X99598976Y-55795009D01*
X100404380Y-55382273D01*
X101048198Y-54907839D01*
X101550503Y-54353033D01*
X101931372Y-53699178D01*
X102210878Y-52927601D01*
X102250723Y-52779640D01*
X102353216Y-52198686D01*
X102404594Y-51501836D01*
X102403889Y-50770110D01*
X102350128Y-50084525D01*
X102287519Y-49707800D01*
X102156743Y-49098200D01*
X101983243Y-49727308D01*
X101779077Y-50313556D01*
X101489596Y-50864624D01*
X101089863Y-51416315D01*
X100554940Y-52004433D01*
X100073428Y-52469290D01*
X99518908Y-52997911D01*
X99093465Y-53443758D01*
X98765824Y-53848868D01*
X98504711Y-54255279D01*
X98278852Y-54705027D01*
X98107530Y-55111716D01*
X97941283Y-55519388D01*
X97784873Y-55886834D01*
X97666929Y-56147160D01*
X97648278Y-56184800D01*
X97576280Y-56376572D01*
X95796412Y-56376572D01*
X96028412Y-55933055D01*
X96181170Y-55626000D01*
X96660902Y-54698102D01*
X97125541Y-53924234D01*
X97606642Y-53260651D01*
X98135763Y-52663609D01*
X98711543Y-52118301D01*
X99238527Y-51647357D01*
X99636746Y-51273024D01*
X99934562Y-50963069D01*
X100160337Y-50685257D01*
X100342434Y-50407356D01*
X100509215Y-50097132D01*
X100534057Y-50047053D01*
X100694681Y-49709759D01*
X100811929Y-49442545D01*
X100862836Y-49298065D01*
X100863400Y-49291867D01*
X100797140Y-49318303D01*
X100619835Y-49461796D01*
X100363688Y-49695289D01*
X100228400Y-49825326D01*
X99895529Y-50132251D01*
X99456124Y-50512272D01*
X98966881Y-50917468D01*
X98484499Y-51299916D01*
X98475800Y-51306627D01*
X97985400Y-51700515D01*
X97480653Y-52132667D01*
X97021552Y-52550221D01*
X96673494Y-52894579D01*
X96464636Y-53121503D01*
X96280892Y-53338890D01*
X96108949Y-53570398D01*
X95935496Y-53839682D01*
X95747218Y-54170398D01*
X95530804Y-54586202D01*
X95272940Y-55110749D01*
X94960314Y-55767696D01*
X94579613Y-56580699D01*
X94485912Y-56781756D01*
X94077697Y-57658112D01*
X92578239Y-57658112D01*
X92590532Y-57635539D01*
X92838067Y-57058573D01*
X93106067Y-56317475D01*
X93192762Y-56057800D01*
X93568183Y-55011483D01*
X93966668Y-54110541D01*
X94419204Y-53297302D01*
X94956777Y-52514095D01*
X95394745Y-51959515D01*
X95628870Y-51658912D01*
X95783522Y-51394443D01*
X95859692Y-51127010D01*
X95858368Y-50817513D01*
X95780544Y-50426851D01*
X95627208Y-49915927D01*
X95459126Y-49418336D01*
X95281593Y-48893814D01*
X95161537Y-48493970D01*
X95087498Y-48152333D01*
X95048015Y-47802433D01*
X95031629Y-47377797D01*
X95027326Y-46913800D01*
X95025193Y-46456600D01*
X95748793Y-46456600D01*
X95772180Y-47081254D01*
X95839155Y-47605829D01*
X95964612Y-48131408D01*
X96025680Y-48336200D01*
X96185642Y-48857900D01*
X96357893Y-49427858D01*
X96507662Y-49930943D01*
X96520442Y-49974433D01*
X96664688Y-50393816D01*
X96794544Y-50638052D01*
X96900424Y-50702048D01*
X96972739Y-50580709D01*
X97001899Y-50268940D01*
X97002077Y-50230329D01*
X96980883Y-49959692D01*
X96923861Y-49550447D01*
X96840181Y-49062144D01*
X96757368Y-48641000D01*
X96593698Y-47813084D01*
X96489645Y-47131777D01*
X96451727Y-46567986D01*
X97418444Y-46567986D01*
X97442972Y-47373240D01*
X97527692Y-48249524D01*
X97670620Y-49156469D01*
X97769299Y-49635798D01*
X97821379Y-49868597D01*
X98453389Y-49513103D01*
X98832317Y-49288271D01*
X99191659Y-49055677D01*
X99426975Y-48885896D01*
X99676270Y-48616665D01*
X99945838Y-48205853D01*
X100137916Y-47840192D01*
X100325360Y-47426981D01*
X100436013Y-47102927D01*
X100489610Y-46780331D01*
X100505886Y-46371493D01*
X100506431Y-46202600D01*
X100495898Y-45734643D01*
X100453672Y-45384692D01*
X100362170Y-45068047D01*
X100203813Y-44700002D01*
X100187203Y-44664687D01*
X99965500Y-44240647D01*
X99679202Y-43754179D01*
X99386928Y-43304440D01*
X99361648Y-43268178D01*
X98854468Y-42545980D01*
X98683503Y-43068676D01*
X98534221Y-43434132D01*
X98316451Y-43863150D01*
X98109661Y-44211186D01*
X97878076Y-44607480D01*
X97675293Y-45023711D01*
X97557892Y-45332040D01*
X97456089Y-45874130D01*
X97418444Y-46567986D01*
X96451727Y-46567986D01*
X96450403Y-46548309D01*
X96481170Y-46013908D01*
X96587139Y-45479803D01*
X96773508Y-44897224D01*
X97045471Y-44217399D01*
X97287859Y-43661367D01*
X97519644Y-43115050D01*
X97729572Y-42575902D01*
X97897760Y-42098118D01*
X98004322Y-41735890D01*
X98019439Y-41667534D01*
X98081405Y-41308529D01*
X98088825Y-41076367D01*
X98037102Y-40900926D01*
X97960618Y-40770299D01*
X97779623Y-40494065D01*
X97642596Y-41029496D01*
X97539325Y-41326925D01*
X97358354Y-41744898D01*
X97124864Y-42228728D01*
X96864037Y-42723726D01*
X96854622Y-42740763D01*
X96429733Y-43551965D01*
X96121092Y-44255376D01*
X95914428Y-44898947D01*
X95795472Y-45530630D01*
X95749953Y-46198373D01*
X95748793Y-46456600D01*
X95025193Y-46456600D01*
X95021400Y-45643800D01*
X94411800Y-45237400D01*
X93879859Y-44806515D01*
X93440190Y-44300571D01*
X93125546Y-43765319D01*
X92968682Y-43246512D01*
X92964954Y-43216475D01*
X92908106Y-42927823D01*
X92826326Y-42765635D01*
X92789214Y-42748200D01*
X92640949Y-42705225D01*
X92371475Y-42592669D01*
X92045852Y-42438181D01*
X91722020Y-42225464D01*
X93921127Y-42225464D01*
X94023346Y-42839395D01*
X94186255Y-43289962D01*
X94404506Y-43690486D01*
X94653029Y-44032849D01*
X94904572Y-44292812D01*
X95131880Y-44446138D01*
X95307702Y-44468588D01*
X95396442Y-44366273D01*
X95352340Y-44237096D01*
X95199956Y-44023448D01*
X95061918Y-43867250D01*
X94723993Y-43427116D01*
X94499611Y-42923248D01*
X94386933Y-42333777D01*
X94386109Y-42129309D01*
X94998151Y-42129309D01*
X95067513Y-42479982D01*
X95076153Y-42506903D01*
X95190685Y-42791565D01*
X95343451Y-43094809D01*
X95501507Y-43359435D01*
X95631910Y-43528246D01*
X95682551Y-43559742D01*
X95744311Y-43474687D01*
X95880012Y-43239608D01*
X96072314Y-42886021D01*
X96303874Y-42445442D01*
X96422607Y-42214800D01*
X96764370Y-41518833D01*
X97000999Y-40962313D01*
X97139626Y-40515316D01*
X97187383Y-40147918D01*
X97151402Y-39830194D01*
X97054366Y-39564187D01*
X96913981Y-39355508D01*
X96703969Y-39132742D01*
X96473720Y-38937452D01*
X96272625Y-38811196D01*
X96150073Y-38795537D01*
X96145754Y-38799610D01*
X96094355Y-38901395D01*
X95977993Y-39152753D01*
X95813316Y-39517164D01*
X95616967Y-39958108D01*
X95592758Y-40012868D01*
X95299392Y-40716178D01*
X95107137Y-41280976D01*
X95009042Y-41740830D01*
X94998151Y-42129309D01*
X94386109Y-42129309D01*
X94384122Y-41636835D01*
X94489338Y-40810556D01*
X94700745Y-39833071D01*
X94717272Y-39767133D01*
X94919053Y-38887322D01*
X95035133Y-38182895D01*
X95066322Y-37645369D01*
X95013431Y-37266266D01*
X94967025Y-37153520D01*
X94852028Y-36990351D01*
X94764250Y-36996373D01*
X94697262Y-37181954D01*
X94644632Y-37557460D01*
X94631976Y-37693600D01*
X94580243Y-38090930D01*
X94487843Y-38613358D01*
X94368312Y-39190145D01*
X94247985Y-39700200D01*
X94033011Y-40681186D01*
X93924203Y-41514501D01*
X93921127Y-42225464D01*
X91722020Y-42225464D01*
X91351216Y-41981893D01*
X90731473Y-41343218D01*
X90183139Y-40518221D01*
X89953348Y-40073867D01*
X89709878Y-39564907D01*
X89423888Y-38965765D01*
X89139944Y-38369850D01*
X88999501Y-38074600D01*
X88755310Y-37594150D01*
X88493642Y-37133667D01*
X88250393Y-36753801D01*
X88102769Y-36559587D01*
X87459069Y-35962195D01*
X86681503Y-35474949D01*
X85821220Y-35123978D01*
X84929371Y-34935409D01*
X84921530Y-34934548D01*
X84597839Y-34889387D01*
X84418674Y-34822182D01*
X84325679Y-34699592D01*
X84282391Y-34569400D01*
X84249443Y-34387402D01*
X84290036Y-34234742D01*
X84418093Y-34074475D01*
X85812482Y-34074475D01*
X86492371Y-34199749D01*
X87392797Y-34465114D01*
X88243494Y-34910181D01*
X88953632Y-35468121D01*
X89172381Y-35688337D01*
X89366266Y-35921765D01*
X89556921Y-36203226D01*
X89765977Y-36567540D01*
X90015066Y-37049529D01*
X90310431Y-37652160D01*
X90686913Y-38418373D01*
X91003957Y-39029675D01*
X91281736Y-39518111D01*
X91540421Y-39915725D01*
X91800186Y-40254563D01*
X92081202Y-40566669D01*
X92255254Y-40741600D01*
X92609820Y-41056388D01*
X92856940Y-41201369D01*
X92999335Y-41177479D01*
X93040200Y-41011750D01*
X92976636Y-40816515D01*
X92814051Y-40549627D01*
X92685440Y-40384844D01*
X92453961Y-40041956D01*
X92182464Y-39510588D01*
X91875268Y-38800562D01*
X91536692Y-37921702D01*
X91257824Y-37137565D01*
X90835230Y-36103765D01*
X90344818Y-35258866D01*
X89783691Y-34599216D01*
X89148952Y-34121167D01*
X88691885Y-33904715D01*
X88335368Y-33788940D01*
X87992859Y-33729562D01*
X87582842Y-33716597D01*
X87249000Y-33727965D01*
X86783494Y-33767502D01*
X86384716Y-33832785D01*
X86117370Y-33912895D01*
X86098941Y-33922049D01*
X85812482Y-34074475D01*
X84418093Y-34074475D01*
X84432967Y-34055860D01*
X84662450Y-33836147D01*
X85256566Y-33389358D01*
X85747174Y-33127586D01*
X89278040Y-33127586D01*
X89334491Y-33202347D01*
X89543647Y-33351509D01*
X89747848Y-33485369D01*
X90283526Y-33883295D01*
X90746163Y-34345389D01*
X91151649Y-34897938D01*
X91515871Y-35567224D01*
X91854718Y-36379532D01*
X92184077Y-37361148D01*
X92276256Y-37668200D01*
X92442348Y-38200345D01*
X92618433Y-38709823D01*
X92783478Y-39138759D01*
X92916183Y-39428797D01*
X93182799Y-39919394D01*
X93369675Y-38869997D01*
X93485518Y-38015571D01*
X93521989Y-37230990D01*
X93515755Y-37007800D01*
X93403941Y-36162595D01*
X93165371Y-35411763D01*
X92812788Y-34791359D01*
X92671465Y-34619040D01*
X92276370Y-34275710D01*
X91733347Y-33935634D01*
X91096155Y-33626824D01*
X90418552Y-33377292D01*
X90133476Y-33296555D01*
X89666677Y-33180005D01*
X89385150Y-33121910D01*
X89278040Y-33127586D01*
X85747174Y-33127586D01*
X85987825Y-32999183D01*
X86791575Y-32698411D01*
X87042476Y-32629174D01*
X87626788Y-32533317D01*
X88334898Y-32495398D01*
X89096730Y-32512493D01*
G36*
X54946518Y-32514801D02*
G01*
X55375968Y-32568782D01*
X55654723Y-32629174D01*
X56467746Y-32895981D01*
X57228094Y-33262240D01*
X57871113Y-33695162D01*
X58034749Y-33836147D01*
X58289905Y-34082858D01*
X58417716Y-34255085D01*
X58446974Y-34408386D01*
X58414722Y-34569400D01*
X58350542Y-34741873D01*
X58243355Y-34842394D01*
X58037944Y-34900870D01*
X57727041Y-34941866D01*
X56789151Y-35147904D01*
X55891522Y-35545257D01*
X55350855Y-35895085D01*
X54917748Y-36246775D01*
X54555488Y-36625525D01*
X54230582Y-37076249D01*
X53909538Y-37643858D01*
X53649783Y-38176200D01*
X53270130Y-38986372D01*
X52960846Y-39635950D01*
X52708040Y-40149244D01*
X52497822Y-40550567D01*
X52316303Y-40864232D01*
X52149593Y-41114549D01*
X51983802Y-41325832D01*
X51805040Y-41522393D01*
X51646967Y-41681819D01*
X51289684Y-42022716D01*
X50999821Y-42259268D01*
X50708244Y-42437605D01*
X50345819Y-42603861D01*
X50139600Y-42687661D01*
X49883951Y-42817084D01*
X49774554Y-42969798D01*
X49756368Y-43124015D01*
X49660507Y-43618375D01*
X49397603Y-44139331D01*
X48993646Y-44650016D01*
X48474628Y-45113562D01*
X48236113Y-45280454D01*
X47675800Y-45643800D01*
X47668566Y-46913800D01*
X47662084Y-47453401D01*
X47642131Y-47863057D01*
X47597245Y-48209375D01*
X47515958Y-48558959D01*
X47386807Y-48978416D01*
X47236766Y-49422331D01*
X47027544Y-50051396D01*
X46892373Y-50529917D01*
X46832264Y-50896967D01*
X46848230Y-51191622D01*
X46941282Y-51452957D01*
X47112432Y-51720046D01*
X47302454Y-51959515D01*
X47883614Y-52708398D01*
X48369778Y-53446385D01*
X48788735Y-54225645D01*
X49168271Y-55098348D01*
X49536173Y-56116665D01*
X49568726Y-56214407D01*
X49837214Y-56971367D01*
X50100806Y-57574103D01*
X50390441Y-58068410D01*
X50737058Y-58500078D01*
X51171593Y-58914901D01*
X51659003Y-59308304D01*
X52321268Y-59835679D01*
X53019306Y-60425488D01*
X53711649Y-61040169D01*
X54356834Y-61642157D01*
X54913394Y-62193889D01*
X55279452Y-62588033D01*
X55587450Y-62919970D01*
X55872525Y-63168811D01*
X56179576Y-63356847D01*
X56553499Y-63506367D01*
X57039192Y-63639662D01*
X57676132Y-63777918D01*
X59144783Y-64171780D01*
X60651337Y-64761513D01*
X62190227Y-65544492D01*
X63755882Y-66518093D01*
X64312800Y-66906011D01*
X64756017Y-67236794D01*
X65023300Y-67469204D01*
X65114093Y-67603665D01*
X65027844Y-67640599D01*
X64763997Y-67580427D01*
X64321998Y-67423571D01*
X63871627Y-67242058D01*
X62766083Y-66849517D01*
X61689170Y-66615635D01*
X60564805Y-66524927D01*
X60336635Y-66522600D01*
X59874623Y-66528361D01*
X59427779Y-66548426D01*
X58962942Y-66586965D01*
X58446952Y-66648148D01*
X57846646Y-66736147D01*
X57128863Y-66855130D01*
X56260442Y-67009269D01*
X55803800Y-67092658D01*
X55133394Y-67210797D01*
X54466864Y-67319261D01*
X53854877Y-67410449D01*
X53348099Y-67476758D01*
X53035200Y-67508078D01*
X52651483Y-67544614D01*
X52360125Y-67589012D01*
X52208387Y-67633430D01*
X52197000Y-67647125D01*
X52284665Y-67720588D01*
X52510812Y-67827888D01*
X52730400Y-67911434D01*
X53001412Y-67990443D01*
X53309511Y-68043869D01*
X53698407Y-68075616D01*
X54211810Y-68089587D01*
X54737000Y-68090609D01*
X55401801Y-68080969D01*
X55942036Y-68053100D01*
X56436119Y-67998167D01*
X56962468Y-67907335D01*
X57599498Y-67771769D01*
X57632600Y-67764345D01*
X58462196Y-67581643D01*
X59135000Y-67444023D01*
X59691128Y-67346394D01*
X60170696Y-67283666D01*
X60613821Y-67250749D01*
X61060617Y-67242552D01*
X61551202Y-67253984D01*
X61630375Y-67257050D01*
X62369263Y-67308029D01*
X62970111Y-67406440D01*
X63495959Y-67570449D01*
X64009850Y-67818224D01*
X64404367Y-68056461D01*
X64764038Y-68327779D01*
X65107172Y-68656388D01*
X65399106Y-69000340D01*
X65605174Y-69317690D01*
X65690713Y-69566491D01*
X65689435Y-69611494D01*
X65589301Y-69807872D01*
X65406444Y-69862112D01*
X65202464Y-69775120D01*
X65064336Y-69602297D01*
X64700141Y-69117365D01*
X64165696Y-68710600D01*
X63481471Y-68390051D01*
X62667936Y-68163768D01*
X61745560Y-68039801D01*
X61036200Y-68018304D01*
X60573526Y-68031044D01*
X60152694Y-68065032D01*
X59719322Y-68128887D01*
X59219025Y-68231228D01*
X58597423Y-68380673D01*
X58343800Y-68445022D01*
X57382306Y-68681172D01*
X56577525Y-68854202D01*
X55894494Y-68968448D01*
X55298251Y-69028248D01*
X54753832Y-69037940D01*
X54226274Y-69001861D01*
X54038500Y-68979137D01*
X53282473Y-68850342D01*
X52672165Y-68676190D01*
X52151661Y-68436506D01*
X51694224Y-68133364D01*
X51357861Y-67910918D01*
X50997319Y-67752426D01*
X50535618Y-67626592D01*
X50352078Y-67587736D01*
X49575329Y-67405653D01*
X48734353Y-67166266D01*
X47909252Y-66894709D01*
X47180129Y-66616114D01*
X46981597Y-66530226D01*
X46023394Y-66041877D01*
X45102543Y-65461770D01*
X44255689Y-64818863D01*
X43589899Y-64206853D01*
X44602902Y-64206853D01*
X44685686Y-64293296D01*
X44887461Y-64447282D01*
X45930165Y-65118228D01*
X47102524Y-65680484D01*
X48348839Y-66108629D01*
X48759856Y-66214502D01*
X50062684Y-66461240D01*
X51316153Y-66565221D01*
X52578814Y-66526860D01*
X53909217Y-66346571D01*
X54381400Y-66254267D01*
X55022957Y-66120090D01*
X55752529Y-65967257D01*
X56459293Y-65818992D01*
X56819800Y-65743254D01*
X57347538Y-65637876D01*
X57784068Y-65568727D01*
X58195409Y-65530779D01*
X58647582Y-65519006D01*
X59206607Y-65528378D01*
X59512200Y-65538210D01*
X60059694Y-65561178D01*
X60552282Y-65589059D01*
X60945578Y-65618817D01*
X61195195Y-65647417D01*
X61239400Y-65656326D01*
X61319184Y-65665567D01*
X61242079Y-65613659D01*
X61040045Y-65514462D01*
X60745043Y-65381832D01*
X60389032Y-65229629D01*
X60003974Y-65071711D01*
X59621828Y-64921935D01*
X59274556Y-64794161D01*
X59161179Y-64755194D01*
X58341897Y-64515776D01*
X57496602Y-64343398D01*
X56595648Y-64236446D01*
X55609389Y-64193310D01*
X54508179Y-64212375D01*
X53262371Y-64292030D01*
X52298600Y-64381924D01*
X51282175Y-64484001D01*
X50434859Y-64561945D01*
X49724117Y-64616746D01*
X49117417Y-64649394D01*
X48582226Y-64660881D01*
X48086010Y-64652197D01*
X47596237Y-64624331D01*
X47080373Y-64578275D01*
X46806132Y-64549137D01*
X46248444Y-64483425D01*
X45735253Y-64415339D01*
X45313959Y-64351709D01*
X45031963Y-64299359D01*
X44978002Y-64285852D01*
X44697445Y-64209536D01*
X44602902Y-64206853D01*
X43589899Y-64206853D01*
X43519474Y-64142117D01*
X42930540Y-63460489D01*
X42729607Y-63169800D01*
X42287992Y-62465111D01*
X41947436Y-61886669D01*
X41695668Y-61392061D01*
X41520416Y-60938874D01*
X41409406Y-60484694D01*
X41350367Y-59987110D01*
X41331026Y-59403707D01*
X41339111Y-58692073D01*
X41346539Y-58389945D01*
X41358248Y-57943686D01*
X42623920Y-57943686D01*
X42660660Y-58806484D01*
X42687114Y-59251128D01*
X42737203Y-59574324D01*
X42835058Y-59857823D01*
X43004811Y-60183376D01*
X43130440Y-60397991D01*
X43808586Y-61352811D01*
X44611373Y-62153250D01*
X45526066Y-62790726D01*
X46539928Y-63256660D01*
X47640223Y-63542471D01*
X47844582Y-63573866D01*
X48242274Y-63606173D01*
X48787155Y-63619492D01*
X49424224Y-63615081D01*
X50098481Y-63594196D01*
X50754926Y-63558093D01*
X51338558Y-63508031D01*
X51490649Y-63490549D01*
X52030544Y-63423800D01*
X51613536Y-63148096D01*
X51364076Y-62966593D01*
X51014402Y-62690578D01*
X50615614Y-62361170D01*
X50305714Y-62095693D01*
X49740838Y-61617804D01*
X49244257Y-61239851D01*
X48770285Y-60938706D01*
X48273236Y-60691240D01*
X47707425Y-60474326D01*
X47027165Y-60264837D01*
X46304200Y-60069976D01*
X45433445Y-59815585D01*
X44718756Y-59537092D01*
X44112998Y-59211004D01*
X43569036Y-58813826D01*
X43291922Y-58568569D01*
X42623920Y-57943686D01*
X41358248Y-57943686D01*
X41369578Y-57511883D01*
X43389191Y-57511883D01*
X43447230Y-57589986D01*
X43614341Y-57724766D01*
X43858091Y-57892035D01*
X44146048Y-58067603D01*
X44393056Y-58201120D01*
X44686276Y-58331842D01*
X45126531Y-58506257D01*
X45667090Y-58706864D01*
X46261221Y-58916161D01*
X46670534Y-59054039D01*
X47498634Y-59337129D01*
X48176158Y-59596424D01*
X48749756Y-59857034D01*
X49266079Y-60144069D01*
X49771777Y-60482638D01*
X50313502Y-60897853D01*
X50727128Y-61237519D01*
X51356903Y-61744525D01*
X51901824Y-62132176D01*
X52414809Y-62430476D01*
X52948777Y-62669431D01*
X53556647Y-62879046D01*
X53697808Y-62921897D01*
X54213658Y-63068702D01*
X54548312Y-63145265D01*
X54711428Y-63151091D01*
X54712664Y-63085686D01*
X54561677Y-62948554D01*
X54472843Y-62882204D01*
X54247540Y-62706774D01*
X53912888Y-62431321D01*
X53511077Y-62091196D01*
X53084298Y-61721749D01*
X53009800Y-61656373D01*
X51693977Y-60585885D01*
X50395319Y-59706814D01*
X49098602Y-59009978D01*
X47788601Y-58486192D01*
X47713563Y-58461472D01*
X47348006Y-58356000D01*
X46838258Y-58227424D01*
X46240062Y-58088911D01*
X45609164Y-57953625D01*
X45301455Y-57891812D01*
X44735226Y-57779820D01*
X44231208Y-57678065D01*
X43826595Y-57594219D01*
X43558580Y-57535952D01*
X43472655Y-57514646D01*
X43389191Y-57511883D01*
X41369578Y-57511883D01*
X41393577Y-56597353D01*
X41037458Y-56353336D01*
X40496973Y-55876226D01*
X40013537Y-55245373D01*
X39609729Y-54507291D01*
X39308128Y-53708492D01*
X39131310Y-52895488D01*
X39093865Y-52349400D01*
X39151604Y-51667589D01*
X39234031Y-51262937D01*
X40298366Y-51262937D01*
X40368123Y-52306870D01*
X40568960Y-53206441D01*
X40906514Y-53977146D01*
X41386426Y-54634481D01*
X41606029Y-54856585D01*
X41977588Y-55175913D01*
X42365108Y-55441041D01*
X42816181Y-55677461D01*
X43378400Y-55910663D01*
X43967400Y-56121356D01*
X44479307Y-56294252D01*
X44824845Y-56401116D01*
X45029401Y-56443140D01*
X45118364Y-56421516D01*
X45117122Y-56337435D01*
X45051062Y-56192089D01*
X45040579Y-56171737D01*
X44928103Y-55927739D01*
X44779195Y-55570362D01*
X44627680Y-55181137D01*
X44393292Y-54627132D01*
X44116620Y-54129538D01*
X43767357Y-53647250D01*
X43315198Y-53139162D01*
X42729836Y-52564170D01*
X42628251Y-52469220D01*
X41984594Y-51836610D01*
X41492783Y-51268740D01*
X41127964Y-50730012D01*
X40865283Y-50184827D01*
X40713956Y-49727308D01*
X40591000Y-49281471D01*
X41833800Y-49281471D01*
X41876591Y-49402816D01*
X41989714Y-49654288D01*
X42150290Y-49985452D01*
X42180431Y-50045590D01*
X42338487Y-50347878D01*
X42492143Y-50602902D01*
X42668844Y-50842080D01*
X42896035Y-51096828D01*
X43201160Y-51398561D01*
X43611664Y-51778696D01*
X44004045Y-52133102D01*
X44615351Y-52722708D01*
X45144816Y-53329758D01*
X45624675Y-53999249D01*
X46087164Y-54776174D01*
X46564518Y-55705529D01*
X46566784Y-55710197D01*
X46821731Y-56230701D01*
X47011895Y-56598309D01*
X47159364Y-56843817D01*
X47286228Y-56998023D01*
X47414572Y-57091726D01*
X47566486Y-57155723D01*
X47615324Y-57172206D01*
X47955867Y-57308476D01*
X48266479Y-57469621D01*
X48304581Y-57493740D01*
X48501511Y-57620891D01*
X48603927Y-57681836D01*
X48606743Y-57682730D01*
X48571626Y-57595444D01*
X48464006Y-57352022D01*
X48296651Y-56980772D01*
X48082325Y-56510002D01*
X47833796Y-55968019D01*
X47816670Y-55930800D01*
X47421724Y-55087321D01*
X47076939Y-54397818D01*
X46755750Y-53828103D01*
X46431595Y-53343994D01*
X46077912Y-52911304D01*
X45668136Y-52495849D01*
X45175706Y-52063445D01*
X44574057Y-51579906D01*
X44226002Y-51309840D01*
X43743660Y-50927969D01*
X43253609Y-50522664D01*
X42812303Y-50141620D01*
X42476199Y-49832531D01*
X42468800Y-49825326D01*
X42186993Y-49558252D01*
X41969372Y-49367090D01*
X41848233Y-49279499D01*
X41833800Y-49281471D01*
X40591000Y-49281471D01*
X40540456Y-49098200D01*
X40416734Y-49688137D01*
X40361135Y-50064147D01*
X40319848Y-50556751D01*
X40299370Y-51079493D01*
X40298366Y-51262937D01*
X39234031Y-51262937D01*
X39311580Y-50882234D01*
X39554878Y-50052921D01*
X39862581Y-49239238D01*
X40215773Y-48500772D01*
X40432345Y-48133000D01*
X40857158Y-47472600D01*
X40830596Y-46507400D01*
X40830446Y-46118569D01*
X42166057Y-46118569D01*
X42220149Y-46760217D01*
X42242154Y-46874857D01*
X42387418Y-47391428D01*
X42599962Y-47917835D01*
X42848980Y-48389812D01*
X43103670Y-48743095D01*
X43169816Y-48810167D01*
X43425792Y-49014141D01*
X43751456Y-49230082D01*
X44102717Y-49434516D01*
X44435482Y-49603971D01*
X44705657Y-49714974D01*
X44869152Y-49744052D01*
X44894401Y-49728260D01*
X44937658Y-49581995D01*
X45002693Y-49282739D01*
X45079699Y-48878232D01*
X45138594Y-48539400D01*
X45275266Y-47545896D01*
X45321410Y-46700441D01*
X45272341Y-45966906D01*
X45123374Y-45309161D01*
X44869824Y-44691078D01*
X44572873Y-44176539D01*
X44339415Y-43777901D01*
X44130653Y-43357478D01*
X44008166Y-43051768D01*
X43841916Y-42543487D01*
X43331539Y-43280843D01*
X42814586Y-44091335D01*
X42454123Y-44814323D01*
X42240997Y-45480003D01*
X42166057Y-46118569D01*
X40830446Y-46118569D01*
X40830370Y-45924940D01*
X40872677Y-45459873D01*
X40966779Y-45029137D01*
X41012696Y-44874217D01*
X41224851Y-44356817D01*
X41567812Y-43725386D01*
X42024765Y-43005530D01*
X42578895Y-42222854D01*
X43213389Y-41402966D01*
X43333758Y-41257016D01*
X44622583Y-41257016D01*
X44674893Y-41654668D01*
X44815670Y-42165552D01*
X45049269Y-42807897D01*
X45380043Y-43599932D01*
X45536295Y-43953268D01*
X45857056Y-44706565D01*
X46080951Y-45344707D01*
X46213415Y-45921284D01*
X46259880Y-46489883D01*
X46225783Y-47104092D01*
X46116557Y-47817499D01*
X45991109Y-48438220D01*
X45838411Y-49199429D01*
X45746377Y-49784062D01*
X45713538Y-50209011D01*
X45738424Y-50491168D01*
X45800692Y-50627613D01*
X45874990Y-50682390D01*
X45944990Y-50629232D01*
X46028150Y-50439279D01*
X46141927Y-50083670D01*
X46153962Y-50043567D01*
X46292386Y-49584622D01*
X46459802Y-49034944D01*
X46624731Y-48497790D01*
X46658964Y-48387000D01*
X46824365Y-47780169D01*
X46915029Y-47230618D01*
X46949477Y-46619155D01*
X46951011Y-46507400D01*
X46943240Y-45972732D01*
X46901945Y-45487817D01*
X46816266Y-45019438D01*
X46675343Y-44534377D01*
X46621488Y-44395214D01*
X47352356Y-44395214D01*
X47359815Y-44432090D01*
X47422279Y-44521126D01*
X47536692Y-44497367D01*
X47732112Y-44369874D01*
X47995650Y-44134111D01*
X48247474Y-43836139D01*
X48287394Y-43778457D01*
X48444743Y-43476739D01*
X48601735Y-43074823D01*
X48699562Y-42750858D01*
X48782444Y-42345191D01*
X48816482Y-41933970D01*
X48798395Y-41478673D01*
X48728323Y-40965812D01*
X49663430Y-40965812D01*
X49670936Y-41149072D01*
X49765378Y-41224200D01*
X49907455Y-41166874D01*
X50134029Y-41023123D01*
X50223640Y-40957331D01*
X50627430Y-40578699D01*
X51052827Y-40038923D01*
X51506597Y-39327782D01*
X51995506Y-38435056D01*
X52308374Y-37808334D01*
X52721335Y-36989316D01*
X53092559Y-36334925D01*
X53444944Y-35817142D01*
X53801388Y-35407948D01*
X54184791Y-35079323D01*
X54618052Y-34803248D01*
X54873342Y-34669829D01*
X55329331Y-34472244D01*
X55822718Y-34300413D01*
X56242118Y-34192551D01*
X56883637Y-34073909D01*
X56597718Y-33921766D01*
X56349523Y-33841064D01*
X55963042Y-33773781D01*
X55503175Y-33730860D01*
X55448200Y-33727965D01*
X54647217Y-33752134D01*
X53960189Y-33918667D01*
X53342937Y-34242312D01*
X52930659Y-34568502D01*
X52655676Y-34844222D01*
X52403411Y-35166004D01*
X52159451Y-35561077D01*
X51909382Y-36056671D01*
X51638791Y-36680015D01*
X51333265Y-37458338D01*
X51170250Y-37894221D01*
X50871103Y-38684664D01*
X50618763Y-39305341D01*
X50401154Y-39780968D01*
X50206203Y-40136261D01*
X50021835Y-40395937D01*
X49870730Y-40554270D01*
X49733689Y-40744260D01*
X49663430Y-40965812D01*
X48728323Y-40965812D01*
X48724902Y-40940780D01*
X48592721Y-40281770D01*
X48430545Y-39592605D01*
X48302566Y-39034577D01*
X48189288Y-38473231D01*
X48103704Y-37977181D01*
X48060863Y-37640558D01*
X48026903Y-37280151D01*
X48005267Y-37160200D01*
X49205921Y-37160200D01*
X49220830Y-37716430D01*
X49265853Y-38320863D01*
X49332022Y-38860421D01*
X49348602Y-38959615D01*
X49424014Y-39363299D01*
X49482425Y-39597932D01*
X49538983Y-39695103D01*
X49608837Y-39686401D01*
X49672619Y-39635264D01*
X49766585Y-39482959D01*
X49901337Y-39176715D01*
X50060520Y-38757594D01*
X50227778Y-38266657D01*
X50267953Y-38140649D01*
X50515325Y-37361734D01*
X50717730Y-36746053D01*
X50887365Y-36261847D01*
X51036426Y-35877355D01*
X51177112Y-35560819D01*
X51321620Y-35280478D01*
X51455342Y-35048968D01*
X51804467Y-34516497D01*
X52156806Y-34105202D01*
X52580720Y-33743788D01*
X52959000Y-33480755D01*
X53568600Y-33080106D01*
X53162200Y-33150884D01*
X52478090Y-33314840D01*
X51778061Y-33561053D01*
X51112648Y-33865510D01*
X50532386Y-34204200D01*
X50087810Y-34553111D01*
X49984316Y-34660878D01*
X49592990Y-35242407D01*
X49339274Y-35945669D01*
X49218250Y-36786451D01*
X49205921Y-37160200D01*
X48005267Y-37160200D01*
X47992498Y-37089412D01*
X47940883Y-37035468D01*
X47855294Y-37085445D01*
X47801805Y-37132558D01*
X47693139Y-37261179D01*
X47641509Y-37433027D01*
X47636434Y-37707485D01*
X47653441Y-37973000D01*
X47699150Y-38332370D01*
X47785683Y-38823386D01*
X47900654Y-39381583D01*
X48031680Y-39942499D01*
X48032385Y-39945326D01*
X48175404Y-40544503D01*
X48266832Y-41008186D01*
X48314465Y-41395205D01*
X48326099Y-41764395D01*
X48315140Y-42078926D01*
X48256093Y-42663969D01*
X48133920Y-43121200D01*
X47920965Y-43522886D01*
X47612334Y-43915502D01*
X47416640Y-44187798D01*
X47352356Y-44395214D01*
X46621488Y-44395214D01*
X46468314Y-43999417D01*
X46184321Y-43381342D01*
X45812503Y-42646935D01*
X45489419Y-42037000D01*
X45288688Y-41629619D01*
X45124609Y-41236371D01*
X45026839Y-40929849D01*
X45017115Y-40880898D01*
X44953239Y-40486796D01*
X44765946Y-40728498D01*
X44654386Y-40954369D01*
X44622583Y-41257016D01*
X43333758Y-41257016D01*
X43599772Y-40934472D01*
X43999842Y-40442104D01*
X44194609Y-40187090D01*
X45545523Y-40187090D01*
X45555262Y-40438967D01*
X45590987Y-40672407D01*
X45667005Y-40927466D01*
X45797620Y-41244199D01*
X45997136Y-41662661D01*
X46255593Y-42175359D01*
X46502986Y-42653776D01*
X46719845Y-43060694D01*
X46889063Y-43364979D01*
X46993534Y-43535498D01*
X47016968Y-43561000D01*
X47098841Y-43483367D01*
X47246933Y-43285410D01*
X47344167Y-43140633D01*
X47608741Y-42562419D01*
X47707913Y-41932443D01*
X47640939Y-41355950D01*
X47551998Y-41083986D01*
X47410178Y-40716731D01*
X47233852Y-40294791D01*
X47041395Y-39858773D01*
X46851181Y-39449284D01*
X46681585Y-39106930D01*
X46550981Y-38872318D01*
X46478065Y-38786049D01*
X46365815Y-38850129D01*
X46158858Y-39016034D01*
X45970065Y-39185130D01*
X45729537Y-39422514D01*
X45602143Y-39613683D01*
X45552579Y-39841956D01*
X45545523Y-40187090D01*
X44194609Y-40187090D01*
X44399260Y-39919135D01*
X44755403Y-39423315D01*
X45025648Y-39012395D01*
X45057425Y-38959476D01*
X45629737Y-38098970D01*
X46258588Y-37384365D01*
X46997829Y-36758376D01*
X47374905Y-36494284D01*
X47814960Y-36186228D01*
X48124365Y-35924658D01*
X48352493Y-35661815D01*
X48537793Y-35369400D01*
X49079070Y-34610917D01*
X49793374Y-33934924D01*
X50662239Y-33355933D01*
X51667200Y-32888455D01*
X51719976Y-32868535D01*
X52130098Y-32725739D01*
X52495229Y-32629471D01*
X52882650Y-32568011D01*
X53359642Y-32529639D01*
X53775123Y-32510537D01*
X54432310Y-32496611D01*
X54946518Y-32514801D01*
G37*
X54946518Y-32514801D02*
X55375968Y-32568782D01*
X55654723Y-32629174D01*
X56467746Y-32895981D01*
X57228094Y-33262240D01*
X57871113Y-33695162D01*
X58034749Y-33836147D01*
X58289905Y-34082858D01*
X58417716Y-34255085D01*
X58446974Y-34408386D01*
X58414722Y-34569400D01*
X58350542Y-34741873D01*
X58243355Y-34842394D01*
X58037944Y-34900870D01*
X57727041Y-34941866D01*
X56789151Y-35147904D01*
X55891522Y-35545257D01*
X55350855Y-35895085D01*
X54917748Y-36246775D01*
X54555488Y-36625525D01*
X54230582Y-37076249D01*
X53909538Y-37643858D01*
X53649783Y-38176200D01*
X53270130Y-38986372D01*
X52960846Y-39635950D01*
X52708040Y-40149244D01*
X52497822Y-40550567D01*
X52316303Y-40864232D01*
X52149593Y-41114549D01*
X51983802Y-41325832D01*
X51805040Y-41522393D01*
X51646967Y-41681819D01*
X51289684Y-42022716D01*
X50999821Y-42259268D01*
X50708244Y-42437605D01*
X50345819Y-42603861D01*
X50139600Y-42687661D01*
X49883951Y-42817084D01*
X49774554Y-42969798D01*
X49756368Y-43124015D01*
X49660507Y-43618375D01*
X49397603Y-44139331D01*
X48993646Y-44650016D01*
X48474628Y-45113562D01*
X48236113Y-45280454D01*
X47675800Y-45643800D01*
X47668566Y-46913800D01*
X47662084Y-47453401D01*
X47642131Y-47863057D01*
X47597245Y-48209375D01*
X47515958Y-48558959D01*
X47386807Y-48978416D01*
X47236766Y-49422331D01*
X47027544Y-50051396D01*
X46892373Y-50529917D01*
X46832264Y-50896967D01*
X46848230Y-51191622D01*
X46941282Y-51452957D01*
X47112432Y-51720046D01*
X47302454Y-51959515D01*
X47883614Y-52708398D01*
X48369778Y-53446385D01*
X48788735Y-54225645D01*
X49168271Y-55098348D01*
X49536173Y-56116665D01*
X49568726Y-56214407D01*
X49837214Y-56971367D01*
X50100806Y-57574103D01*
X50390441Y-58068410D01*
X50737058Y-58500078D01*
X51171593Y-58914901D01*
X51659003Y-59308304D01*
X52321268Y-59835679D01*
X53019306Y-60425488D01*
X53711649Y-61040169D01*
X54356834Y-61642157D01*
X54913394Y-62193889D01*
X55279452Y-62588033D01*
X55587450Y-62919970D01*
X55872525Y-63168811D01*
X56179576Y-63356847D01*
X56553499Y-63506367D01*
X57039192Y-63639662D01*
X57676132Y-63777918D01*
X59144783Y-64171780D01*
X60651337Y-64761513D01*
X62190227Y-65544492D01*
X63755882Y-66518093D01*
X64312800Y-66906011D01*
X64756017Y-67236794D01*
X65023300Y-67469204D01*
X65114093Y-67603665D01*
X65027844Y-67640599D01*
X64763997Y-67580427D01*
X64321998Y-67423571D01*
X63871627Y-67242058D01*
X62766083Y-66849517D01*
X61689170Y-66615635D01*
X60564805Y-66524927D01*
X60336635Y-66522600D01*
X59874623Y-66528361D01*
X59427779Y-66548426D01*
X58962942Y-66586965D01*
X58446952Y-66648148D01*
X57846646Y-66736147D01*
X57128863Y-66855130D01*
X56260442Y-67009269D01*
X55803800Y-67092658D01*
X55133394Y-67210797D01*
X54466864Y-67319261D01*
X53854877Y-67410449D01*
X53348099Y-67476758D01*
X53035200Y-67508078D01*
X52651483Y-67544614D01*
X52360125Y-67589012D01*
X52208387Y-67633430D01*
X52197000Y-67647125D01*
X52284665Y-67720588D01*
X52510812Y-67827888D01*
X52730400Y-67911434D01*
X53001412Y-67990443D01*
X53309511Y-68043869D01*
X53698407Y-68075616D01*
X54211810Y-68089587D01*
X54737000Y-68090609D01*
X55401801Y-68080969D01*
X55942036Y-68053100D01*
X56436119Y-67998167D01*
X56962468Y-67907335D01*
X57599498Y-67771769D01*
X57632600Y-67764345D01*
X58462196Y-67581643D01*
X59135000Y-67444023D01*
X59691128Y-67346394D01*
X60170696Y-67283666D01*
X60613821Y-67250749D01*
X61060617Y-67242552D01*
X61551202Y-67253984D01*
X61630375Y-67257050D01*
X62369263Y-67308029D01*
X62970111Y-67406440D01*
X63495959Y-67570449D01*
X64009850Y-67818224D01*
X64404367Y-68056461D01*
X64764038Y-68327779D01*
X65107172Y-68656388D01*
X65399106Y-69000340D01*
X65605174Y-69317690D01*
X65690713Y-69566491D01*
X65689435Y-69611494D01*
X65589301Y-69807872D01*
X65406444Y-69862112D01*
X65202464Y-69775120D01*
X65064336Y-69602297D01*
X64700141Y-69117365D01*
X64165696Y-68710600D01*
X63481471Y-68390051D01*
X62667936Y-68163768D01*
X61745560Y-68039801D01*
X61036200Y-68018304D01*
X60573526Y-68031044D01*
X60152694Y-68065032D01*
X59719322Y-68128887D01*
X59219025Y-68231228D01*
X58597423Y-68380673D01*
X58343800Y-68445022D01*
X57382306Y-68681172D01*
X56577525Y-68854202D01*
X55894494Y-68968448D01*
X55298251Y-69028248D01*
X54753832Y-69037940D01*
X54226274Y-69001861D01*
X54038500Y-68979137D01*
X53282473Y-68850342D01*
X52672165Y-68676190D01*
X52151661Y-68436506D01*
X51694224Y-68133364D01*
X51357861Y-67910918D01*
X50997319Y-67752426D01*
X50535618Y-67626592D01*
X50352078Y-67587736D01*
X49575329Y-67405653D01*
X48734353Y-67166266D01*
X47909252Y-66894709D01*
X47180129Y-66616114D01*
X46981597Y-66530226D01*
X46023394Y-66041877D01*
X45102543Y-65461770D01*
X44255689Y-64818863D01*
X43589899Y-64206853D01*
X44602902Y-64206853D01*
X44685686Y-64293296D01*
X44887461Y-64447282D01*
X45930165Y-65118228D01*
X47102524Y-65680484D01*
X48348839Y-66108629D01*
X48759856Y-66214502D01*
X50062684Y-66461240D01*
X51316153Y-66565221D01*
X52578814Y-66526860D01*
X53909217Y-66346571D01*
X54381400Y-66254267D01*
X55022957Y-66120090D01*
X55752529Y-65967257D01*
X56459293Y-65818992D01*
X56819800Y-65743254D01*
X57347538Y-65637876D01*
X57784068Y-65568727D01*
X58195409Y-65530779D01*
X58647582Y-65519006D01*
X59206607Y-65528378D01*
X59512200Y-65538210D01*
X60059694Y-65561178D01*
X60552282Y-65589059D01*
X60945578Y-65618817D01*
X61195195Y-65647417D01*
X61239400Y-65656326D01*
X61319184Y-65665567D01*
X61242079Y-65613659D01*
X61040045Y-65514462D01*
X60745043Y-65381832D01*
X60389032Y-65229629D01*
X60003974Y-65071711D01*
X59621828Y-64921935D01*
X59274556Y-64794161D01*
X59161179Y-64755194D01*
X58341897Y-64515776D01*
X57496602Y-64343398D01*
X56595648Y-64236446D01*
X55609389Y-64193310D01*
X54508179Y-64212375D01*
X53262371Y-64292030D01*
X52298600Y-64381924D01*
X51282175Y-64484001D01*
X50434859Y-64561945D01*
X49724117Y-64616746D01*
X49117417Y-64649394D01*
X48582226Y-64660881D01*
X48086010Y-64652197D01*
X47596237Y-64624331D01*
X47080373Y-64578275D01*
X46806132Y-64549137D01*
X46248444Y-64483425D01*
X45735253Y-64415339D01*
X45313959Y-64351709D01*
X45031963Y-64299359D01*
X44978002Y-64285852D01*
X44697445Y-64209536D01*
X44602902Y-64206853D01*
X43589899Y-64206853D01*
X43519474Y-64142117D01*
X42930540Y-63460489D01*
X42729607Y-63169800D01*
X42287992Y-62465111D01*
X41947436Y-61886669D01*
X41695668Y-61392061D01*
X41520416Y-60938874D01*
X41409406Y-60484694D01*
X41350367Y-59987110D01*
X41331026Y-59403707D01*
X41339111Y-58692073D01*
X41346539Y-58389945D01*
X41358248Y-57943686D01*
X42623920Y-57943686D01*
X42660660Y-58806484D01*
X42687114Y-59251128D01*
X42737203Y-59574324D01*
X42835058Y-59857823D01*
X43004811Y-60183376D01*
X43130440Y-60397991D01*
X43808586Y-61352811D01*
X44611373Y-62153250D01*
X45526066Y-62790726D01*
X46539928Y-63256660D01*
X47640223Y-63542471D01*
X47844582Y-63573866D01*
X48242274Y-63606173D01*
X48787155Y-63619492D01*
X49424224Y-63615081D01*
X50098481Y-63594196D01*
X50754926Y-63558093D01*
X51338558Y-63508031D01*
X51490649Y-63490549D01*
X52030544Y-63423800D01*
X51613536Y-63148096D01*
X51364076Y-62966593D01*
X51014402Y-62690578D01*
X50615614Y-62361170D01*
X50305714Y-62095693D01*
X49740838Y-61617804D01*
X49244257Y-61239851D01*
X48770285Y-60938706D01*
X48273236Y-60691240D01*
X47707425Y-60474326D01*
X47027165Y-60264837D01*
X46304200Y-60069976D01*
X45433445Y-59815585D01*
X44718756Y-59537092D01*
X44112998Y-59211004D01*
X43569036Y-58813826D01*
X43291922Y-58568569D01*
X42623920Y-57943686D01*
X41358248Y-57943686D01*
X41369578Y-57511883D01*
X43389191Y-57511883D01*
X43447230Y-57589986D01*
X43614341Y-57724766D01*
X43858091Y-57892035D01*
X44146048Y-58067603D01*
X44393056Y-58201120D01*
X44686276Y-58331842D01*
X45126531Y-58506257D01*
X45667090Y-58706864D01*
X46261221Y-58916161D01*
X46670534Y-59054039D01*
X47498634Y-59337129D01*
X48176158Y-59596424D01*
X48749756Y-59857034D01*
X49266079Y-60144069D01*
X49771777Y-60482638D01*
X50313502Y-60897853D01*
X50727128Y-61237519D01*
X51356903Y-61744525D01*
X51901824Y-62132176D01*
X52414809Y-62430476D01*
X52948777Y-62669431D01*
X53556647Y-62879046D01*
X53697808Y-62921897D01*
X54213658Y-63068702D01*
X54548312Y-63145265D01*
X54711428Y-63151091D01*
X54712664Y-63085686D01*
X54561677Y-62948554D01*
X54472843Y-62882204D01*
X54247540Y-62706774D01*
X53912888Y-62431321D01*
X53511077Y-62091196D01*
X53084298Y-61721749D01*
X53009800Y-61656373D01*
X51693977Y-60585885D01*
X50395319Y-59706814D01*
X49098602Y-59009978D01*
X47788601Y-58486192D01*
X47713563Y-58461472D01*
X47348006Y-58356000D01*
X46838258Y-58227424D01*
X46240062Y-58088911D01*
X45609164Y-57953625D01*
X45301455Y-57891812D01*
X44735226Y-57779820D01*
X44231208Y-57678065D01*
X43826595Y-57594219D01*
X43558580Y-57535952D01*
X43472655Y-57514646D01*
X43389191Y-57511883D01*
X41369578Y-57511883D01*
X41393577Y-56597353D01*
X41037458Y-56353336D01*
X40496973Y-55876226D01*
X40013537Y-55245373D01*
X39609729Y-54507291D01*
X39308128Y-53708492D01*
X39131310Y-52895488D01*
X39093865Y-52349400D01*
X39151604Y-51667589D01*
X39234031Y-51262937D01*
X40298366Y-51262937D01*
X40368123Y-52306870D01*
X40568960Y-53206441D01*
X40906514Y-53977146D01*
X41386426Y-54634481D01*
X41606029Y-54856585D01*
X41977588Y-55175913D01*
X42365108Y-55441041D01*
X42816181Y-55677461D01*
X43378400Y-55910663D01*
X43967400Y-56121356D01*
X44479307Y-56294252D01*
X44824845Y-56401116D01*
X45029401Y-56443140D01*
X45118364Y-56421516D01*
X45117122Y-56337435D01*
X45051062Y-56192089D01*
X45040579Y-56171737D01*
X44928103Y-55927739D01*
X44779195Y-55570362D01*
X44627680Y-55181137D01*
X44393292Y-54627132D01*
X44116620Y-54129538D01*
X43767357Y-53647250D01*
X43315198Y-53139162D01*
X42729836Y-52564170D01*
X42628251Y-52469220D01*
X41984594Y-51836610D01*
X41492783Y-51268740D01*
X41127964Y-50730012D01*
X40865283Y-50184827D01*
X40713956Y-49727308D01*
X40591000Y-49281471D01*
X41833800Y-49281471D01*
X41876591Y-49402816D01*
X41989714Y-49654288D01*
X42150290Y-49985452D01*
X42180431Y-50045590D01*
X42338487Y-50347878D01*
X42492143Y-50602902D01*
X42668844Y-50842080D01*
X42896035Y-51096828D01*
X43201160Y-51398561D01*
X43611664Y-51778696D01*
X44004045Y-52133102D01*
X44615351Y-52722708D01*
X45144816Y-53329758D01*
X45624675Y-53999249D01*
X46087164Y-54776174D01*
X46564518Y-55705529D01*
X46566784Y-55710197D01*
X46821731Y-56230701D01*
X47011895Y-56598309D01*
X47159364Y-56843817D01*
X47286228Y-56998023D01*
X47414572Y-57091726D01*
X47566486Y-57155723D01*
X47615324Y-57172206D01*
X47955867Y-57308476D01*
X48266479Y-57469621D01*
X48304581Y-57493740D01*
X48501511Y-57620891D01*
X48603927Y-57681836D01*
X48606743Y-57682730D01*
X48571626Y-57595444D01*
X48464006Y-57352022D01*
X48296651Y-56980772D01*
X48082325Y-56510002D01*
X47833796Y-55968019D01*
X47816670Y-55930800D01*
X47421724Y-55087321D01*
X47076939Y-54397818D01*
X46755750Y-53828103D01*
X46431595Y-53343994D01*
X46077912Y-52911304D01*
X45668136Y-52495849D01*
X45175706Y-52063445D01*
X44574057Y-51579906D01*
X44226002Y-51309840D01*
X43743660Y-50927969D01*
X43253609Y-50522664D01*
X42812303Y-50141620D01*
X42476199Y-49832531D01*
X42468800Y-49825326D01*
X42186993Y-49558252D01*
X41969372Y-49367090D01*
X41848233Y-49279499D01*
X41833800Y-49281471D01*
X40591000Y-49281471D01*
X40540456Y-49098200D01*
X40416734Y-49688137D01*
X40361135Y-50064147D01*
X40319848Y-50556751D01*
X40299370Y-51079493D01*
X40298366Y-51262937D01*
X39234031Y-51262937D01*
X39311580Y-50882234D01*
X39554878Y-50052921D01*
X39862581Y-49239238D01*
X40215773Y-48500772D01*
X40432345Y-48133000D01*
X40857158Y-47472600D01*
X40830596Y-46507400D01*
X40830446Y-46118569D01*
X42166057Y-46118569D01*
X42220149Y-46760217D01*
X42242154Y-46874857D01*
X42387418Y-47391428D01*
X42599962Y-47917835D01*
X42848980Y-48389812D01*
X43103670Y-48743095D01*
X43169816Y-48810167D01*
X43425792Y-49014141D01*
X43751456Y-49230082D01*
X44102717Y-49434516D01*
X44435482Y-49603971D01*
X44705657Y-49714974D01*
X44869152Y-49744052D01*
X44894401Y-49728260D01*
X44937658Y-49581995D01*
X45002693Y-49282739D01*
X45079699Y-48878232D01*
X45138594Y-48539400D01*
X45275266Y-47545896D01*
X45321410Y-46700441D01*
X45272341Y-45966906D01*
X45123374Y-45309161D01*
X44869824Y-44691078D01*
X44572873Y-44176539D01*
X44339415Y-43777901D01*
X44130653Y-43357478D01*
X44008166Y-43051768D01*
X43841916Y-42543487D01*
X43331539Y-43280843D01*
X42814586Y-44091335D01*
X42454123Y-44814323D01*
X42240997Y-45480003D01*
X42166057Y-46118569D01*
X40830446Y-46118569D01*
X40830370Y-45924940D01*
X40872677Y-45459873D01*
X40966779Y-45029137D01*
X41012696Y-44874217D01*
X41224851Y-44356817D01*
X41567812Y-43725386D01*
X42024765Y-43005530D01*
X42578895Y-42222854D01*
X43213389Y-41402966D01*
X43333758Y-41257016D01*
X44622583Y-41257016D01*
X44674893Y-41654668D01*
X44815670Y-42165552D01*
X45049269Y-42807897D01*
X45380043Y-43599932D01*
X45536295Y-43953268D01*
X45857056Y-44706565D01*
X46080951Y-45344707D01*
X46213415Y-45921284D01*
X46259880Y-46489883D01*
X46225783Y-47104092D01*
X46116557Y-47817499D01*
X45991109Y-48438220D01*
X45838411Y-49199429D01*
X45746377Y-49784062D01*
X45713538Y-50209011D01*
X45738424Y-50491168D01*
X45800692Y-50627613D01*
X45874990Y-50682390D01*
X45944990Y-50629232D01*
X46028150Y-50439279D01*
X46141927Y-50083670D01*
X46153962Y-50043567D01*
X46292386Y-49584622D01*
X46459802Y-49034944D01*
X46624731Y-48497790D01*
X46658964Y-48387000D01*
X46824365Y-47780169D01*
X46915029Y-47230618D01*
X46949477Y-46619155D01*
X46951011Y-46507400D01*
X46943240Y-45972732D01*
X46901945Y-45487817D01*
X46816266Y-45019438D01*
X46675343Y-44534377D01*
X46621488Y-44395214D01*
X47352356Y-44395214D01*
X47359815Y-44432090D01*
X47422279Y-44521126D01*
X47536692Y-44497367D01*
X47732112Y-44369874D01*
X47995650Y-44134111D01*
X48247474Y-43836139D01*
X48287394Y-43778457D01*
X48444743Y-43476739D01*
X48601735Y-43074823D01*
X48699562Y-42750858D01*
X48782444Y-42345191D01*
X48816482Y-41933970D01*
X48798395Y-41478673D01*
X48728323Y-40965812D01*
X49663430Y-40965812D01*
X49670936Y-41149072D01*
X49765378Y-41224200D01*
X49907455Y-41166874D01*
X50134029Y-41023123D01*
X50223640Y-40957331D01*
X50627430Y-40578699D01*
X51052827Y-40038923D01*
X51506597Y-39327782D01*
X51995506Y-38435056D01*
X52308374Y-37808334D01*
X52721335Y-36989316D01*
X53092559Y-36334925D01*
X53444944Y-35817142D01*
X53801388Y-35407948D01*
X54184791Y-35079323D01*
X54618052Y-34803248D01*
X54873342Y-34669829D01*
X55329331Y-34472244D01*
X55822718Y-34300413D01*
X56242118Y-34192551D01*
X56883637Y-34073909D01*
X56597718Y-33921766D01*
X56349523Y-33841064D01*
X55963042Y-33773781D01*
X55503175Y-33730860D01*
X55448200Y-33727965D01*
X54647217Y-33752134D01*
X53960189Y-33918667D01*
X53342937Y-34242312D01*
X52930659Y-34568502D01*
X52655676Y-34844222D01*
X52403411Y-35166004D01*
X52159451Y-35561077D01*
X51909382Y-36056671D01*
X51638791Y-36680015D01*
X51333265Y-37458338D01*
X51170250Y-37894221D01*
X50871103Y-38684664D01*
X50618763Y-39305341D01*
X50401154Y-39780968D01*
X50206203Y-40136261D01*
X50021835Y-40395937D01*
X49870730Y-40554270D01*
X49733689Y-40744260D01*
X49663430Y-40965812D01*
X48728323Y-40965812D01*
X48724902Y-40940780D01*
X48592721Y-40281770D01*
X48430545Y-39592605D01*
X48302566Y-39034577D01*
X48189288Y-38473231D01*
X48103704Y-37977181D01*
X48060863Y-37640558D01*
X48026903Y-37280151D01*
X48005267Y-37160200D01*
X49205921Y-37160200D01*
X49220830Y-37716430D01*
X49265853Y-38320863D01*
X49332022Y-38860421D01*
X49348602Y-38959615D01*
X49424014Y-39363299D01*
X49482425Y-39597932D01*
X49538983Y-39695103D01*
X49608837Y-39686401D01*
X49672619Y-39635264D01*
X49766585Y-39482959D01*
X49901337Y-39176715D01*
X50060520Y-38757594D01*
X50227778Y-38266657D01*
X50267953Y-38140649D01*
X50515325Y-37361734D01*
X50717730Y-36746053D01*
X50887365Y-36261847D01*
X51036426Y-35877355D01*
X51177112Y-35560819D01*
X51321620Y-35280478D01*
X51455342Y-35048968D01*
X51804467Y-34516497D01*
X52156806Y-34105202D01*
X52580720Y-33743788D01*
X52959000Y-33480755D01*
X53568600Y-33080106D01*
X53162200Y-33150884D01*
X52478090Y-33314840D01*
X51778061Y-33561053D01*
X51112648Y-33865510D01*
X50532386Y-34204200D01*
X50087810Y-34553111D01*
X49984316Y-34660878D01*
X49592990Y-35242407D01*
X49339274Y-35945669D01*
X49218250Y-36786451D01*
X49205921Y-37160200D01*
X48005267Y-37160200D01*
X47992498Y-37089412D01*
X47940883Y-37035468D01*
X47855294Y-37085445D01*
X47801805Y-37132558D01*
X47693139Y-37261179D01*
X47641509Y-37433027D01*
X47636434Y-37707485D01*
X47653441Y-37973000D01*
X47699150Y-38332370D01*
X47785683Y-38823386D01*
X47900654Y-39381583D01*
X48031680Y-39942499D01*
X48032385Y-39945326D01*
X48175404Y-40544503D01*
X48266832Y-41008186D01*
X48314465Y-41395205D01*
X48326099Y-41764395D01*
X48315140Y-42078926D01*
X48256093Y-42663969D01*
X48133920Y-43121200D01*
X47920965Y-43522886D01*
X47612334Y-43915502D01*
X47416640Y-44187798D01*
X47352356Y-44395214D01*
X46621488Y-44395214D01*
X46468314Y-43999417D01*
X46184321Y-43381342D01*
X45812503Y-42646935D01*
X45489419Y-42037000D01*
X45288688Y-41629619D01*
X45124609Y-41236371D01*
X45026839Y-40929849D01*
X45017115Y-40880898D01*
X44953239Y-40486796D01*
X44765946Y-40728498D01*
X44654386Y-40954369D01*
X44622583Y-41257016D01*
X43333758Y-41257016D01*
X43599772Y-40934472D01*
X43999842Y-40442104D01*
X44194609Y-40187090D01*
X45545523Y-40187090D01*
X45555262Y-40438967D01*
X45590987Y-40672407D01*
X45667005Y-40927466D01*
X45797620Y-41244199D01*
X45997136Y-41662661D01*
X46255593Y-42175359D01*
X46502986Y-42653776D01*
X46719845Y-43060694D01*
X46889063Y-43364979D01*
X46993534Y-43535498D01*
X47016968Y-43561000D01*
X47098841Y-43483367D01*
X47246933Y-43285410D01*
X47344167Y-43140633D01*
X47608741Y-42562419D01*
X47707913Y-41932443D01*
X47640939Y-41355950D01*
X47551998Y-41083986D01*
X47410178Y-40716731D01*
X47233852Y-40294791D01*
X47041395Y-39858773D01*
X46851181Y-39449284D01*
X46681585Y-39106930D01*
X46550981Y-38872318D01*
X46478065Y-38786049D01*
X46365815Y-38850129D01*
X46158858Y-39016034D01*
X45970065Y-39185130D01*
X45729537Y-39422514D01*
X45602143Y-39613683D01*
X45552579Y-39841956D01*
X45545523Y-40187090D01*
X44194609Y-40187090D01*
X44399260Y-39919135D01*
X44755403Y-39423315D01*
X45025648Y-39012395D01*
X45057425Y-38959476D01*
X45629737Y-38098970D01*
X46258588Y-37384365D01*
X46997829Y-36758376D01*
X47374905Y-36494284D01*
X47814960Y-36186228D01*
X48124365Y-35924658D01*
X48352493Y-35661815D01*
X48537793Y-35369400D01*
X49079070Y-34610917D01*
X49793374Y-33934924D01*
X50662239Y-33355933D01*
X51667200Y-32888455D01*
X51719976Y-32868535D01*
X52130098Y-32725739D01*
X52495229Y-32629471D01*
X52882650Y-32568011D01*
X53359642Y-32529639D01*
X53775123Y-32510537D01*
X54432310Y-32496611D01*
X54946518Y-32514801D01*
G36*
X59087957Y-90913186D02*
G01*
X59501459Y-90939782D01*
X59927542Y-90991739D01*
X60077740Y-91017034D01*
X60698403Y-91180160D01*
X61286008Y-91444282D01*
X61858696Y-91825007D01*
X62434606Y-92337941D01*
X63031881Y-92998693D01*
X63668659Y-93822869D01*
X64169170Y-94537112D01*
X64690090Y-95283175D01*
X65144747Y-95878548D01*
X65562048Y-96352081D01*
X65970897Y-96732621D01*
X66400201Y-97049015D01*
X66878865Y-97330112D01*
X67063271Y-97425426D01*
X68225328Y-97955887D01*
X69277476Y-98322192D01*
X70227073Y-98526134D01*
X71081480Y-98569504D01*
X71554638Y-98518649D01*
X71873982Y-98451665D01*
X72177336Y-98357913D01*
X72482238Y-98224136D01*
X72806226Y-98037074D01*
X73166838Y-97783466D01*
X73581611Y-97450052D01*
X74068083Y-97023575D01*
X74643791Y-96490772D01*
X75326275Y-95838386D01*
X76115540Y-95070310D01*
X76980313Y-94230228D01*
X77721243Y-93526161D01*
X78354290Y-92946658D01*
X78895412Y-92480269D01*
X79360567Y-92115544D01*
X79765715Y-91841031D01*
X80126814Y-91645281D01*
X80459822Y-91516844D01*
X80780699Y-91444268D01*
X81105402Y-91416103D01*
X81210577Y-91414600D01*
X81557066Y-91449637D01*
X81722866Y-91551278D01*
X81701406Y-91714320D01*
X81660456Y-91770854D01*
X81554267Y-92024844D01*
X81497113Y-92463873D01*
X81489221Y-93075729D01*
X81530823Y-93848201D01*
X81606690Y-94634621D01*
X81694828Y-95655897D01*
X81707625Y-96554026D01*
X81640838Y-97396217D01*
X81490220Y-98249682D01*
X81339512Y-98864193D01*
X81195632Y-99320161D01*
X81009714Y-99737227D01*
X80763136Y-100135583D01*
X80437276Y-100535422D01*
X80013510Y-100956938D01*
X79473215Y-101420322D01*
X78797770Y-101945767D01*
X77968550Y-102553467D01*
X77875517Y-102620209D01*
X76909617Y-103259222D01*
X75938242Y-103802661D01*
X75013111Y-104222749D01*
X74632686Y-104361803D01*
X74142203Y-104517685D01*
X73814816Y-104598715D01*
X73625612Y-104607137D01*
X73549682Y-104545198D01*
X73550950Y-104459366D01*
X73664006Y-104337794D01*
X73941632Y-104183854D01*
X74345800Y-104017590D01*
X75483492Y-103527419D01*
X76658484Y-102884313D01*
X77822771Y-102119764D01*
X78928349Y-101265262D01*
X79915971Y-100363552D01*
X80240126Y-100021983D01*
X80475643Y-99716211D01*
X80652409Y-99389331D01*
X80800310Y-98984437D01*
X80949234Y-98444624D01*
X80972802Y-98351317D01*
X81056470Y-97991469D01*
X81115727Y-97655341D01*
X81153994Y-97297552D01*
X81174695Y-96872720D01*
X81181251Y-96335466D01*
X81177107Y-95642429D01*
X81167105Y-94915699D01*
X81152352Y-94367601D01*
X81129494Y-93973569D01*
X81095176Y-93709039D01*
X81046043Y-93549448D01*
X80978740Y-93470231D01*
X80889913Y-93446825D01*
X80877217Y-93446600D01*
X80687923Y-93516525D01*
X80421100Y-93695960D01*
X80130594Y-93939395D01*
X79870248Y-94201320D01*
X79693908Y-94436224D01*
X79683403Y-94455631D01*
X79618845Y-94664988D01*
X79550296Y-95028706D01*
X79485468Y-95498284D01*
X79432074Y-96025222D01*
X79430208Y-96047737D01*
X79361767Y-96833379D01*
X79300166Y-97432619D01*
X79243244Y-97862055D01*
X79188841Y-98138286D01*
X79141198Y-98268049D01*
X79076932Y-98223523D01*
X78948033Y-98027648D01*
X78774631Y-97713750D01*
X78619518Y-97404449D01*
X78372154Y-96919350D01*
X78178987Y-96606395D01*
X78026832Y-96446024D01*
X77952600Y-96415275D01*
X77770469Y-96467209D01*
X77465566Y-96644830D01*
X77061992Y-96933404D01*
X76903334Y-97056747D01*
X76478080Y-97405114D01*
X76163624Y-97707173D01*
X75943122Y-98003583D01*
X75799734Y-98335003D01*
X75716617Y-98742091D01*
X75676930Y-99265506D01*
X75663829Y-99945907D01*
X75663186Y-100050600D01*
X75655311Y-101523800D01*
X75432355Y-101224373D01*
X75229500Y-100967585D01*
X74968857Y-100657221D01*
X74842821Y-100513173D01*
X74609434Y-100233649D01*
X74420784Y-99977458D01*
X74356647Y-99872799D01*
X74177269Y-99639643D01*
X73996641Y-99486677D01*
X73859738Y-99412871D01*
X73705553Y-99382581D01*
X73482342Y-99396481D01*
X73138362Y-99455242D01*
X72909160Y-99500794D01*
X72280049Y-99586146D01*
X71529282Y-99620801D01*
X70702723Y-99608813D01*
X69846235Y-99554233D01*
X69005682Y-99461116D01*
X68226929Y-99333514D01*
X67555838Y-99175480D01*
X67038275Y-98991066D01*
X67014434Y-98979886D01*
X66740258Y-98880565D01*
X66522168Y-98854655D01*
X66485494Y-98862886D01*
X66354167Y-98965077D01*
X66135590Y-99187535D01*
X65867723Y-99490485D01*
X65739660Y-99644383D01*
X65151000Y-100365567D01*
X65080655Y-99979483D01*
X65051725Y-99721381D01*
X65027442Y-99318984D01*
X65010655Y-98831193D01*
X65004455Y-98403605D01*
X65001184Y-97882475D01*
X64983434Y-97519827D01*
X64930217Y-97271046D01*
X64820543Y-97091518D01*
X64633422Y-96936630D01*
X64347867Y-96761767D01*
X64188151Y-96668482D01*
X63701106Y-96307981D01*
X63268166Y-95852978D01*
X63225377Y-95797139D01*
X62819050Y-95252079D01*
X62564223Y-95593939D01*
X62378670Y-95819560D01*
X62097048Y-96134995D01*
X61767532Y-96486937D01*
X61612561Y-96647000D01*
X60915725Y-97358200D01*
X60968879Y-96951800D01*
X61019308Y-96519867D01*
X61069894Y-96006244D01*
X61117825Y-95450786D01*
X61160290Y-94893353D01*
X61194479Y-94373801D01*
X61217579Y-93931987D01*
X61226780Y-93607769D01*
X61219270Y-93441005D01*
X61217049Y-93433300D01*
X61113576Y-93313450D01*
X60880949Y-93111051D01*
X60557737Y-92858269D01*
X60310278Y-92677135D01*
X59461400Y-92071836D01*
X59423268Y-93953018D01*
X59402555Y-94966058D01*
X59386257Y-95797436D01*
X59375575Y-96468664D01*
X59371709Y-97001252D01*
X59375858Y-97416714D01*
X59389224Y-97736560D01*
X59413005Y-97982304D01*
X59448402Y-98175457D01*
X59496615Y-98337530D01*
X59558844Y-98490037D01*
X59636289Y-98654488D01*
X59692042Y-98770972D01*
X60083267Y-99416984D01*
X60655818Y-100099018D01*
X61393908Y-100803744D01*
X62281746Y-101517833D01*
X63303544Y-102227956D01*
X64443513Y-102920783D01*
X64922400Y-103186490D01*
X65320413Y-103408269D01*
X65642083Y-103600049D01*
X65851080Y-103739337D01*
X65913000Y-103799800D01*
X65869063Y-103915127D01*
X65718111Y-103936650D01*
X65431425Y-103863860D01*
X65216102Y-103787418D01*
X64670459Y-103543993D01*
X64017164Y-103190097D01*
X63297348Y-102753655D01*
X62552144Y-102262592D01*
X61822683Y-101744830D01*
X61150099Y-101228296D01*
X60575523Y-100740913D01*
X60216286Y-100393098D01*
X59729970Y-99835450D01*
X59356142Y-99290349D01*
X59087045Y-98725739D01*
X58914922Y-98109560D01*
X58832017Y-97409754D01*
X58830572Y-96594265D01*
X58902831Y-95631033D01*
X58953400Y-95173800D01*
X59058770Y-94063835D01*
X59089042Y-93137396D01*
X59043719Y-92389000D01*
X58922303Y-91813163D01*
X58724298Y-91404401D01*
X58598812Y-91263116D01*
X58447037Y-91097195D01*
X58394600Y-90992453D01*
X58487361Y-90938832D01*
X58734202Y-90912640D01*
X59087957Y-90913186D01*
G37*
X59087957Y-90913186D02*
X59501459Y-90939782D01*
X59927542Y-90991739D01*
X60077740Y-91017034D01*
X60698403Y-91180160D01*
X61286008Y-91444282D01*
X61858696Y-91825007D01*
X62434606Y-92337941D01*
X63031881Y-92998693D01*
X63668659Y-93822869D01*
X64169170Y-94537112D01*
X64690090Y-95283175D01*
X65144747Y-95878548D01*
X65562048Y-96352081D01*
X65970897Y-96732621D01*
X66400201Y-97049015D01*
X66878865Y-97330112D01*
X67063271Y-97425426D01*
X68225328Y-97955887D01*
X69277476Y-98322192D01*
X70227073Y-98526134D01*
X71081480Y-98569504D01*
X71554638Y-98518649D01*
X71873982Y-98451665D01*
X72177336Y-98357913D01*
X72482238Y-98224136D01*
X72806226Y-98037074D01*
X73166838Y-97783466D01*
X73581611Y-97450052D01*
X74068083Y-97023575D01*
X74643791Y-96490772D01*
X75326275Y-95838386D01*
X76115540Y-95070310D01*
X76980313Y-94230228D01*
X77721243Y-93526161D01*
X78354290Y-92946658D01*
X78895412Y-92480269D01*
X79360567Y-92115544D01*
X79765715Y-91841031D01*
X80126814Y-91645281D01*
X80459822Y-91516844D01*
X80780699Y-91444268D01*
X81105402Y-91416103D01*
X81210577Y-91414600D01*
X81557066Y-91449637D01*
X81722866Y-91551278D01*
X81701406Y-91714320D01*
X81660456Y-91770854D01*
X81554267Y-92024844D01*
X81497113Y-92463873D01*
X81489221Y-93075729D01*
X81530823Y-93848201D01*
X81606690Y-94634621D01*
X81694828Y-95655897D01*
X81707625Y-96554026D01*
X81640838Y-97396217D01*
X81490220Y-98249682D01*
X81339512Y-98864193D01*
X81195632Y-99320161D01*
X81009714Y-99737227D01*
X80763136Y-100135583D01*
X80437276Y-100535422D01*
X80013510Y-100956938D01*
X79473215Y-101420322D01*
X78797770Y-101945767D01*
X77968550Y-102553467D01*
X77875517Y-102620209D01*
X76909617Y-103259222D01*
X75938242Y-103802661D01*
X75013111Y-104222749D01*
X74632686Y-104361803D01*
X74142203Y-104517685D01*
X73814816Y-104598715D01*
X73625612Y-104607137D01*
X73549682Y-104545198D01*
X73550950Y-104459366D01*
X73664006Y-104337794D01*
X73941632Y-104183854D01*
X74345800Y-104017590D01*
X75483492Y-103527419D01*
X76658484Y-102884313D01*
X77822771Y-102119764D01*
X78928349Y-101265262D01*
X79915971Y-100363552D01*
X80240126Y-100021983D01*
X80475643Y-99716211D01*
X80652409Y-99389331D01*
X80800310Y-98984437D01*
X80949234Y-98444624D01*
X80972802Y-98351317D01*
X81056470Y-97991469D01*
X81115727Y-97655341D01*
X81153994Y-97297552D01*
X81174695Y-96872720D01*
X81181251Y-96335466D01*
X81177107Y-95642429D01*
X81167105Y-94915699D01*
X81152352Y-94367601D01*
X81129494Y-93973569D01*
X81095176Y-93709039D01*
X81046043Y-93549448D01*
X80978740Y-93470231D01*
X80889913Y-93446825D01*
X80877217Y-93446600D01*
X80687923Y-93516525D01*
X80421100Y-93695960D01*
X80130594Y-93939395D01*
X79870248Y-94201320D01*
X79693908Y-94436224D01*
X79683403Y-94455631D01*
X79618845Y-94664988D01*
X79550296Y-95028706D01*
X79485468Y-95498284D01*
X79432074Y-96025222D01*
X79430208Y-96047737D01*
X79361767Y-96833379D01*
X79300166Y-97432619D01*
X79243244Y-97862055D01*
X79188841Y-98138286D01*
X79141198Y-98268049D01*
X79076932Y-98223523D01*
X78948033Y-98027648D01*
X78774631Y-97713750D01*
X78619518Y-97404449D01*
X78372154Y-96919350D01*
X78178987Y-96606395D01*
X78026832Y-96446024D01*
X77952600Y-96415275D01*
X77770469Y-96467209D01*
X77465566Y-96644830D01*
X77061992Y-96933404D01*
X76903334Y-97056747D01*
X76478080Y-97405114D01*
X76163624Y-97707173D01*
X75943122Y-98003583D01*
X75799734Y-98335003D01*
X75716617Y-98742091D01*
X75676930Y-99265506D01*
X75663829Y-99945907D01*
X75663186Y-100050600D01*
X75655311Y-101523800D01*
X75432355Y-101224373D01*
X75229500Y-100967585D01*
X74968857Y-100657221D01*
X74842821Y-100513173D01*
X74609434Y-100233649D01*
X74420784Y-99977458D01*
X74356647Y-99872799D01*
X74177269Y-99639643D01*
X73996641Y-99486677D01*
X73859738Y-99412871D01*
X73705553Y-99382581D01*
X73482342Y-99396481D01*
X73138362Y-99455242D01*
X72909160Y-99500794D01*
X72280049Y-99586146D01*
X71529282Y-99620801D01*
X70702723Y-99608813D01*
X69846235Y-99554233D01*
X69005682Y-99461116D01*
X68226929Y-99333514D01*
X67555838Y-99175480D01*
X67038275Y-98991066D01*
X67014434Y-98979886D01*
X66740258Y-98880565D01*
X66522168Y-98854655D01*
X66485494Y-98862886D01*
X66354167Y-98965077D01*
X66135590Y-99187535D01*
X65867723Y-99490485D01*
X65739660Y-99644383D01*
X65151000Y-100365567D01*
X65080655Y-99979483D01*
X65051725Y-99721381D01*
X65027442Y-99318984D01*
X65010655Y-98831193D01*
X65004455Y-98403605D01*
X65001184Y-97882475D01*
X64983434Y-97519827D01*
X64930217Y-97271046D01*
X64820543Y-97091518D01*
X64633422Y-96936630D01*
X64347867Y-96761767D01*
X64188151Y-96668482D01*
X63701106Y-96307981D01*
X63268166Y-95852978D01*
X63225377Y-95797139D01*
X62819050Y-95252079D01*
X62564223Y-95593939D01*
X62378670Y-95819560D01*
X62097048Y-96134995D01*
X61767532Y-96486937D01*
X61612561Y-96647000D01*
X60915725Y-97358200D01*
X60968879Y-96951800D01*
X61019308Y-96519867D01*
X61069894Y-96006244D01*
X61117825Y-95450786D01*
X61160290Y-94893353D01*
X61194479Y-94373801D01*
X61217579Y-93931987D01*
X61226780Y-93607769D01*
X61219270Y-93441005D01*
X61217049Y-93433300D01*
X61113576Y-93313450D01*
X60880949Y-93111051D01*
X60557737Y-92858269D01*
X60310278Y-92677135D01*
X59461400Y-92071836D01*
X59423268Y-93953018D01*
X59402555Y-94966058D01*
X59386257Y-95797436D01*
X59375575Y-96468664D01*
X59371709Y-97001252D01*
X59375858Y-97416714D01*
X59389224Y-97736560D01*
X59413005Y-97982304D01*
X59448402Y-98175457D01*
X59496615Y-98337530D01*
X59558844Y-98490037D01*
X59636289Y-98654488D01*
X59692042Y-98770972D01*
X60083267Y-99416984D01*
X60655818Y-100099018D01*
X61393908Y-100803744D01*
X62281746Y-101517833D01*
X63303544Y-102227956D01*
X64443513Y-102920783D01*
X64922400Y-103186490D01*
X65320413Y-103408269D01*
X65642083Y-103600049D01*
X65851080Y-103739337D01*
X65913000Y-103799800D01*
X65869063Y-103915127D01*
X65718111Y-103936650D01*
X65431425Y-103863860D01*
X65216102Y-103787418D01*
X64670459Y-103543993D01*
X64017164Y-103190097D01*
X63297348Y-102753655D01*
X62552144Y-102262592D01*
X61822683Y-101744830D01*
X61150099Y-101228296D01*
X60575523Y-100740913D01*
X60216286Y-100393098D01*
X59729970Y-99835450D01*
X59356142Y-99290349D01*
X59087045Y-98725739D01*
X58914922Y-98109560D01*
X58832017Y-97409754D01*
X58830572Y-96594265D01*
X58902831Y-95631033D01*
X58953400Y-95173800D01*
X59058770Y-94063835D01*
X59089042Y-93137396D01*
X59043719Y-92389000D01*
X58922303Y-91813163D01*
X58724298Y-91404401D01*
X58598812Y-91263116D01*
X58447037Y-91097195D01*
X58394600Y-90992453D01*
X58487361Y-90938832D01*
X58734202Y-90912640D01*
X59087957Y-90913186D01*
%TO.C,G2*%
G36*
X66891080Y-99519100D02*
G01*
X67135071Y-99589842D01*
X67473427Y-99703100D01*
X67559145Y-99733520D01*
X68905712Y-100116853D01*
X70272261Y-100313888D01*
X71632940Y-100323755D01*
X72961896Y-100145585D01*
X73753232Y-99941952D01*
X73942092Y-99987744D01*
X74173466Y-100218709D01*
X74181575Y-100229266D01*
X74440484Y-100568714D01*
X74086481Y-101509351D01*
X73565404Y-103102309D01*
X73230963Y-104616586D01*
X73082958Y-106053401D01*
X73121192Y-107413971D01*
X73123438Y-107436315D01*
X73191154Y-107987319D01*
X73286041Y-108543675D01*
X73416138Y-109135939D01*
X73589486Y-109794666D01*
X73814127Y-110550408D01*
X74098100Y-111433722D01*
X74449447Y-112475161D01*
X74449535Y-112475416D01*
X74798499Y-113524068D01*
X75071671Y-114422370D01*
X75276561Y-115205316D01*
X75420678Y-115907895D01*
X75511531Y-116565101D01*
X75556631Y-117211924D01*
X75565000Y-117673042D01*
X75549063Y-118327703D01*
X75496178Y-118956873D01*
X75398728Y-119590106D01*
X75249100Y-120256954D01*
X75039678Y-120986967D01*
X74762847Y-121809698D01*
X74410993Y-122754699D01*
X73976500Y-123851522D01*
X73966676Y-123875800D01*
X73561015Y-124911919D01*
X73144294Y-126038064D01*
X72732014Y-127208106D01*
X72339680Y-128375918D01*
X71982793Y-129495371D01*
X71676856Y-130520338D01*
X71440432Y-131392556D01*
X71307215Y-131934099D01*
X71213408Y-132368704D01*
X71152217Y-132755579D01*
X71116846Y-133153932D01*
X71100500Y-133622969D01*
X71096385Y-134221898D01*
X71096461Y-134389756D01*
X71179648Y-136318796D01*
X71428509Y-138156273D01*
X71848811Y-139936006D01*
X72255262Y-141185319D01*
X72404961Y-141601907D01*
X72524692Y-141941677D01*
X72599989Y-142163166D01*
X72618600Y-142226719D01*
X72535713Y-142261212D01*
X72467573Y-142265400D01*
X72344505Y-142191714D01*
X72126162Y-141991891D01*
X71845060Y-141697782D01*
X71578573Y-141394509D01*
X70711679Y-140318948D01*
X69913238Y-139224281D01*
X69198164Y-138135865D01*
X68581371Y-137079061D01*
X68077776Y-136079228D01*
X67702292Y-135161725D01*
X67489601Y-134442200D01*
X67405861Y-133910857D01*
X67356626Y-133238134D01*
X67341956Y-132482910D01*
X67361911Y-131704064D01*
X67416550Y-130960474D01*
X67485527Y-130429000D01*
X67573289Y-129928573D01*
X67673508Y-129440781D01*
X67795031Y-128933701D01*
X67946707Y-128375410D01*
X68137382Y-127733983D01*
X68375906Y-126977499D01*
X68671125Y-126074034D01*
X68801269Y-125681768D01*
X69036166Y-124962791D01*
X69265656Y-124236375D01*
X69475760Y-123548564D01*
X69652498Y-122945403D01*
X69781892Y-122472938D01*
X69812244Y-122351800D01*
X70102114Y-120917986D01*
X70243765Y-119601944D01*
X70233343Y-118378443D01*
X70066993Y-117222252D01*
X69740859Y-116108141D01*
X69251087Y-115010878D01*
X68593820Y-113905234D01*
X68500398Y-113766219D01*
X68206150Y-113333074D01*
X67891139Y-112868513D01*
X67621410Y-112469939D01*
X67611040Y-112454589D01*
X67231642Y-111830209D01*
X66852677Y-111096850D01*
X66509110Y-110330098D01*
X66235909Y-109605536D01*
X66126420Y-109245400D01*
X65923180Y-108356889D01*
X65793479Y-107453156D01*
X65738334Y-106507861D01*
X65749606Y-105948715D01*
X68616099Y-105948715D01*
X68616257Y-106502200D01*
X68625123Y-107182580D01*
X68647704Y-107710799D01*
X68688831Y-108137703D01*
X68753332Y-108514135D01*
X68841663Y-108874985D01*
X69136831Y-109749630D01*
X69573481Y-110740552D01*
X70142207Y-111827924D01*
X70667414Y-112723686D01*
X71202900Y-113620327D01*
X71627566Y-114390111D01*
X71953344Y-115068112D01*
X72192164Y-115689407D01*
X72355957Y-116289071D01*
X72456655Y-116902179D01*
X72506190Y-117563807D01*
X72517000Y-118161092D01*
X72505336Y-118769600D01*
X72465930Y-119349934D01*
X72392157Y-119933439D01*
X72277394Y-120551457D01*
X72115016Y-121235333D01*
X71898401Y-122016408D01*
X71620924Y-122926028D01*
X71298580Y-123926600D01*
X70939102Y-125038892D01*
X70645761Y-125982676D01*
X70412464Y-126779372D01*
X70233119Y-127450400D01*
X70101633Y-128017181D01*
X70032133Y-128378762D01*
X69996956Y-128687988D01*
X69974824Y-129097049D01*
X69965501Y-129553841D01*
X69968751Y-130006259D01*
X69984338Y-130402199D01*
X70012026Y-130689557D01*
X70043139Y-130806909D01*
X70114375Y-130822699D01*
X70181496Y-130669939D01*
X70235522Y-130383223D01*
X70267474Y-129997142D01*
X70269779Y-129933765D01*
X70323582Y-129387083D01*
X70454432Y-128669863D01*
X70658278Y-127797884D01*
X70931068Y-126786925D01*
X71268754Y-125652762D01*
X71667283Y-124411174D01*
X71755246Y-124147445D01*
X72112063Y-123072414D01*
X72404262Y-122160488D01*
X72638031Y-121384308D01*
X72819556Y-120716514D01*
X72955023Y-120129745D01*
X73050620Y-119596643D01*
X73112533Y-119089848D01*
X73146950Y-118581999D01*
X73160056Y-118045736D01*
X73160665Y-117932200D01*
X73148386Y-117259920D01*
X73100320Y-116654543D01*
X73005643Y-116085283D01*
X72853533Y-115521355D01*
X72633164Y-114931973D01*
X72333714Y-114286353D01*
X71944359Y-113553709D01*
X71454275Y-112703255D01*
X71133885Y-112167530D01*
X70800965Y-111604796D01*
X70486294Y-111052598D01*
X70213346Y-110553648D01*
X70005599Y-110150660D01*
X69902717Y-109927512D01*
X69445849Y-108556997D01*
X69181522Y-107144059D01*
X69109731Y-105711209D01*
X69230474Y-104280961D01*
X69543744Y-102875826D01*
X69904215Y-101854000D01*
X70023418Y-101537593D01*
X70087718Y-101310100D01*
X70083776Y-101219126D01*
X70082147Y-101219000D01*
X69985158Y-101308768D01*
X69838016Y-101553207D01*
X69657191Y-101915019D01*
X69459148Y-102356907D01*
X69260355Y-102841571D01*
X69077280Y-103331715D01*
X68926390Y-103790040D01*
X68887052Y-103925837D01*
X68777366Y-104340314D01*
X68701098Y-104695895D01*
X68652577Y-105046525D01*
X68626134Y-105446151D01*
X68616099Y-105948715D01*
X65749606Y-105948715D01*
X65758761Y-105494667D01*
X65855776Y-104387236D01*
X66030394Y-103159229D01*
X66283631Y-101784308D01*
X66443866Y-101015800D01*
X66557027Y-100496500D01*
X66656271Y-100052278D01*
X66733423Y-99718873D01*
X66780306Y-99532026D01*
X66789464Y-99505121D01*
X66891080Y-99519100D01*
G37*
X66891080Y-99519100D02*
X67135071Y-99589842D01*
X67473427Y-99703100D01*
X67559145Y-99733520D01*
X68905712Y-100116853D01*
X70272261Y-100313888D01*
X71632940Y-100323755D01*
X72961896Y-100145585D01*
X73753232Y-99941952D01*
X73942092Y-99987744D01*
X74173466Y-100218709D01*
X74181575Y-100229266D01*
X74440484Y-100568714D01*
X74086481Y-101509351D01*
X73565404Y-103102309D01*
X73230963Y-104616586D01*
X73082958Y-106053401D01*
X73121192Y-107413971D01*
X73123438Y-107436315D01*
X73191154Y-107987319D01*
X73286041Y-108543675D01*
X73416138Y-109135939D01*
X73589486Y-109794666D01*
X73814127Y-110550408D01*
X74098100Y-111433722D01*
X74449447Y-112475161D01*
X74449535Y-112475416D01*
X74798499Y-113524068D01*
X75071671Y-114422370D01*
X75276561Y-115205316D01*
X75420678Y-115907895D01*
X75511531Y-116565101D01*
X75556631Y-117211924D01*
X75565000Y-117673042D01*
X75549063Y-118327703D01*
X75496178Y-118956873D01*
X75398728Y-119590106D01*
X75249100Y-120256954D01*
X75039678Y-120986967D01*
X74762847Y-121809698D01*
X74410993Y-122754699D01*
X73976500Y-123851522D01*
X73966676Y-123875800D01*
X73561015Y-124911919D01*
X73144294Y-126038064D01*
X72732014Y-127208106D01*
X72339680Y-128375918D01*
X71982793Y-129495371D01*
X71676856Y-130520338D01*
X71440432Y-131392556D01*
X71307215Y-131934099D01*
X71213408Y-132368704D01*
X71152217Y-132755579D01*
X71116846Y-133153932D01*
X71100500Y-133622969D01*
X71096385Y-134221898D01*
X71096461Y-134389756D01*
X71179648Y-136318796D01*
X71428509Y-138156273D01*
X71848811Y-139936006D01*
X72255262Y-141185319D01*
X72404961Y-141601907D01*
X72524692Y-141941677D01*
X72599989Y-142163166D01*
X72618600Y-142226719D01*
X72535713Y-142261212D01*
X72467573Y-142265400D01*
X72344505Y-142191714D01*
X72126162Y-141991891D01*
X71845060Y-141697782D01*
X71578573Y-141394509D01*
X70711679Y-140318948D01*
X69913238Y-139224281D01*
X69198164Y-138135865D01*
X68581371Y-137079061D01*
X68077776Y-136079228D01*
X67702292Y-135161725D01*
X67489601Y-134442200D01*
X67405861Y-133910857D01*
X67356626Y-133238134D01*
X67341956Y-132482910D01*
X67361911Y-131704064D01*
X67416550Y-130960474D01*
X67485527Y-130429000D01*
X67573289Y-129928573D01*
X67673508Y-129440781D01*
X67795031Y-128933701D01*
X67946707Y-128375410D01*
X68137382Y-127733983D01*
X68375906Y-126977499D01*
X68671125Y-126074034D01*
X68801269Y-125681768D01*
X69036166Y-124962791D01*
X69265656Y-124236375D01*
X69475760Y-123548564D01*
X69652498Y-122945403D01*
X69781892Y-122472938D01*
X69812244Y-122351800D01*
X70102114Y-120917986D01*
X70243765Y-119601944D01*
X70233343Y-118378443D01*
X70066993Y-117222252D01*
X69740859Y-116108141D01*
X69251087Y-115010878D01*
X68593820Y-113905234D01*
X68500398Y-113766219D01*
X68206150Y-113333074D01*
X67891139Y-112868513D01*
X67621410Y-112469939D01*
X67611040Y-112454589D01*
X67231642Y-111830209D01*
X66852677Y-111096850D01*
X66509110Y-110330098D01*
X66235909Y-109605536D01*
X66126420Y-109245400D01*
X65923180Y-108356889D01*
X65793479Y-107453156D01*
X65738334Y-106507861D01*
X65749606Y-105948715D01*
X68616099Y-105948715D01*
X68616257Y-106502200D01*
X68625123Y-107182580D01*
X68647704Y-107710799D01*
X68688831Y-108137703D01*
X68753332Y-108514135D01*
X68841663Y-108874985D01*
X69136831Y-109749630D01*
X69573481Y-110740552D01*
X70142207Y-111827924D01*
X70667414Y-112723686D01*
X71202900Y-113620327D01*
X71627566Y-114390111D01*
X71953344Y-115068112D01*
X72192164Y-115689407D01*
X72355957Y-116289071D01*
X72456655Y-116902179D01*
X72506190Y-117563807D01*
X72517000Y-118161092D01*
X72505336Y-118769600D01*
X72465930Y-119349934D01*
X72392157Y-119933439D01*
X72277394Y-120551457D01*
X72115016Y-121235333D01*
X71898401Y-122016408D01*
X71620924Y-122926028D01*
X71298580Y-123926600D01*
X70939102Y-125038892D01*
X70645761Y-125982676D01*
X70412464Y-126779372D01*
X70233119Y-127450400D01*
X70101633Y-128017181D01*
X70032133Y-128378762D01*
X69996956Y-128687988D01*
X69974824Y-129097049D01*
X69965501Y-129553841D01*
X69968751Y-130006259D01*
X69984338Y-130402199D01*
X70012026Y-130689557D01*
X70043139Y-130806909D01*
X70114375Y-130822699D01*
X70181496Y-130669939D01*
X70235522Y-130383223D01*
X70267474Y-129997142D01*
X70269779Y-129933765D01*
X70323582Y-129387083D01*
X70454432Y-128669863D01*
X70658278Y-127797884D01*
X70931068Y-126786925D01*
X71268754Y-125652762D01*
X71667283Y-124411174D01*
X71755246Y-124147445D01*
X72112063Y-123072414D01*
X72404262Y-122160488D01*
X72638031Y-121384308D01*
X72819556Y-120716514D01*
X72955023Y-120129745D01*
X73050620Y-119596643D01*
X73112533Y-119089848D01*
X73146950Y-118581999D01*
X73160056Y-118045736D01*
X73160665Y-117932200D01*
X73148386Y-117259920D01*
X73100320Y-116654543D01*
X73005643Y-116085283D01*
X72853533Y-115521355D01*
X72633164Y-114931973D01*
X72333714Y-114286353D01*
X71944359Y-113553709D01*
X71454275Y-112703255D01*
X71133885Y-112167530D01*
X70800965Y-111604796D01*
X70486294Y-111052598D01*
X70213346Y-110553648D01*
X70005599Y-110150660D01*
X69902717Y-109927512D01*
X69445849Y-108556997D01*
X69181522Y-107144059D01*
X69109731Y-105711209D01*
X69230474Y-104280961D01*
X69543744Y-102875826D01*
X69904215Y-101854000D01*
X70023418Y-101537593D01*
X70087718Y-101310100D01*
X70083776Y-101219126D01*
X70082147Y-101219000D01*
X69985158Y-101308768D01*
X69838016Y-101553207D01*
X69657191Y-101915019D01*
X69459148Y-102356907D01*
X69260355Y-102841571D01*
X69077280Y-103331715D01*
X68926390Y-103790040D01*
X68887052Y-103925837D01*
X68777366Y-104340314D01*
X68701098Y-104695895D01*
X68652577Y-105046525D01*
X68626134Y-105446151D01*
X68616099Y-105948715D01*
X65749606Y-105948715D01*
X65758761Y-105494667D01*
X65855776Y-104387236D01*
X66030394Y-103159229D01*
X66283631Y-101784308D01*
X66443866Y-101015800D01*
X66557027Y-100496500D01*
X66656271Y-100052278D01*
X66733423Y-99718873D01*
X66780306Y-99532026D01*
X66789464Y-99505121D01*
X66891080Y-99519100D01*
G36*
X81436250Y-82620838D02*
G01*
X81885926Y-82805223D01*
X82347102Y-83115850D01*
X82826337Y-83530140D01*
X83559707Y-84120151D01*
X84307873Y-84536630D01*
X84756800Y-84706436D01*
X84803978Y-84754546D01*
X84733121Y-84843266D01*
X84526368Y-84985579D01*
X84165855Y-85194470D01*
X83842400Y-85371136D01*
X83411365Y-85600525D01*
X83045097Y-85790104D01*
X82780503Y-85921148D01*
X82654489Y-85974930D01*
X82651600Y-85975329D01*
X82605542Y-85887034D01*
X82578439Y-85660099D01*
X82575400Y-85536824D01*
X82485758Y-85026439D01*
X82213537Y-84592412D01*
X81753796Y-84227825D01*
X81566475Y-84124800D01*
X80945089Y-83902084D01*
X80336768Y-83851407D01*
X79770627Y-83959398D01*
X79275783Y-84212689D01*
X78881351Y-84597910D01*
X78616448Y-85101691D01*
X78523162Y-85522234D01*
X78460600Y-86077330D01*
X77952600Y-85785949D01*
X77633287Y-85584782D01*
X77363012Y-85383555D01*
X77252350Y-85281017D01*
X77144988Y-85147079D01*
X77124068Y-85029616D01*
X77199044Y-84863853D01*
X77346754Y-84634303D01*
X77700136Y-84162336D01*
X78127895Y-83684118D01*
X78576208Y-83254095D01*
X78991254Y-82926717D01*
X79107709Y-82852846D01*
X79427269Y-82697963D01*
X79783280Y-82603670D01*
X80251701Y-82551205D01*
X80355436Y-82544661D01*
X80944083Y-82541161D01*
X81436250Y-82620838D01*
G37*
X81436250Y-82620838D02*
X81885926Y-82805223D01*
X82347102Y-83115850D01*
X82826337Y-83530140D01*
X83559707Y-84120151D01*
X84307873Y-84536630D01*
X84756800Y-84706436D01*
X84803978Y-84754546D01*
X84733121Y-84843266D01*
X84526368Y-84985579D01*
X84165855Y-85194470D01*
X83842400Y-85371136D01*
X83411365Y-85600525D01*
X83045097Y-85790104D01*
X82780503Y-85921148D01*
X82654489Y-85974930D01*
X82651600Y-85975329D01*
X82605542Y-85887034D01*
X82578439Y-85660099D01*
X82575400Y-85536824D01*
X82485758Y-85026439D01*
X82213537Y-84592412D01*
X81753796Y-84227825D01*
X81566475Y-84124800D01*
X80945089Y-83902084D01*
X80336768Y-83851407D01*
X79770627Y-83959398D01*
X79275783Y-84212689D01*
X78881351Y-84597910D01*
X78616448Y-85101691D01*
X78523162Y-85522234D01*
X78460600Y-86077330D01*
X77952600Y-85785949D01*
X77633287Y-85584782D01*
X77363012Y-85383555D01*
X77252350Y-85281017D01*
X77144988Y-85147079D01*
X77124068Y-85029616D01*
X77199044Y-84863853D01*
X77346754Y-84634303D01*
X77700136Y-84162336D01*
X78127895Y-83684118D01*
X78576208Y-83254095D01*
X78991254Y-82926717D01*
X79107709Y-82852846D01*
X79427269Y-82697963D01*
X79783280Y-82603670D01*
X80251701Y-82551205D01*
X80355436Y-82544661D01*
X80944083Y-82541161D01*
X81436250Y-82620838D01*
G36*
X62277065Y-82467110D02*
G01*
X62899526Y-82625289D01*
X63485585Y-82935608D01*
X64058442Y-83411741D01*
X64641297Y-84067362D01*
X64885016Y-84386430D01*
X65107517Y-84695442D01*
X65222337Y-84889540D01*
X65244933Y-85015444D01*
X65190765Y-85119878D01*
X65145145Y-85172669D01*
X64979231Y-85320254D01*
X64723336Y-85512164D01*
X64434481Y-85709986D01*
X64169684Y-85875303D01*
X63985967Y-85969701D01*
X63948305Y-85979000D01*
X63903960Y-85889535D01*
X63881634Y-85669328D01*
X63881000Y-85620136D01*
X63785655Y-85075303D01*
X63521134Y-84586708D01*
X63119710Y-84183959D01*
X62613653Y-83896661D01*
X62035235Y-83754422D01*
X61836373Y-83744366D01*
X61462294Y-83800015D01*
X61016188Y-83946543D01*
X60587412Y-84151358D01*
X60407079Y-84265699D01*
X60148669Y-84525824D01*
X59930359Y-84878121D01*
X59785959Y-85251248D01*
X59749280Y-85573860D01*
X59759387Y-85632428D01*
X59769392Y-85826017D01*
X59707026Y-85877400D01*
X59577450Y-85831662D01*
X59309094Y-85707163D01*
X58941275Y-85522973D01*
X58517801Y-85300573D01*
X58068438Y-85056801D01*
X57777252Y-84888249D01*
X57621961Y-84776731D01*
X57580282Y-84704064D01*
X57629932Y-84652062D01*
X57689910Y-84624955D01*
X58302883Y-84355276D01*
X58797694Y-84070438D01*
X59256169Y-83719290D01*
X59522469Y-83479381D01*
X59990031Y-83062842D01*
X60381330Y-82777351D01*
X60748874Y-82596761D01*
X61145169Y-82494930D01*
X61595000Y-82447397D01*
X62277065Y-82467110D01*
G37*
X62277065Y-82467110D02*
X62899526Y-82625289D01*
X63485585Y-82935608D01*
X64058442Y-83411741D01*
X64641297Y-84067362D01*
X64885016Y-84386430D01*
X65107517Y-84695442D01*
X65222337Y-84889540D01*
X65244933Y-85015444D01*
X65190765Y-85119878D01*
X65145145Y-85172669D01*
X64979231Y-85320254D01*
X64723336Y-85512164D01*
X64434481Y-85709986D01*
X64169684Y-85875303D01*
X63985967Y-85969701D01*
X63948305Y-85979000D01*
X63903960Y-85889535D01*
X63881634Y-85669328D01*
X63881000Y-85620136D01*
X63785655Y-85075303D01*
X63521134Y-84586708D01*
X63119710Y-84183959D01*
X62613653Y-83896661D01*
X62035235Y-83754422D01*
X61836373Y-83744366D01*
X61462294Y-83800015D01*
X61016188Y-83946543D01*
X60587412Y-84151358D01*
X60407079Y-84265699D01*
X60148669Y-84525824D01*
X59930359Y-84878121D01*
X59785959Y-85251248D01*
X59749280Y-85573860D01*
X59759387Y-85632428D01*
X59769392Y-85826017D01*
X59707026Y-85877400D01*
X59577450Y-85831662D01*
X59309094Y-85707163D01*
X58941275Y-85522973D01*
X58517801Y-85300573D01*
X58068438Y-85056801D01*
X57777252Y-84888249D01*
X57621961Y-84776731D01*
X57580282Y-84704064D01*
X57629932Y-84652062D01*
X57689910Y-84624955D01*
X58302883Y-84355276D01*
X58797694Y-84070438D01*
X59256169Y-83719290D01*
X59522469Y-83479381D01*
X59990031Y-83062842D01*
X60381330Y-82777351D01*
X60748874Y-82596761D01*
X61145169Y-82494930D01*
X61595000Y-82447397D01*
X62277065Y-82467110D01*
%TD*%
D11*
%TO.C,SW1*%
X45134541Y-69192092D03*
X45655486Y-72146516D03*
%TD*%
%TO.C,SW2*%
X97466527Y-71638299D03*
X98242984Y-68740522D03*
%TD*%
D12*
%TO.C,REF\u002A\u002A*%
X94742000Y-76454000D03*
%TD*%
%TO.C,REF\u002A\u002A*%
X48641000Y-76581000D03*
%TD*%
%TO.C,REF\u002A\u002A*%
X85471000Y-34163000D03*
%TD*%
%TO.C,REF\u002A\u002A*%
X57023000Y-34036000D03*
%TD*%
M02*
