M48
; DRILL file {KiCad (5.1.8)-1} date 11/12/21 17:00:30
; FORMAT={-:-/ absolute / inch / decimal}
; #@! TF.CreationDate,2021-11-12T17:00:30-08:00
; #@! TF.GenerationSoftware,Kicad,Pcbnew,(5.1.8)-1
; #@! TF.FileFunction,Plated,1,2,PTH
FMAT,2
INCH
T1C0.0100
T2C0.0512
%
G90
G05
T1
X1.94Y-2.88
X2.265Y-4.29
X2.28Y-3.43
X2.43Y-4.285
X2.545Y-4.365
X2.6Y-5.29
X2.92Y-3.85
X2.975Y-5.06
X3.03Y-3.43
X3.145Y-4.745
X3.205Y-4.09
X3.235Y-3.935
X3.25Y-3.705
X3.29Y-4.745
X3.33Y-4.15
X3.375Y-3.975
X3.43Y-4.37
X3.48Y-3.9
T2
X1.915Y-3.015
X3.73Y-3.01
X3.365Y-1.345
X2.245Y-1.34
T0
M30
