%TF.GenerationSoftware,KiCad,Pcbnew,(5.1.8)-1*%
%TF.CreationDate,2021-11-12T17:25:14-08:00*%
%TF.ProjectId,Krampus,4b72616d-7075-4732-9e6b-696361645f70,rev?*%
%TF.SameCoordinates,Original*%
%TF.FileFunction,Profile,NP*%
%FSLAX46Y46*%
G04 Gerber Fmt 4.6, Leading zero omitted, Abs format (unit mm)*
G04 Created by KiCad (PCBNEW (5.1.8)-1) date 2021-11-12 17:25:14*
%MOMM*%
%LPD*%
G01*
G04 APERTURE LIST*
%TA.AperFunction,Profile*%
%ADD10C,0.002080*%
%TD*%
G04 APERTURE END LIST*
D10*
X57508437Y-62531698D02*
X57216234Y-62393160D01*
X45047471Y-36691816D02*
G75*
G02*
X45434965Y-36344681I3591888J-3619639D01*
G01*
X40095335Y-60778812D02*
X40186344Y-61574172D01*
X42758326Y-39880210D02*
X41081919Y-42160278D01*
X39085176Y-62981210D02*
G75*
G02*
X39173318Y-62682101I949578J-117284D01*
G01*
X39407373Y-45663230D02*
G75*
G02*
X39453169Y-45246729I3310642J-153252D01*
G01*
X46679179Y-35370418D02*
X46053976Y-35860452D01*
X49663775Y-32181395D02*
G75*
G02*
X50862697Y-31540448I3562739J-5222473D01*
G01*
X40004326Y-58594824D02*
X40010993Y-59184777D01*
X40186344Y-61574172D02*
X39716689Y-62011536D01*
X39729287Y-44377452D02*
X39547276Y-44873998D01*
X40004326Y-57206195D02*
X40004326Y-58594824D01*
X40021881Y-43755238D02*
G75*
G02*
X40405604Y-43123015I6879731J-3743045D01*
G01*
X40060277Y-60378701D02*
X40095335Y-60778812D01*
X39371969Y-47481202D02*
X38794656Y-48632327D01*
X40010993Y-59184777D02*
X40031059Y-59809180D01*
X47079230Y-35010719D02*
G75*
G02*
X46679179Y-35370418I-3727383J3743213D01*
G01*
X38183167Y-54813258D02*
G75*
G02*
X37718717Y-52972365I4718283J2169439D01*
G01*
X44256523Y-37777569D02*
X43815961Y-38412412D01*
X41081919Y-42160278D02*
X40405604Y-43123015D01*
X43296224Y-39142798D02*
X42758326Y-39880210D01*
X43815961Y-38412412D02*
X43296224Y-39142798D01*
X44496745Y-37405742D02*
G75*
G02*
X44762735Y-37016135I3824231J-2325242D01*
G01*
X47388637Y-34660379D02*
G75*
G02*
X47079230Y-35010719I-2884486J2235674D01*
G01*
X39407373Y-45663229D02*
X39387268Y-46337327D01*
X44377929Y-77172735D02*
G75*
G02*
X44103253Y-76154233I5316390J1980050D01*
G01*
X39389989Y-63754683D02*
X39667116Y-64124891D01*
X44762736Y-37016135D02*
G75*
G02*
X45047472Y-36691816I2497438J-1905482D01*
G01*
X39172186Y-63436560D02*
G75*
G02*
X39103537Y-63280031I428037J281044D01*
G01*
X39103536Y-63280031D02*
G75*
G02*
X39085175Y-62981210I792485J198671D01*
G01*
X46053976Y-35860452D02*
X45434965Y-36344681D01*
X39173317Y-62682101D02*
G75*
G02*
X39379095Y-62365506I1351553J-653300D01*
G01*
X39387268Y-46337327D02*
X39371969Y-47481202D01*
X39379096Y-62365507D02*
G75*
G02*
X39716689Y-62011536I3151655J-2667864D01*
G01*
X37718717Y-52972365D02*
G75*
G02*
X37925356Y-50913348I6350413J402561D01*
G01*
X50862697Y-31540449D02*
G75*
G02*
X52169191Y-31171799I2350177J-5829593D01*
G01*
X48602189Y-33082008D02*
G75*
G02*
X49663775Y-32181396I4809073J-4592670D01*
G01*
X39453169Y-45246729D02*
G75*
G02*
X39547276Y-44873998I2542646J-443718D01*
G01*
X47702334Y-34219065D02*
X47388638Y-34660379D01*
X39290326Y-56451469D02*
X40004326Y-57206195D01*
X37925356Y-50913348D02*
G75*
G02*
X38794656Y-48632327I11715997J-3158823D01*
G01*
X39982440Y-64511914D02*
G75*
G02*
X41488188Y-66578074I-13552559J-11458403D01*
G01*
X39290325Y-56451469D02*
G75*
G02*
X38183166Y-54813258I4416044J4177748D01*
G01*
X47702334Y-34219065D02*
G75*
G02*
X48602190Y-33082007I6550979J-4259780D01*
G01*
X39729287Y-44377453D02*
G75*
G02*
X40021881Y-43755238I5438618J-2177580D01*
G01*
X43833471Y-74365452D02*
X44103253Y-76154233D01*
X43282415Y-71146654D02*
X43833471Y-74365452D01*
X42542484Y-68678884D02*
G75*
G02*
X43282415Y-71146654I-14780022J-5776427D01*
G01*
X41488188Y-66578075D02*
G75*
G02*
X42542484Y-68678884I-10789544J-6729710D01*
G01*
X40031059Y-59809180D02*
X40060277Y-60378701D01*
X39667116Y-64124891D02*
X39982440Y-64511915D01*
X39172187Y-63436560D02*
X39389989Y-63754683D01*
X44496746Y-37405743D02*
X44256523Y-37777569D01*
X90814947Y-113918592D02*
G75*
G02*
X90927263Y-113794040I727782J-543368D01*
G01*
X94243639Y-86052636D02*
X94348972Y-85822616D01*
X94773695Y-87754162D02*
G75*
G02*
X94939024Y-88426445I-4903978J-1562465D01*
G01*
X93564890Y-93733967D02*
G75*
G02*
X92690388Y-94568990I-3414571J2700571D01*
G01*
X92200478Y-96412855D02*
G75*
G02*
X92065939Y-95687508I8045810J1867507D01*
G01*
X94217326Y-86184335D02*
G75*
G02*
X94243639Y-86052636I342739J0D01*
G01*
X93504396Y-106611564D02*
G75*
G02*
X93766151Y-107603987I-4411605J-1694309D01*
G01*
X94513480Y-87077391D02*
G75*
G02*
X94773695Y-87754162I-5635096J-2555077D01*
G01*
X90809020Y-115832871D02*
X90738756Y-115118121D01*
X92065939Y-95687508D02*
G75*
G02*
X92091941Y-95258145I1076357J150286D01*
G01*
X92412297Y-98743452D02*
X92400187Y-98009944D01*
X93054138Y-105753912D02*
G75*
G02*
X93504395Y-106611564I-3431156J-2348334D01*
G01*
X89652326Y-119687779D02*
X90041877Y-118965543D01*
X94235098Y-86316670D02*
G75*
G02*
X94217326Y-86184335I483811J132335D01*
G01*
X94939024Y-88426445D02*
G75*
G02*
X95013156Y-89117630I-5114318J-898094D01*
G01*
X95853624Y-81659546D02*
G75*
G02*
X95886328Y-81579100I254314J-56517D01*
G01*
X95741432Y-82227026D02*
X95799067Y-81917164D01*
X91750171Y-103740471D02*
X91914662Y-102893038D01*
X95533543Y-83361921D02*
X95686161Y-82573181D01*
X95325055Y-84043015D02*
G75*
G02*
X95042108Y-84668770I-4928779J1851797D01*
G01*
X92311862Y-100742002D02*
X92388498Y-99816938D01*
X90701461Y-114109765D02*
G75*
G02*
X90814947Y-113918592I958518J-439735D01*
G01*
X95533543Y-83361922D02*
G75*
G02*
X95325056Y-84043016I-5559396J1329309D01*
G01*
X94304321Y-86545629D02*
X94235098Y-86316670D01*
X90800931Y-116444464D02*
G75*
G02*
X90708960Y-117054797I-4544986J372782D01*
G01*
X92388498Y-99816938D02*
X92412297Y-98743452D01*
X91948790Y-104539157D02*
G75*
G02*
X91765919Y-104181204I637279J551261D01*
G01*
X93212178Y-111559824D02*
G75*
G02*
X92473290Y-112619037I-4109369J2079297D01*
G01*
X90656538Y-114288092D02*
G75*
G02*
X90701461Y-114109764I503320J-31970D01*
G01*
X95042109Y-84668770D02*
G75*
G02*
X94665485Y-85289831I-5807334J3096956D01*
G01*
X94270040Y-92614828D02*
G75*
G02*
X93564890Y-93733966I-5566243J2725479D01*
G01*
X92300561Y-96921491D02*
X92200478Y-96412854D01*
X92473290Y-112619036D02*
G75*
G02*
X91496292Y-113380493I-2863133J2666080D01*
G01*
X92278502Y-94926308D02*
G75*
G02*
X92690388Y-94568990I2151166J-2063633D01*
G01*
X92091941Y-95258145D02*
G75*
G02*
X92278502Y-94926307I736445J-195671D01*
G01*
X92163102Y-101702356D02*
X92311862Y-100742002D01*
X91299436Y-113500784D02*
G75*
G02*
X91496292Y-113380493I1420904J-2104085D01*
G01*
X90041877Y-118965543D02*
X90305341Y-118379848D01*
X92415762Y-105019061D02*
G75*
G02*
X93054138Y-105753912I-2859743J-3129013D01*
G01*
X90738756Y-115118121D02*
X90663743Y-114544731D01*
X92364765Y-97430113D02*
X92300561Y-96921491D01*
X92400187Y-98009944D02*
X92364765Y-97430113D01*
X93766151Y-107603986D02*
G75*
G02*
X93844605Y-108739452I-7034372J-1056479D01*
G01*
X91100385Y-113646285D02*
X91299436Y-113500784D01*
X90521539Y-117766452D02*
X90708960Y-117054797D01*
X90663742Y-114544731D02*
G75*
G02*
X90656538Y-114288093I1394876J167580D01*
G01*
X93844605Y-108739452D02*
G75*
G02*
X93676404Y-110246638I-7592285J84314D01*
G01*
X91765919Y-104181205D02*
G75*
G02*
X91750171Y-103740471I1103418J260075D01*
G01*
X95799067Y-81917164D02*
X95853624Y-81659546D01*
X95013155Y-89117631D02*
G75*
G02*
X95000531Y-89850984I-6424087J-256195D01*
G01*
X92415761Y-105019061D02*
G75*
G02*
X91948790Y-104539158I3857317J4220520D01*
G01*
X90305341Y-118379848D02*
X90521539Y-117766452D01*
X95886329Y-81579100D02*
G75*
G02*
X95943235Y-81515281I209322J-129368D01*
G01*
X93676405Y-110246638D02*
G75*
G02*
X93212178Y-111559823I-5308581J1137999D01*
G01*
X95686161Y-82573181D02*
X95741432Y-82227026D01*
X94493910Y-85558041D02*
X94665485Y-85289831D01*
X94348972Y-85822616D02*
X94493910Y-85558041D01*
X94400107Y-86809737D02*
X94304321Y-86545629D01*
X94513480Y-87077391D02*
X94400107Y-86809737D01*
X94761045Y-91291427D02*
G75*
G02*
X94270041Y-92614828I-6836822J1783788D01*
G01*
X90927263Y-113794040D02*
X91100385Y-113646285D01*
X91914662Y-102893038D02*
X92163102Y-101702356D01*
X90809020Y-115832871D02*
G75*
G02*
X90800930Y-116444464I-4454004J-246934D01*
G01*
X95000532Y-89850983D02*
G75*
G02*
X94761045Y-91291427I-8059234J599789D01*
G01*
X70979810Y-145231654D02*
X71834905Y-146173499D01*
X59079257Y-133782639D02*
X59426680Y-134194124D01*
X81852644Y-138768491D02*
G75*
G02*
X82480810Y-137593523I10031771J-4607819D01*
G01*
X80567866Y-141777155D02*
G75*
G02*
X80189377Y-142304280I-3387219J2032660D01*
G01*
X78015107Y-146503424D02*
G75*
G02*
X77672224Y-147314720I-4261182J1322821D01*
G01*
X76179457Y-148566513D02*
G75*
G02*
X75915580Y-148607036I-363916J1490338D01*
G01*
X70119525Y-144441486D02*
G75*
G02*
X70979810Y-145231654I-7295482J-8806260D01*
G01*
X65799391Y-141446460D02*
G75*
G02*
X65367601Y-140957817I3912147J3892074D01*
G01*
X86856630Y-131370168D02*
G75*
G02*
X86519183Y-132197906I-6777804J2280477D01*
G01*
X74649166Y-148475109D02*
G75*
G02*
X73794466Y-148067165I1057837J3315648D01*
G01*
X80892814Y-141138445D02*
G75*
G02*
X80567865Y-141777155I-4726287J2002520D01*
G01*
X78539417Y-144504166D02*
G75*
G02*
X78769717Y-143944796I2819906J-833899D01*
G01*
X59079257Y-133782639D02*
G75*
G02*
X58485657Y-133048567I7973528J7054764D01*
G01*
X59426680Y-134194124D02*
X59842271Y-134723001D01*
X85786948Y-133406283D02*
X86188359Y-132806117D01*
X77672223Y-147314720D02*
G75*
G02*
X77246759Y-147900101I-2455556J1337429D01*
G01*
X88357331Y-121906498D02*
X88672564Y-121351852D01*
X59842271Y-134723001D02*
X60256430Y-135276848D01*
X64723736Y-140266589D02*
X65132969Y-140686306D01*
X69142110Y-143708085D02*
G75*
G02*
X70119525Y-144441486I-7125518J-10514306D01*
G01*
X71834905Y-146173499D02*
X72893750Y-147331954D01*
X78015106Y-146503424D02*
X78319090Y-145357729D01*
X88999746Y-120796525D02*
X89652326Y-119687779D01*
X58027322Y-132339432D02*
G75*
G02*
X57659339Y-131578075I5975363J3357651D01*
G01*
X87187125Y-129512678D02*
X87278231Y-127812689D01*
X60256430Y-135276848D02*
X60602263Y-135769452D01*
X64243443Y-139797332D02*
X64723736Y-140266589D01*
X88672564Y-121351852D02*
X88999746Y-120796525D01*
X78319090Y-145357729D02*
X78539417Y-144504166D01*
X67927208Y-142936192D02*
X69142109Y-143708086D01*
X88091675Y-122391341D02*
X88357331Y-121906498D01*
X65132969Y-140686306D02*
G75*
G02*
X65367601Y-140957817I-2704590J-2574360D01*
G01*
X80189377Y-142304280D02*
G75*
G02*
X79653900Y-142876773I-6346963J5399906D01*
G01*
X75551326Y-148617967D02*
X75915580Y-148607036D01*
X75551325Y-148617966D02*
G75*
G02*
X74649166Y-148475109I15877J3020307D01*
G01*
X60602263Y-135769452D02*
X61312002Y-136764559D01*
X87946953Y-122683525D02*
X88091675Y-122391341D01*
X87709085Y-123411647D02*
G75*
G02*
X87946953Y-122683525I3401992J-708470D01*
G01*
X82480810Y-137593523D02*
G75*
G02*
X83283157Y-136438495I10742089J-6605869D01*
G01*
X66916297Y-142315424D02*
G75*
G02*
X66273112Y-141864458I4522380J7134146D01*
G01*
X80892814Y-141138445D02*
X81268787Y-140185735D01*
X87523720Y-124508059D02*
X87709085Y-123411647D01*
X87379862Y-125951410D02*
X87523720Y-124508059D01*
X79101502Y-143462950D02*
X79653900Y-142876773D01*
X81268787Y-140185735D02*
X81852644Y-138768491D01*
X78769718Y-143944796D02*
G75*
G02*
X79101502Y-143462950I2359063J-1269228D01*
G01*
X76417704Y-148483569D02*
G75*
G02*
X76179458Y-148566513I-551958J1201788D01*
G01*
X61982211Y-137586701D02*
X62746193Y-138391706D01*
X61312002Y-136764559D02*
X61982211Y-137586701D01*
X85234992Y-134111511D02*
X85786948Y-133406283D01*
X76695571Y-148338559D02*
G75*
G02*
X76417703Y-148483569I-1575180J2679640D01*
G01*
X87278231Y-127812689D02*
X87379862Y-125951410D01*
X77246760Y-147900102D02*
G75*
G02*
X76695572Y-148338560I-1825081J1728637D01*
G01*
X87187125Y-129512678D02*
G75*
G02*
X87061614Y-130560563I-10093518J677497D01*
G01*
X63751832Y-139340017D02*
X64243443Y-139797332D01*
X58485657Y-133048568D02*
G75*
G02*
X58027322Y-132339432I5496569J4055281D01*
G01*
X66273112Y-141864458D02*
G75*
G02*
X65799391Y-141446460I2975016J3849049D01*
G01*
X73794465Y-148067166D02*
G75*
G02*
X72893750Y-147331954I3114035J4734382D01*
G01*
X62746193Y-138391706D02*
X63751832Y-139340017D01*
X87061614Y-130560564D02*
G75*
G02*
X86856630Y-131370168I-5377844J930865D01*
G01*
X86519183Y-132197906D02*
G75*
G02*
X86188359Y-132806117I-6427289J3101919D01*
G01*
X83283157Y-136438495D02*
X84413509Y-135071973D01*
X84413509Y-135071973D02*
X85234992Y-134111511D01*
X66916297Y-142315424D02*
X67927208Y-142936192D01*
X54045373Y-126652365D02*
G75*
G02*
X53508774Y-126243104I2203400J3445379D01*
G01*
X53075359Y-125776133D02*
G75*
G02*
X52728738Y-125238166I2899838J2249064D01*
G01*
X52813966Y-118463557D02*
X53162953Y-119231874D01*
X52409103Y-117547336D02*
X52813966Y-118463557D01*
X54700956Y-127018030D02*
X55175283Y-127260704D01*
X56408459Y-129007989D02*
X56606590Y-129257886D01*
X55976207Y-128355622D02*
X56186574Y-128688966D01*
X52311020Y-124064466D02*
G75*
G02*
X52194181Y-122716690I5917126J1191912D01*
G01*
X57659339Y-131578075D02*
G75*
G02*
X57339148Y-130685886I9988745J4088339D01*
G01*
X55175283Y-127260704D02*
G75*
G02*
X55411824Y-127431415I-545191J-1004660D01*
G01*
X53162953Y-119231873D02*
G75*
G02*
X53249334Y-119640136I-1021021J-429299D01*
G01*
X51381363Y-113364878D02*
G75*
G02*
X51532715Y-113801188I-1289783J-691822D01*
G01*
X57179225Y-130217335D02*
X57339148Y-130685886D01*
X51532715Y-113801188D02*
X51675062Y-114729300D01*
X51675062Y-114729300D02*
X51839179Y-115678611D01*
X57023042Y-129863416D02*
G75*
G02*
X57179225Y-130217335I-2948624J-1512633D01*
G01*
X56841754Y-129561489D02*
G75*
G02*
X57023042Y-129863416I-2167648J-1506924D01*
G01*
X53249334Y-119640136D02*
G75*
G02*
X53162724Y-119989816I-695839J-13218D01*
G01*
X52083935Y-116618500D02*
X52409103Y-117547336D01*
X56186574Y-128688966D02*
X56408459Y-129007989D01*
X52377475Y-121435906D02*
G75*
G02*
X52852005Y-120466051I2672372J-706520D01*
G01*
X53162724Y-119989816D02*
G75*
G02*
X52852005Y-120466051I-3388826J1871556D01*
G01*
X51839179Y-115678611D02*
X52083935Y-116618500D01*
X56606590Y-129257886D02*
G75*
G02*
X56841755Y-129561489I-2824063J-2430342D01*
G01*
X55812934Y-128060383D02*
X55976207Y-128355622D01*
X52194182Y-122716690D02*
G75*
G02*
X52377475Y-121435906I5572195J-143932D01*
G01*
X52728739Y-125238166D02*
G75*
G02*
X52311021Y-124064466I3862732J2035922D01*
G01*
X55586870Y-127649304D02*
X55812934Y-128060383D01*
X55411824Y-127431415D02*
G75*
G02*
X55586870Y-127649304I-680500J-725955D01*
G01*
X54700957Y-127018030D02*
G75*
G02*
X54045373Y-126652365I2706445J5622766D01*
G01*
X53508773Y-126243104D02*
G75*
G02*
X53075359Y-125776133I2415485J2676527D01*
G01*
X49200401Y-81905468D02*
X49283770Y-82184483D01*
X47383910Y-89663422D02*
X47611882Y-90459858D01*
X49619887Y-83609731D02*
G75*
G02*
X49407660Y-84013351I-1122136J332422D01*
G01*
X47811032Y-86067113D02*
G75*
G02*
X48270650Y-85336921I4918357J-2586106D01*
G01*
X49283770Y-82184483D02*
X49373297Y-82452039D01*
X47232264Y-88301975D02*
G75*
G02*
X47294420Y-87625452I5290087J-144915D01*
G01*
X49373297Y-82452039D02*
X49454797Y-82661409D01*
X48545074Y-80623214D02*
G75*
G02*
X48817041Y-80844044I-464863J-850397D01*
G01*
X46005958Y-79207636D02*
G75*
G02*
X45450856Y-78708083I4663408J5740152D01*
G01*
X48270650Y-85336921D02*
G75*
G02*
X48874416Y-84620556I6185268J-4600453D01*
G01*
X47383910Y-89663422D02*
G75*
G02*
X47260102Y-88963185I5447605J1324250D01*
G01*
X51087046Y-105432306D02*
G75*
G02*
X50971650Y-105930110I-979934J-35118D01*
G01*
X50210328Y-102115302D02*
X50718956Y-103588849D01*
X47488529Y-86825392D02*
G75*
G02*
X47811031Y-86067113I4777467J-1584176D01*
G01*
X48989262Y-81144213D02*
G75*
G02*
X49137318Y-81658452I-4648245J-1616719D01*
G01*
X50971649Y-105930109D02*
G75*
G02*
X50899700Y-106021155I-289914J155156D01*
G01*
X50070916Y-95459974D02*
X49801339Y-96497364D01*
X49578565Y-99585676D02*
G75*
G02*
X49541326Y-98755517I9234454J830153D01*
G01*
X49059533Y-92898500D02*
G75*
G02*
X48477737Y-92219033I3514053J3597737D01*
G01*
X47259897Y-80016982D02*
X48047462Y-80382909D01*
X48789844Y-110756405D02*
G75*
G02*
X48644974Y-109708452I5408061J1281606D01*
G01*
X47294420Y-87625452D02*
G75*
G02*
X47488529Y-86825391I4954558J-778483D01*
G01*
X50739870Y-106152725D02*
X50540216Y-106294042D01*
X47260101Y-88963184D02*
G75*
G02*
X47232264Y-88301975I4737924J530660D01*
G01*
X49137318Y-81658452D02*
X49200401Y-81905468D01*
X48632781Y-109176369D02*
G75*
G02*
X48652426Y-108815037I3116878J11746D01*
G01*
X51123880Y-113072584D02*
G75*
G02*
X51381362Y-113364878I-495906J-696401D01*
G01*
X49567314Y-97965332D02*
G75*
G02*
X49646197Y-97267404I7492171J-493373D01*
G01*
X50623291Y-112768453D02*
G75*
G02*
X51123880Y-113072584I-1833400J-3581749D01*
G01*
X49129832Y-111553205D02*
G75*
G02*
X48789844Y-110756405I2142389J1385073D01*
G01*
X50540216Y-106294042D02*
X50322582Y-106426413D01*
X49407660Y-84013351D02*
X48874416Y-84620556D01*
X48047462Y-80382910D02*
G75*
G02*
X48545074Y-80623214I-2134314J-5055017D01*
G01*
X49632810Y-83211077D02*
G75*
G02*
X49619886Y-83609732I-769255J-174598D01*
G01*
X47259897Y-80016982D02*
G75*
G02*
X46594536Y-79634584I3396167J6679276D01*
G01*
X49071207Y-107646275D02*
G75*
G02*
X49414331Y-107170565I2905401J-1734032D01*
G01*
X49414331Y-107170566D02*
G75*
G02*
X49836175Y-106759250I2585894J-2230108D01*
G01*
X47995955Y-91406715D02*
G75*
G02*
X47611882Y-90459858I6944490J3368213D01*
G01*
X50623290Y-112768452D02*
G75*
G02*
X49719008Y-112194313I2639305J5156167D01*
G01*
X46594536Y-79634584D02*
G75*
G02*
X46005958Y-79207637I3603988J5587538D01*
G01*
X50899700Y-106021155D02*
X50739870Y-106152725D01*
X50718956Y-103588849D02*
G75*
G02*
X50996337Y-104656557I-9185809J-2956276D01*
G01*
X49836175Y-106759249D02*
G75*
G02*
X50322582Y-106426413I2166996J-2645012D01*
G01*
X49719008Y-112194313D02*
G75*
G02*
X49129832Y-111553206I1580756J2043990D01*
G01*
X48817042Y-80844044D02*
G75*
G02*
X48989262Y-81144213I-710740J-607273D01*
G01*
X49801339Y-96497364D02*
X49646197Y-97267404D01*
X49690306Y-100361184D02*
G75*
G02*
X49578565Y-99585676I7192107J1432098D01*
G01*
X48818579Y-108170359D02*
G75*
G02*
X49071206Y-107646275I3065769J-1154882D01*
G01*
X50996337Y-104656557D02*
G75*
G02*
X51087046Y-105432306I-4757732J-949503D01*
G01*
X44782834Y-77927526D02*
G75*
G02*
X44377930Y-77172734I2558500J1858493D01*
G01*
X50280843Y-94592961D02*
X50070916Y-95459974D01*
X49741786Y-93449217D02*
G75*
G02*
X50127119Y-93779696I-1129715J-1707115D01*
G01*
X49741786Y-93449217D02*
G75*
G02*
X49059533Y-92898500I2563622J3873889D01*
G01*
X50127120Y-93779697D02*
G75*
G02*
X50290959Y-94118952I-491402J-446507D01*
G01*
X48632782Y-109176369D02*
X48644974Y-109708452D01*
X48652427Y-108815038D02*
G75*
G02*
X48710154Y-108508650I2099863J-237012D01*
G01*
X49893682Y-101172510D02*
X50210328Y-102115302D01*
X50290959Y-94118952D02*
G75*
G02*
X50280843Y-94592961I-1281519J-209764D01*
G01*
X48710154Y-108508650D02*
G75*
G02*
X48818579Y-108170359I3427708J-912091D01*
G01*
X49893682Y-101172510D02*
G75*
G02*
X49690306Y-100361184I8160363J2476726D01*
G01*
X49567315Y-97965332D02*
X49541326Y-98755517D01*
X45450856Y-78708084D02*
G75*
G02*
X44782834Y-77927527I4556040J4575320D01*
G01*
X48477736Y-92219033D02*
G75*
G02*
X47995955Y-91406716I4598289J3276255D01*
G01*
X49454798Y-82661409D02*
G75*
G02*
X49632811Y-83211076I-2956208J-1261044D01*
G01*
X59091942Y-35216787D02*
G75*
G02*
X58838908Y-35413593I-1324653J1442042D01*
G01*
X58782070Y-32835262D02*
G75*
G02*
X59303193Y-33360771I-3939672J-4427931D01*
G01*
X59525351Y-33773227D02*
G75*
G02*
X59575300Y-34160089I-1337775J-369378D01*
G01*
X59515974Y-34547025D02*
G75*
G02*
X59351014Y-34907485I-1384831J415775D01*
G01*
X56257280Y-31488840D02*
G75*
G02*
X57468342Y-31943036I-1998349J-7170046D01*
G01*
X52169191Y-31171799D02*
G75*
G02*
X53429143Y-31077020I1145114J-6800634D01*
G01*
X57587073Y-35707229D02*
X58248196Y-35613910D01*
X59351015Y-34907486D02*
G75*
G02*
X59091942Y-35216788I-1307410J831938D01*
G01*
X58838908Y-35413593D02*
G75*
G02*
X58593110Y-35531442I-566612J866532D01*
G01*
X57116507Y-35836782D02*
X57372811Y-35751376D01*
X58593110Y-35531441D02*
G75*
G02*
X58248196Y-35613910I-684490J2100285D01*
G01*
X58132621Y-32326659D02*
G75*
G02*
X58782071Y-32835263I-3723001J-5422950D01*
G01*
X56860820Y-35946086D02*
X57116507Y-35836782D01*
X57468342Y-31943037D02*
G75*
G02*
X58132621Y-32326659I-2124755J-4446158D01*
G01*
X59303194Y-33360771D02*
G75*
G02*
X59525351Y-33773226I-791354J-692298D01*
G01*
X53429142Y-31077019D02*
G75*
G02*
X54851458Y-31191891I-185947J-11165202D01*
G01*
X54851458Y-31191891D02*
G75*
G02*
X56257281Y-31488840I-1626884J-11178242D01*
G01*
X59575299Y-34160089D02*
G75*
G02*
X59515974Y-34547025I-1407150J17730D01*
G01*
X57372811Y-35751376D02*
G75*
G02*
X57587073Y-35707229I392927J-1365007D01*
G01*
X48701561Y-47496791D02*
X48756762Y-46213452D01*
X48657034Y-48240102D02*
X48701561Y-47496791D01*
X74206140Y-65814314D02*
G75*
G02*
X73691534Y-65683079I235329J1997357D01*
G01*
X75596818Y-65642319D02*
X74731622Y-65804764D01*
X48657034Y-48240102D02*
G75*
G02*
X48592525Y-48744937I-5034570J386796D01*
G01*
X47933236Y-51303779D02*
G75*
G02*
X47963777Y-50853718I1048480J154917D01*
G01*
X48102449Y-51663589D02*
G75*
G02*
X47933235Y-51303779I511934J460451D01*
G01*
X65780000Y-65329137D02*
X65275912Y-65322613D01*
X66670166Y-65386913D02*
G75*
G02*
X66880652Y-65430309I-107625J-1054168D01*
G01*
X78348608Y-64784665D02*
G75*
G02*
X77575812Y-65098499I-3885229J8458701D01*
G01*
X76685767Y-65375636D02*
X75596818Y-65642319D01*
X50867718Y-55734103D02*
X50349851Y-54558637D01*
X64027499Y-65327061D02*
X60833354Y-63968003D01*
X50035739Y-53874691D02*
G75*
G02*
X50349851Y-54558637I-6362674J-3336250D01*
G01*
X58453241Y-62944782D02*
X57508437Y-62531698D01*
X68501143Y-65389236D02*
G75*
G02*
X67865556Y-65511761I-1188886J4457421D01*
G01*
X49228587Y-52762207D02*
G75*
G02*
X49680027Y-53301710I-3703955J-3557991D01*
G01*
X73691534Y-65683079D02*
X72860000Y-65319865D01*
X66670166Y-65386913D02*
X66262275Y-65352414D01*
X47963777Y-50853718D02*
X48277843Y-49858650D01*
X49228586Y-52762207D02*
X48620530Y-52177974D01*
X56755406Y-62079929D02*
X55442922Y-60907654D01*
X77575812Y-65098499D02*
X76685767Y-65375636D01*
X52323443Y-42749126D02*
G75*
G02*
X51319758Y-43378463I-3371290J4261612D01*
G01*
X49680027Y-53301710D02*
G75*
G02*
X50035740Y-53874691I-3758856J-2730444D01*
G01*
X54860629Y-38920452D02*
X55516130Y-37562331D01*
X67357143Y-65522582D02*
G75*
G02*
X66880652Y-65430309I166061J2133938D01*
G01*
X56264553Y-36384608D02*
G75*
G02*
X56646905Y-36064356I1396574J-1279010D01*
G01*
X53936219Y-40738344D02*
X54860629Y-38920452D01*
X49802149Y-44989452D02*
X50031022Y-44655749D01*
X48620529Y-52177974D02*
G75*
G02*
X48102449Y-51663588I4290218J4839129D01*
G01*
X49313480Y-45601452D02*
X49550382Y-45322548D01*
X48592525Y-48744937D02*
G75*
G02*
X48480167Y-49221427I-4458868J799920D01*
G01*
X55442922Y-60907654D02*
X54063166Y-59628526D01*
X52034550Y-57539909D02*
G75*
G02*
X51399806Y-56679436I6604963J5536626D01*
G01*
X52865787Y-58453856D02*
X52034550Y-57539909D01*
X74731622Y-65804764D02*
G75*
G02*
X74206140Y-65814314I-297777J1923076D01*
G01*
X53936219Y-40738345D02*
G75*
G02*
X53147160Y-41927021I-7352261J4024294D01*
G01*
X53147160Y-41927020D02*
G75*
G02*
X52323444Y-42749126I-3966136J3150189D01*
G01*
X57216234Y-62393161D02*
G75*
G02*
X56755406Y-62079929I1013605J1986825D01*
G01*
X60833354Y-63968003D02*
X59579000Y-63431687D01*
X54063166Y-59628526D02*
X52865787Y-58453856D01*
X50590998Y-43798975D02*
G75*
G02*
X50838989Y-43625037I878872J-989290D01*
G01*
X50409867Y-44010743D02*
G75*
G02*
X50590997Y-43798975I859396J-551712D01*
G01*
X67865556Y-65511761D02*
G75*
G02*
X67357143Y-65522583I-308714J2555365D01*
G01*
X66262275Y-65352414D02*
X65780000Y-65329137D01*
X50195261Y-44377452D02*
X50409868Y-44010743D01*
X51399805Y-56679437D02*
G75*
G02*
X50867718Y-55734103I7494760J4840888D01*
G01*
X59579000Y-63431687D02*
X58453241Y-62944782D01*
X69400889Y-65125841D02*
X68501143Y-65389235D01*
X71192775Y-64754931D02*
G75*
G02*
X71858958Y-64895611I-125844J-2243606D01*
G01*
X72860000Y-65319865D02*
X71858958Y-64895611D01*
X70502262Y-64817557D02*
G75*
G02*
X71192775Y-64754931I557497J-2308835D01*
G01*
X49550382Y-45322548D02*
X49802149Y-44989452D01*
X48277843Y-49858650D02*
X48480167Y-49221427D01*
X65275912Y-65322613D02*
X64027499Y-65327061D01*
X70502262Y-64817558D02*
X69400889Y-65125841D01*
X56646905Y-36064356D02*
G75*
G02*
X56860820Y-35946086I1089425J-1717847D01*
G01*
X55922356Y-36834563D02*
G75*
G02*
X56264553Y-36384608I2628661J-1644035D01*
G01*
X55516130Y-37562330D02*
G75*
G02*
X55922356Y-36834563I7503430J-3711011D01*
G01*
X50838989Y-43625037D02*
X51319758Y-43378463D01*
X50195261Y-44377453D02*
G75*
G02*
X50031022Y-44655749I-3179350J1688710D01*
G01*
X48756762Y-46213452D02*
X49313480Y-45601452D01*
X85185041Y-36398294D02*
G75*
G02*
X86000453Y-36833604I-863398J-2598655D01*
G01*
X84172630Y-36195038D02*
G75*
G02*
X83571952Y-36110709I357664J4729126D01*
G01*
X83426553Y-33095821D02*
G75*
G02*
X84450053Y-32422162I5482403J-7215161D01*
G01*
X82420633Y-34561067D02*
G75*
G02*
X82526692Y-34153031I1521418J-177654D01*
G01*
X93579694Y-48197509D02*
X93639886Y-48696341D01*
X92270567Y-44651761D02*
X92524755Y-44979536D01*
X91758295Y-43851244D02*
G75*
G02*
X91914907Y-44107812I-1541816J-1117226D01*
G01*
X87537478Y-31258680D02*
X86954333Y-31398473D01*
X82811351Y-35707381D02*
G75*
G02*
X82558261Y-35348419I1187515J1105972D01*
G01*
X82526692Y-34153031D02*
G75*
G02*
X82741442Y-33779677I1539440J-637035D01*
G01*
X83571952Y-36110710D02*
G75*
G02*
X83135305Y-35954661I336295J1629927D01*
G01*
X90760506Y-57345384D02*
X90542953Y-57683509D01*
X92779419Y-45276269D02*
X93019453Y-45554174D01*
X92472450Y-54052707D02*
X91898744Y-55112985D01*
X82431465Y-34970554D02*
G75*
G02*
X82420633Y-34561067I1419723J242442D01*
G01*
X93541188Y-47590452D02*
X93579694Y-48197509D01*
X90928331Y-43069854D02*
X91285742Y-43353081D01*
X93730793Y-49153560D02*
X93862626Y-49630452D01*
X86000452Y-36833604D02*
G75*
G02*
X86697035Y-37563731I-2084370J-2685961D01*
G01*
X92051860Y-44341520D02*
G75*
G02*
X91914907Y-44107812I1843555J1237308D01*
G01*
X93639886Y-48696341D02*
X93730793Y-49153560D01*
X82558261Y-35348419D02*
G75*
G02*
X82431465Y-34970554I1148787J595692D01*
G01*
X93019453Y-45554174D02*
X93229587Y-45825304D01*
X83135305Y-35954661D02*
G75*
G02*
X82811351Y-35707382I562767J1073109D01*
G01*
X90542953Y-57683508D02*
G75*
G02*
X90385726Y-57836397I-473187J329326D01*
G01*
X79076805Y-64407648D02*
G75*
G02*
X78348608Y-64784664I-4358063J7525723D01*
G01*
X93491962Y-46694560D02*
X93518530Y-47124464D01*
X91554675Y-43606306D02*
G75*
G02*
X91758294Y-43851244I-1737577J-1651562D01*
G01*
X80423378Y-63684708D02*
X79076804Y-64407647D01*
X84512493Y-62139018D02*
X83186809Y-62531222D01*
X86751707Y-60818639D02*
X85559088Y-61875095D01*
X82741442Y-33779677D02*
G75*
G02*
X83426552Y-33095820I2865439J-2185579D01*
G01*
X91898744Y-55112985D02*
X91351631Y-56208210D01*
X84450052Y-32422161D02*
G75*
G02*
X85667926Y-31832130I5263242J-9311857D01*
G01*
X93080484Y-53013650D02*
X92472450Y-54052707D01*
X81808533Y-63052883D02*
X80423378Y-63684708D01*
X83186809Y-62531222D02*
X81808533Y-63052883D01*
X84172630Y-36195038D02*
G75*
G02*
X85185041Y-36398294I-318276J-4208349D01*
G01*
X93862626Y-49630452D02*
X94133714Y-50563200D01*
X93730567Y-51982078D02*
X93080484Y-53013650D01*
X93464970Y-46334616D02*
X93491962Y-46694560D01*
X93392057Y-46060816D02*
G75*
G02*
X93444157Y-46187798I-307072J-200168D01*
G01*
X85559088Y-61875095D02*
X84512493Y-62139018D01*
X91025746Y-56865106D02*
X90760506Y-57345384D01*
X93229587Y-45825304D02*
X93392057Y-46060816D01*
X91285743Y-43353081D02*
G75*
G02*
X91554675Y-43606305I-2146558J-2549138D01*
G01*
X92051860Y-44341520D02*
X92270567Y-44651761D01*
X87732917Y-59968486D02*
X86751707Y-60818639D01*
X88846328Y-59039971D02*
X87732917Y-59968486D01*
X94133714Y-50563201D02*
G75*
G02*
X94180053Y-51010578I-1369039J-367893D01*
G01*
X90928332Y-43069853D02*
G75*
G02*
X89863541Y-42172012I6918003J9284683D01*
G01*
X88116546Y-40019026D02*
G75*
G02*
X87356054Y-38665452I14109052J8817461D01*
G01*
X86697035Y-37563731D02*
G75*
G02*
X87356054Y-38665452I-7115054J-5003987D01*
G01*
X88939231Y-41171372D02*
G75*
G02*
X88116546Y-40019027I8953949J7262265D01*
G01*
X89875570Y-58206225D02*
X88846328Y-59039971D01*
X93518530Y-47124464D02*
X93541188Y-47590452D01*
X92524755Y-44979536D02*
X92779419Y-45276269D01*
X89863540Y-42172013D02*
G75*
G02*
X88939231Y-41171372I7306962J7676788D01*
G01*
X89875570Y-58206225D02*
G75*
G02*
X90385726Y-57836397I4167907J-5212609D01*
G01*
X91351631Y-56208210D02*
X91025746Y-56865106D01*
X94074095Y-51395496D02*
G75*
G02*
X93730567Y-51982078I-6196046J3234785D01*
G01*
X94180053Y-51010578D02*
G75*
G02*
X94074094Y-51395496I-944881J53062D01*
G01*
X93444157Y-46187798D02*
G75*
G02*
X93464970Y-46334616I-1207785J-246102D01*
G01*
X85667927Y-31832130D02*
G75*
G02*
X86954333Y-31398473I4096338J-10026602D01*
G01*
X98818162Y-77437553D02*
G75*
G02*
X98585336Y-78263226I-9471104J2225036D01*
G01*
X99425219Y-38402446D02*
X98864459Y-37819805D01*
X104934211Y-53108236D02*
X104967474Y-52548291D01*
X102574574Y-65241098D02*
X103072712Y-64421261D01*
X99425219Y-38402446D02*
G75*
G02*
X100988079Y-40173285I-13601554J-13579172D01*
G01*
X100988079Y-40173284D02*
G75*
G02*
X102136800Y-41943294I-9697605J-7551421D01*
G01*
X102136800Y-41943294D02*
G75*
G02*
X102936913Y-43832308I-10176097J-5424155D01*
G01*
X98298520Y-78984865D02*
G75*
G02*
X97946220Y-79654454I-7343439J3436222D01*
G01*
X103001435Y-62396733D02*
G75*
G02*
X103049297Y-62039669I1385452J-3972D01*
G01*
X103564894Y-46552041D02*
X103452795Y-45958452D01*
X104145676Y-55782899D02*
X104453801Y-54976444D01*
X104529087Y-48709212D02*
G75*
G02*
X104799490Y-49521109I-4302822J-1884037D01*
G01*
X103199426Y-63083257D02*
G75*
G02*
X103050086Y-62720704I1939616J1010985D01*
G01*
X104967474Y-52548291D02*
X104977283Y-51670452D01*
X103836077Y-56441306D02*
X104145676Y-55782899D01*
X103325932Y-63491491D02*
G75*
G02*
X103292794Y-63901382I-1021440J-123705D01*
G01*
X104934210Y-53108237D02*
G75*
G02*
X104865999Y-53561712I-4363650J424514D01*
G01*
X103471342Y-60155814D02*
G75*
G02*
X103385609Y-60912121I-5778766J272050D01*
G01*
X97946219Y-79654454D02*
G75*
G02*
X97581185Y-80178976I-3582834J2104150D01*
G01*
X104453801Y-54976444D02*
X104745737Y-54050549D01*
X103352340Y-58408757D02*
X103178133Y-57366924D01*
X103292794Y-63901382D02*
G75*
G02*
X103072712Y-64421261I-2291582J663581D01*
G01*
X99784838Y-71999796D02*
G75*
G02*
X100474473Y-69546533I21860047J-4821502D01*
G01*
X101386026Y-67346908D02*
G75*
G02*
X102574574Y-65241098I18391953J-8992351D01*
G01*
X95943235Y-81515281D02*
X96137651Y-81365570D01*
X99032024Y-76373359D02*
X99263935Y-74875452D01*
X100474472Y-69546533D02*
G75*
G02*
X101386026Y-67346907I18205760J-6256011D01*
G01*
X97581184Y-80178976D02*
G75*
G02*
X97161465Y-80613633I-2823955J2306930D01*
G01*
X87537478Y-31258680D02*
G75*
G02*
X88024205Y-31180308I1050985J-4976500D01*
G01*
X103049297Y-62039669D02*
G75*
G02*
X103203779Y-61564452I4762638J-1285503D01*
G01*
X88570887Y-31141674D02*
X88024205Y-31180308D01*
X91798125Y-31466499D02*
X91167713Y-31266295D01*
X98818162Y-77437553D02*
X99032024Y-76373359D01*
X90256932Y-31135983D02*
G75*
G02*
X90738727Y-31174118I-79560J-4067729D01*
G01*
X93187892Y-32095262D02*
G75*
G02*
X94503620Y-32999889I-4798671J-8388527D01*
G01*
X98585336Y-78263226D02*
G75*
G02*
X98298519Y-78984865I-6215118J2052394D01*
G01*
X94503621Y-32999889D02*
G75*
G02*
X95810996Y-34234404I-7938611J-9716671D01*
G01*
X98864459Y-37819805D02*
X98236927Y-37127081D01*
X103679417Y-46972022D02*
G75*
G02*
X103564894Y-46552041I3596947J1206436D01*
G01*
X104068598Y-47794452D02*
X103833318Y-47348925D01*
X103385609Y-60912121D02*
G75*
G02*
X103203779Y-61564452I-3583023J647219D01*
G01*
X104068597Y-47794452D02*
G75*
G02*
X104529087Y-48709212I-8286648J-4744780D01*
G01*
X104977283Y-51670452D02*
X104935877Y-50430590D01*
X104799490Y-49521109D02*
G75*
G02*
X104935877Y-50430590I-5504100J-1290371D01*
G01*
X103352340Y-58408757D02*
G75*
G02*
X103460715Y-59315164I-9648008J-1613252D01*
G01*
X103050086Y-62720703D02*
G75*
G02*
X103001435Y-62396733I1033690J320867D01*
G01*
X97161466Y-80613633D02*
G75*
G02*
X96645003Y-81008963I-3221194J3673170D01*
G01*
X98236927Y-37127081D02*
X97640263Y-36436001D01*
X103836077Y-56441306D02*
G75*
G02*
X103540831Y-56901386I-2659548J1381930D01*
G01*
X103460716Y-59315164D02*
G75*
G02*
X103471342Y-60155814I-7029036J-509242D01*
G01*
X89372326Y-31128563D02*
X88570887Y-31141674D01*
X96375803Y-81192720D02*
X96645003Y-81008963D01*
X103178133Y-57366924D02*
X103540831Y-56901386D01*
X90256932Y-31135984D02*
X89372326Y-31128563D01*
X103199426Y-63083257D02*
G75*
G02*
X103325933Y-63491491I-1058568J-551756D01*
G01*
X102936913Y-43832308D02*
G75*
G02*
X103452795Y-45958452I-14170737J-4564011D01*
G01*
X96137651Y-81365570D02*
X96375803Y-81192720D01*
X90738727Y-31174119D02*
G75*
G02*
X91167713Y-31266295I-413700J-2969670D01*
G01*
X91798126Y-31466499D02*
G75*
G02*
X93187893Y-32095262I-2613294J-7626514D01*
G01*
X95810996Y-34234404D02*
G75*
G02*
X97178672Y-35862450I-17958714J-16475105D01*
G01*
X104745737Y-54050549D02*
X104865999Y-53561712D01*
X97640263Y-36436001D02*
X97178672Y-35862450D01*
X103833318Y-47348925D02*
G75*
G02*
X103679417Y-46972022I2861089J1388145D01*
G01*
X99263935Y-74875452D02*
X99784837Y-71999797D01*
M02*
